<mxfile host="Electron" modified="2023-11-22T13:02:41.874Z" agent="Mozilla/5.0 (Windows NT 10.0; Win64; x64) AppleWebKit/537.36 (KHTML, like Gecko) draw.io/21.2.8 Chrome/112.0.5615.165 Electron/24.2.0 Safari/537.36" etag="IDQe2kRaRfIjThaPTX6r" version="21.2.8" type="device">
  <diagram name="Page-1" id="sK4H_tdlql9gXLZo5LwN">
    <mxGraphModel dx="2587" dy="2075" grid="1" gridSize="10" guides="1" tooltips="1" connect="1" arrows="1" fold="1" page="1" pageScale="1" pageWidth="850" pageHeight="1100" math="0" shadow="0">
      <root>
        <mxCell id="0" />
        <mxCell id="1" parent="0" />
        <mxCell id="sfBApIVU6kbWJoy4w3UA-1" value="" style="rounded=1;whiteSpace=wrap;html=1;strokeWidth=3;" vertex="1" parent="1">
          <mxGeometry x="-420" y="-160" width="2400" height="3190" as="geometry" />
        </mxCell>
        <mxCell id="dwteepIQS85eqwH7VikQ-3" value="&lt;font style=&quot;font-size: 50px;&quot;&gt;&lt;b style=&quot;font-size: 50px;&quot;&gt;User&lt;/b&gt;&lt;/font&gt;" style="text;html=1;strokeColor=none;fillColor=none;align=center;verticalAlign=middle;whiteSpace=wrap;rounded=0;fontColor=#000000;fontSize=50;" parent="1" vertex="1">
          <mxGeometry x="690" y="-80" width="60" height="30" as="geometry" />
        </mxCell>
        <mxCell id="dwteepIQS85eqwH7VikQ-4" value="findAll" style="text;html=1;strokeColor=none;fillColor=none;align=center;verticalAlign=middle;whiteSpace=wrap;rounded=0;fontStyle=1;fontSize=14;" parent="1" vertex="1">
          <mxGeometry x="-280" y="110" width="60" height="30" as="geometry" />
        </mxCell>
        <mxCell id="dwteepIQS85eqwH7VikQ-6" value="UserListResponse" style="swimlane;whiteSpace=wrap;html=1;" parent="1" vertex="1">
          <mxGeometry x="-120" y="80" width="180" height="100" as="geometry" />
        </mxCell>
        <mxCell id="dwteepIQS85eqwH7VikQ-8" value="List&lt;UserResponse&gt; users" style="text;strokeColor=none;fillColor=none;align=center;verticalAlign=middle;rounded=0;fontColor=#660000;fontSize=14;fontStyle=0" parent="dwteepIQS85eqwH7VikQ-6" vertex="1">
          <mxGeometry x="60" y="50" width="60" height="30" as="geometry" />
        </mxCell>
        <mxCell id="dwteepIQS85eqwH7VikQ-9" value="UserController" style="swimlane;whiteSpace=wrap;html=1;" parent="1" vertex="1">
          <mxGeometry x="390" y="80" width="200" height="100" as="geometry" />
        </mxCell>
        <mxCell id="dwteepIQS85eqwH7VikQ-10" value="UserMapper" style="swimlane;strokeColor=default;" parent="1" vertex="1">
          <mxGeometry x="390" y="480" width="200" height="200" as="geometry" />
        </mxCell>
        <mxCell id="dwteepIQS85eqwH7VikQ-110" value="userListToUserListResponse" style="text;strokeColor=#660000;fillColor=none;align=center;verticalAlign=middle;rounded=1;fontStyle=1" parent="dwteepIQS85eqwH7VikQ-10" vertex="1">
          <mxGeometry x="15" y="35" width="170" height="30" as="geometry" />
        </mxCell>
        <mxCell id="dwteepIQS85eqwH7VikQ-113" value="userToResponse" style="text;align=center;verticalAlign=middle;rounded=1;fontStyle=1;fillStyle=dots;strokeColor=#660000;" parent="dwteepIQS85eqwH7VikQ-10" vertex="1">
          <mxGeometry x="30" y="150" width="130" height="30" as="geometry" />
        </mxCell>
        <mxCell id="dwteepIQS85eqwH7VikQ-119" value="&amp;nbsp;userResponse" style="text;html=1;strokeColor=none;fillColor=none;align=center;verticalAlign=middle;whiteSpace=wrap;rounded=0;" parent="dwteepIQS85eqwH7VikQ-10" vertex="1">
          <mxGeometry y="90" width="95.71" height="30" as="geometry" />
        </mxCell>
        <mxCell id="dwteepIQS85eqwH7VikQ-117" value="&amp;nbsp;user" style="text;html=1;strokeColor=default;fillColor=none;align=center;verticalAlign=middle;whiteSpace=wrap;rounded=1;" parent="dwteepIQS85eqwH7VikQ-10" vertex="1">
          <mxGeometry x="135" y="90" width="50" height="30" as="geometry" />
        </mxCell>
        <mxCell id="dwteepIQS85eqwH7VikQ-111" value="" style="endArrow=classic;html=1;rounded=0;entryX=0.75;entryY=0;entryDx=0;entryDy=0;exitX=0.661;exitY=0.976;exitDx=0;exitDy=0;exitPerimeter=0;" parent="dwteepIQS85eqwH7VikQ-10" source="dwteepIQS85eqwH7VikQ-110" target="dwteepIQS85eqwH7VikQ-113" edge="1">
          <mxGeometry width="50" height="50" relative="1" as="geometry">
            <mxPoint x="130" y="70" as="sourcePoint" />
            <mxPoint x="130" y="110" as="targetPoint" />
          </mxGeometry>
        </mxCell>
        <mxCell id="dwteepIQS85eqwH7VikQ-12" value="UserService" style="swimlane;whiteSpace=wrap;html=1;" parent="1" vertex="1">
          <mxGeometry x="800" y="80" width="200" height="100" as="geometry" />
        </mxCell>
        <mxCell id="dwteepIQS85eqwH7VikQ-102" value="" style="endArrow=classic;html=1;rounded=0;" parent="dwteepIQS85eqwH7VikQ-12" edge="1">
          <mxGeometry width="50" height="50" relative="1" as="geometry">
            <mxPoint x="-210" y="40" as="sourcePoint" />
            <mxPoint y="40" as="targetPoint" />
          </mxGeometry>
        </mxCell>
        <mxCell id="dwteepIQS85eqwH7VikQ-109" value="" style="endArrow=none;dashed=1;html=1;dashPattern=1 3;strokeWidth=2;rounded=0;" parent="dwteepIQS85eqwH7VikQ-12" edge="1">
          <mxGeometry width="50" height="50" relative="1" as="geometry">
            <mxPoint y="69.17000000000002" as="sourcePoint" />
            <mxPoint x="200" y="69.17000000000002" as="targetPoint" />
            <Array as="points" />
          </mxGeometry>
        </mxCell>
        <mxCell id="dwteepIQS85eqwH7VikQ-16" value="" style="endArrow=classic;html=1;rounded=0;" parent="1" edge="1">
          <mxGeometry width="50" height="50" relative="1" as="geometry">
            <mxPoint x="390" y="140" as="sourcePoint" />
            <mxPoint x="60" y="140" as="targetPoint" />
          </mxGeometry>
        </mxCell>
        <mxCell id="dwteepIQS85eqwH7VikQ-19" value="" style="endArrow=classic;html=1;rounded=0;exitX=-0.011;exitY=0.698;exitDx=0;exitDy=0;exitPerimeter=0;" parent="1" source="dwteepIQS85eqwH7VikQ-13" edge="1">
          <mxGeometry width="50" height="50" relative="1" as="geometry">
            <mxPoint x="550" y="370" as="sourcePoint" />
            <mxPoint x="1000" y="150" as="targetPoint" />
          </mxGeometry>
        </mxCell>
        <mxCell id="dwteepIQS85eqwH7VikQ-13" value="" style="shape=cylinder3;whiteSpace=wrap;html=1;boundedLbl=1;backgroundOutline=1;size=15;" parent="1" vertex="1">
          <mxGeometry x="1210" y="80" width="110" height="100" as="geometry" />
        </mxCell>
        <mxCell id="dwteepIQS85eqwH7VikQ-14" value="UserRepo" style="text;html=1;strokeColor=none;fillColor=none;align=center;verticalAlign=middle;whiteSpace=wrap;rounded=0;" parent="1" vertex="1">
          <mxGeometry x="1235" y="130" width="60" height="30" as="geometry" />
        </mxCell>
        <mxCell id="dwteepIQS85eqwH7VikQ-23" value="" style="endArrow=classic;html=1;rounded=0;exitX=-0.011;exitY=0.698;exitDx=0;exitDy=0;exitPerimeter=0;" parent="1" edge="1">
          <mxGeometry width="50" height="50" relative="1" as="geometry">
            <mxPoint x="800" y="150" as="sourcePoint" />
            <mxPoint x="591" y="150" as="targetPoint" />
          </mxGeometry>
        </mxCell>
        <mxCell id="dwteepIQS85eqwH7VikQ-38" value="" style="group" parent="1" vertex="1" connectable="0">
          <mxGeometry x="1050" y="160" width="140" height="60" as="geometry" />
        </mxCell>
        <mxCell id="dwteepIQS85eqwH7VikQ-22" value="" style="rounded=1;whiteSpace=wrap;html=1;" parent="dwteepIQS85eqwH7VikQ-38" vertex="1">
          <mxGeometry x="10" width="130" height="60" as="geometry" />
        </mxCell>
        <mxCell id="dwteepIQS85eqwH7VikQ-25" value="&amp;nbsp;users" style="text;html=1;strokeColor=none;fillColor=none;align=center;verticalAlign=middle;whiteSpace=wrap;rounded=0;" parent="dwteepIQS85eqwH7VikQ-38" vertex="1">
          <mxGeometry width="60" height="30" as="geometry" />
        </mxCell>
        <mxCell id="dwteepIQS85eqwH7VikQ-29" value="" style="group" parent="dwteepIQS85eqwH7VikQ-38" vertex="1" connectable="0">
          <mxGeometry x="70" y="30" width="60" height="30" as="geometry" />
        </mxCell>
        <mxCell id="dwteepIQS85eqwH7VikQ-27" value="" style="rounded=1;whiteSpace=wrap;html=1;" parent="dwteepIQS85eqwH7VikQ-29" vertex="1">
          <mxGeometry x="10" y="5" width="50" height="20" as="geometry" />
        </mxCell>
        <mxCell id="dwteepIQS85eqwH7VikQ-26" value="&amp;nbsp;user" style="text;html=1;strokeColor=none;fillColor=none;align=center;verticalAlign=middle;whiteSpace=wrap;rounded=0;" parent="dwteepIQS85eqwH7VikQ-29" vertex="1">
          <mxGeometry width="60" height="30" as="geometry" />
        </mxCell>
        <mxCell id="dwteepIQS85eqwH7VikQ-30" value="" style="group" parent="dwteepIQS85eqwH7VikQ-38" vertex="1" connectable="0">
          <mxGeometry x="60" y="20" width="60" height="30" as="geometry" />
        </mxCell>
        <mxCell id="dwteepIQS85eqwH7VikQ-31" value="" style="rounded=1;whiteSpace=wrap;html=1;" parent="dwteepIQS85eqwH7VikQ-30" vertex="1">
          <mxGeometry x="10" y="5" width="50" height="20" as="geometry" />
        </mxCell>
        <mxCell id="dwteepIQS85eqwH7VikQ-32" value="&amp;nbsp;user" style="text;html=1;strokeColor=none;fillColor=none;align=center;verticalAlign=middle;whiteSpace=wrap;rounded=0;" parent="dwteepIQS85eqwH7VikQ-30" vertex="1">
          <mxGeometry width="60" height="30" as="geometry" />
        </mxCell>
        <mxCell id="dwteepIQS85eqwH7VikQ-33" value="" style="group" parent="dwteepIQS85eqwH7VikQ-38" vertex="1" connectable="0">
          <mxGeometry x="50" y="10" width="60" height="30" as="geometry" />
        </mxCell>
        <mxCell id="dwteepIQS85eqwH7VikQ-34" value="" style="rounded=1;whiteSpace=wrap;html=1;" parent="dwteepIQS85eqwH7VikQ-33" vertex="1">
          <mxGeometry x="10" y="5" width="50" height="20" as="geometry" />
        </mxCell>
        <mxCell id="dwteepIQS85eqwH7VikQ-35" value="&amp;nbsp;user" style="text;html=1;strokeColor=none;fillColor=none;align=center;verticalAlign=middle;whiteSpace=wrap;rounded=0;" parent="dwteepIQS85eqwH7VikQ-33" vertex="1">
          <mxGeometry width="60" height="30" as="geometry" />
        </mxCell>
        <mxCell id="dwteepIQS85eqwH7VikQ-39" value="" style="group" parent="1" vertex="1" connectable="0">
          <mxGeometry x="620" y="160" width="140" height="60" as="geometry" />
        </mxCell>
        <mxCell id="dwteepIQS85eqwH7VikQ-40" value="" style="rounded=1;whiteSpace=wrap;html=1;" parent="dwteepIQS85eqwH7VikQ-39" vertex="1">
          <mxGeometry x="10" width="130" height="60" as="geometry" />
        </mxCell>
        <mxCell id="dwteepIQS85eqwH7VikQ-41" value="&amp;nbsp;users" style="text;html=1;strokeColor=none;fillColor=none;align=center;verticalAlign=middle;whiteSpace=wrap;rounded=0;" parent="dwteepIQS85eqwH7VikQ-39" vertex="1">
          <mxGeometry width="60" height="30" as="geometry" />
        </mxCell>
        <mxCell id="dwteepIQS85eqwH7VikQ-42" value="" style="group" parent="dwteepIQS85eqwH7VikQ-39" vertex="1" connectable="0">
          <mxGeometry x="70" y="30" width="60" height="30" as="geometry" />
        </mxCell>
        <mxCell id="dwteepIQS85eqwH7VikQ-43" value="" style="rounded=1;whiteSpace=wrap;html=1;" parent="dwteepIQS85eqwH7VikQ-42" vertex="1">
          <mxGeometry x="10" y="5" width="50" height="20" as="geometry" />
        </mxCell>
        <mxCell id="dwteepIQS85eqwH7VikQ-44" value="&amp;nbsp;user" style="text;html=1;strokeColor=none;fillColor=none;align=center;verticalAlign=middle;whiteSpace=wrap;rounded=0;" parent="dwteepIQS85eqwH7VikQ-42" vertex="1">
          <mxGeometry width="60" height="30" as="geometry" />
        </mxCell>
        <mxCell id="dwteepIQS85eqwH7VikQ-45" value="" style="group" parent="dwteepIQS85eqwH7VikQ-39" vertex="1" connectable="0">
          <mxGeometry x="60" y="20" width="60" height="30" as="geometry" />
        </mxCell>
        <mxCell id="dwteepIQS85eqwH7VikQ-46" value="" style="rounded=1;whiteSpace=wrap;html=1;" parent="dwteepIQS85eqwH7VikQ-45" vertex="1">
          <mxGeometry x="10" y="5" width="50" height="20" as="geometry" />
        </mxCell>
        <mxCell id="dwteepIQS85eqwH7VikQ-47" value="&amp;nbsp;user" style="text;html=1;strokeColor=none;fillColor=none;align=center;verticalAlign=middle;whiteSpace=wrap;rounded=0;" parent="dwteepIQS85eqwH7VikQ-45" vertex="1">
          <mxGeometry width="60" height="30" as="geometry" />
        </mxCell>
        <mxCell id="dwteepIQS85eqwH7VikQ-48" value="" style="group" parent="dwteepIQS85eqwH7VikQ-39" vertex="1" connectable="0">
          <mxGeometry x="50" y="10" width="60" height="30" as="geometry" />
        </mxCell>
        <mxCell id="dwteepIQS85eqwH7VikQ-49" value="" style="rounded=1;whiteSpace=wrap;html=1;" parent="dwteepIQS85eqwH7VikQ-48" vertex="1">
          <mxGeometry x="10" y="5" width="50" height="20" as="geometry" />
        </mxCell>
        <mxCell id="dwteepIQS85eqwH7VikQ-50" value="&amp;nbsp;user" style="text;html=1;strokeColor=none;fillColor=none;align=center;verticalAlign=middle;whiteSpace=wrap;rounded=0;" parent="dwteepIQS85eqwH7VikQ-48" vertex="1">
          <mxGeometry width="60" height="30" as="geometry" />
        </mxCell>
        <mxCell id="dwteepIQS85eqwH7VikQ-51" value="" style="endArrow=classic;html=1;rounded=0;entryX=0.75;entryY=0;entryDx=0;entryDy=0;exitX=0.75;exitY=1;exitDx=0;exitDy=0;" parent="1" source="dwteepIQS85eqwH7VikQ-9" target="dwteepIQS85eqwH7VikQ-10" edge="1">
          <mxGeometry width="50" height="50" relative="1" as="geometry">
            <mxPoint x="550" y="270" as="sourcePoint" />
            <mxPoint x="600" y="220" as="targetPoint" />
          </mxGeometry>
        </mxCell>
        <mxCell id="dwteepIQS85eqwH7VikQ-52" value="" style="group" parent="1" vertex="1" connectable="0">
          <mxGeometry x="540" y="390" width="140" height="60" as="geometry" />
        </mxCell>
        <mxCell id="dwteepIQS85eqwH7VikQ-53" value="" style="rounded=1;whiteSpace=wrap;html=1;" parent="dwteepIQS85eqwH7VikQ-52" vertex="1">
          <mxGeometry x="10" width="130" height="60" as="geometry" />
        </mxCell>
        <mxCell id="dwteepIQS85eqwH7VikQ-54" value="&amp;nbsp;users" style="text;html=1;strokeColor=none;fillColor=none;align=center;verticalAlign=middle;whiteSpace=wrap;rounded=0;" parent="dwteepIQS85eqwH7VikQ-52" vertex="1">
          <mxGeometry width="60" height="30" as="geometry" />
        </mxCell>
        <mxCell id="dwteepIQS85eqwH7VikQ-55" value="" style="group" parent="dwteepIQS85eqwH7VikQ-52" vertex="1" connectable="0">
          <mxGeometry x="70" y="30" width="60" height="30" as="geometry" />
        </mxCell>
        <mxCell id="dwteepIQS85eqwH7VikQ-56" value="" style="rounded=1;whiteSpace=wrap;html=1;" parent="dwteepIQS85eqwH7VikQ-55" vertex="1">
          <mxGeometry x="10" y="5" width="50" height="20" as="geometry" />
        </mxCell>
        <mxCell id="dwteepIQS85eqwH7VikQ-57" value="&amp;nbsp;user" style="text;html=1;strokeColor=none;fillColor=none;align=center;verticalAlign=middle;whiteSpace=wrap;rounded=0;" parent="dwteepIQS85eqwH7VikQ-55" vertex="1">
          <mxGeometry width="60" height="30" as="geometry" />
        </mxCell>
        <mxCell id="dwteepIQS85eqwH7VikQ-58" value="" style="group" parent="dwteepIQS85eqwH7VikQ-52" vertex="1" connectable="0">
          <mxGeometry x="60" y="20" width="60" height="30" as="geometry" />
        </mxCell>
        <mxCell id="dwteepIQS85eqwH7VikQ-59" value="" style="rounded=1;whiteSpace=wrap;html=1;" parent="dwteepIQS85eqwH7VikQ-58" vertex="1">
          <mxGeometry x="10" y="5" width="50" height="20" as="geometry" />
        </mxCell>
        <mxCell id="dwteepIQS85eqwH7VikQ-60" value="&amp;nbsp;user" style="text;html=1;strokeColor=none;fillColor=none;align=center;verticalAlign=middle;whiteSpace=wrap;rounded=0;" parent="dwteepIQS85eqwH7VikQ-58" vertex="1">
          <mxGeometry width="60" height="30" as="geometry" />
        </mxCell>
        <mxCell id="dwteepIQS85eqwH7VikQ-61" value="" style="group" parent="dwteepIQS85eqwH7VikQ-52" vertex="1" connectable="0">
          <mxGeometry x="50" y="10" width="60" height="30" as="geometry" />
        </mxCell>
        <mxCell id="dwteepIQS85eqwH7VikQ-62" value="" style="rounded=1;whiteSpace=wrap;html=1;" parent="dwteepIQS85eqwH7VikQ-61" vertex="1">
          <mxGeometry x="10" y="5" width="50" height="20" as="geometry" />
        </mxCell>
        <mxCell id="dwteepIQS85eqwH7VikQ-63" value="&amp;nbsp;user" style="text;html=1;strokeColor=none;fillColor=none;align=center;verticalAlign=middle;whiteSpace=wrap;rounded=0;" parent="dwteepIQS85eqwH7VikQ-61" vertex="1">
          <mxGeometry width="60" height="30" as="geometry" />
        </mxCell>
        <mxCell id="dwteepIQS85eqwH7VikQ-64" value="" style="endArrow=classic;html=1;rounded=0;entryX=0.25;entryY=1;entryDx=0;entryDy=0;exitX=0.25;exitY=0;exitDx=0;exitDy=0;" parent="1" source="dwteepIQS85eqwH7VikQ-10" target="dwteepIQS85eqwH7VikQ-9" edge="1">
          <mxGeometry width="50" height="50" relative="1" as="geometry">
            <mxPoint x="380" y="340" as="sourcePoint" />
            <mxPoint x="430" y="290" as="targetPoint" />
          </mxGeometry>
        </mxCell>
        <mxCell id="dwteepIQS85eqwH7VikQ-90" value="" style="group" parent="1" vertex="1" connectable="0">
          <mxGeometry x="205" y="320" width="220" height="130" as="geometry" />
        </mxCell>
        <mxCell id="dwteepIQS85eqwH7VikQ-65" value="" style="rounded=1;whiteSpace=wrap;html=1;" parent="dwteepIQS85eqwH7VikQ-90" vertex="1">
          <mxGeometry width="220" height="130" as="geometry" />
        </mxCell>
        <mxCell id="dwteepIQS85eqwH7VikQ-66" value="UserListResponse" style="text;html=1;strokeColor=none;fillColor=none;align=center;verticalAlign=middle;whiteSpace=wrap;rounded=0;" parent="dwteepIQS85eqwH7VikQ-90" vertex="1">
          <mxGeometry x="30" y="10" width="60" height="20" as="geometry" />
        </mxCell>
        <mxCell id="dwteepIQS85eqwH7VikQ-67" value="" style="group" parent="dwteepIQS85eqwH7VikQ-90" vertex="1" connectable="0">
          <mxGeometry x="30" y="40" width="180" height="60" as="geometry" />
        </mxCell>
        <mxCell id="dwteepIQS85eqwH7VikQ-68" value="" style="rounded=1;whiteSpace=wrap;html=1;" parent="dwteepIQS85eqwH7VikQ-67" vertex="1">
          <mxGeometry x="12.857142857142858" width="167.1428571428571" height="60" as="geometry" />
        </mxCell>
        <mxCell id="dwteepIQS85eqwH7VikQ-69" value="&amp;nbsp;users" style="text;html=1;strokeColor=none;fillColor=none;align=center;verticalAlign=middle;whiteSpace=wrap;rounded=0;" parent="dwteepIQS85eqwH7VikQ-67" vertex="1">
          <mxGeometry width="77.14285714285714" height="30" as="geometry" />
        </mxCell>
        <mxCell id="dwteepIQS85eqwH7VikQ-77" value="" style="rounded=1;whiteSpace=wrap;html=1;" parent="dwteepIQS85eqwH7VikQ-67" vertex="1">
          <mxGeometry x="80" y="30" width="90" height="20" as="geometry" />
        </mxCell>
        <mxCell id="dwteepIQS85eqwH7VikQ-87" value="" style="rounded=1;whiteSpace=wrap;html=1;" parent="dwteepIQS85eqwH7VikQ-67" vertex="1">
          <mxGeometry x="70" y="20" width="90" height="20" as="geometry" />
        </mxCell>
        <mxCell id="dwteepIQS85eqwH7VikQ-86" value="" style="rounded=1;whiteSpace=wrap;html=1;" parent="dwteepIQS85eqwH7VikQ-67" vertex="1">
          <mxGeometry x="60" y="10" width="90" height="20" as="geometry" />
        </mxCell>
        <mxCell id="dwteepIQS85eqwH7VikQ-78" value="&amp;nbsp;userResponse" style="text;html=1;strokeColor=none;fillColor=none;align=center;verticalAlign=middle;whiteSpace=wrap;rounded=0;" parent="dwteepIQS85eqwH7VikQ-67" vertex="1">
          <mxGeometry x="57.13999999999998" y="5" width="95.71" height="30" as="geometry" />
        </mxCell>
        <mxCell id="dwteepIQS85eqwH7VikQ-91" value="" style="group" parent="1" vertex="1" connectable="0">
          <mxGeometry x="110" y="150" width="220" height="130" as="geometry" />
        </mxCell>
        <mxCell id="dwteepIQS85eqwH7VikQ-92" value="" style="rounded=1;whiteSpace=wrap;html=1;" parent="dwteepIQS85eqwH7VikQ-91" vertex="1">
          <mxGeometry width="220" height="130" as="geometry" />
        </mxCell>
        <mxCell id="dwteepIQS85eqwH7VikQ-93" value="UserListResponse" style="text;html=1;strokeColor=none;fillColor=none;align=center;verticalAlign=middle;whiteSpace=wrap;rounded=0;" parent="dwteepIQS85eqwH7VikQ-91" vertex="1">
          <mxGeometry x="30" y="10" width="60" height="20" as="geometry" />
        </mxCell>
        <mxCell id="dwteepIQS85eqwH7VikQ-94" value="" style="group" parent="dwteepIQS85eqwH7VikQ-91" vertex="1" connectable="0">
          <mxGeometry x="30" y="40" width="180" height="60" as="geometry" />
        </mxCell>
        <mxCell id="dwteepIQS85eqwH7VikQ-95" value="" style="rounded=1;whiteSpace=wrap;html=1;" parent="dwteepIQS85eqwH7VikQ-94" vertex="1">
          <mxGeometry x="12.857142857142858" width="167.1428571428571" height="60" as="geometry" />
        </mxCell>
        <mxCell id="dwteepIQS85eqwH7VikQ-96" value="&amp;nbsp;users" style="text;html=1;strokeColor=none;fillColor=none;align=center;verticalAlign=middle;whiteSpace=wrap;rounded=0;" parent="dwteepIQS85eqwH7VikQ-94" vertex="1">
          <mxGeometry width="77.14285714285714" height="30" as="geometry" />
        </mxCell>
        <mxCell id="dwteepIQS85eqwH7VikQ-97" value="" style="rounded=1;whiteSpace=wrap;html=1;" parent="dwteepIQS85eqwH7VikQ-94" vertex="1">
          <mxGeometry x="80" y="30" width="90" height="20" as="geometry" />
        </mxCell>
        <mxCell id="dwteepIQS85eqwH7VikQ-98" value="" style="rounded=1;whiteSpace=wrap;html=1;" parent="dwteepIQS85eqwH7VikQ-94" vertex="1">
          <mxGeometry x="70" y="20" width="90" height="20" as="geometry" />
        </mxCell>
        <mxCell id="dwteepIQS85eqwH7VikQ-99" value="" style="rounded=1;whiteSpace=wrap;html=1;" parent="dwteepIQS85eqwH7VikQ-94" vertex="1">
          <mxGeometry x="60" y="10" width="90" height="20" as="geometry" />
        </mxCell>
        <mxCell id="dwteepIQS85eqwH7VikQ-100" value="&amp;nbsp;userResponse" style="text;html=1;strokeColor=none;fillColor=none;align=center;verticalAlign=middle;whiteSpace=wrap;rounded=0;" parent="dwteepIQS85eqwH7VikQ-94" vertex="1">
          <mxGeometry x="57.14999999999998" y="5" width="95.71" height="30" as="geometry" />
        </mxCell>
        <mxCell id="dwteepIQS85eqwH7VikQ-101" value="" style="endArrow=classic;html=1;rounded=0;" parent="1" edge="1">
          <mxGeometry width="50" height="50" relative="1" as="geometry">
            <mxPoint x="60" y="120" as="sourcePoint" />
            <mxPoint x="390" y="120" as="targetPoint" />
          </mxGeometry>
        </mxCell>
        <mxCell id="dwteepIQS85eqwH7VikQ-103" value="" style="endArrow=classic;html=1;rounded=0;" parent="1" edge="1">
          <mxGeometry width="50" height="50" relative="1" as="geometry">
            <mxPoint x="1000" y="120" as="sourcePoint" />
            <mxPoint x="1210" y="120" as="targetPoint" />
          </mxGeometry>
        </mxCell>
        <mxCell id="dwteepIQS85eqwH7VikQ-105" value="" style="endArrow=none;dashed=1;html=1;dashPattern=1 3;strokeWidth=2;rounded=0;entryX=0.25;entryY=1;entryDx=0;entryDy=0;" parent="1" target="dwteepIQS85eqwH7VikQ-9" edge="1">
          <mxGeometry width="50" height="50" relative="1" as="geometry">
            <mxPoint x="390" y="140" as="sourcePoint" />
            <mxPoint x="430" y="330" as="targetPoint" />
            <Array as="points">
              <mxPoint x="440" y="140" />
            </Array>
          </mxGeometry>
        </mxCell>
        <mxCell id="dwteepIQS85eqwH7VikQ-106" value="" style="endArrow=none;dashed=1;html=1;dashPattern=1 3;strokeWidth=2;rounded=0;entryX=0.75;entryY=1;entryDx=0;entryDy=0;" parent="1" target="dwteepIQS85eqwH7VikQ-9" edge="1">
          <mxGeometry width="50" height="50" relative="1" as="geometry">
            <mxPoint x="590" y="150" as="sourcePoint" />
            <mxPoint x="450" y="190" as="targetPoint" />
            <Array as="points">
              <mxPoint x="540" y="150" />
            </Array>
          </mxGeometry>
        </mxCell>
        <mxCell id="dwteepIQS85eqwH7VikQ-107" value="" style="endArrow=none;dashed=1;html=1;dashPattern=1 3;strokeWidth=2;rounded=0;" parent="1" edge="1">
          <mxGeometry width="50" height="50" relative="1" as="geometry">
            <mxPoint x="390" y="120" as="sourcePoint" />
            <mxPoint x="590" y="120" as="targetPoint" />
            <Array as="points" />
          </mxGeometry>
        </mxCell>
        <mxCell id="dwteepIQS85eqwH7VikQ-108" value="" style="endArrow=none;dashed=1;html=1;dashPattern=1 3;strokeWidth=2;rounded=0;" parent="1" edge="1">
          <mxGeometry width="50" height="50" relative="1" as="geometry">
            <mxPoint x="800" y="120" as="sourcePoint" />
            <mxPoint x="1000" y="120" as="targetPoint" />
            <Array as="points" />
          </mxGeometry>
        </mxCell>
        <mxCell id="dwteepIQS85eqwH7VikQ-114" value="" style="endArrow=classic;html=1;rounded=0;exitX=0.537;exitY=-0.114;exitDx=0;exitDy=0;exitPerimeter=0;" parent="1" source="dwteepIQS85eqwH7VikQ-113" edge="1">
          <mxGeometry width="50" height="50" relative="1" as="geometry">
            <mxPoint x="490" y="590" as="sourcePoint" />
            <mxPoint x="490" y="550" as="targetPoint" />
          </mxGeometry>
        </mxCell>
        <mxCell id="dwteepIQS85eqwH7VikQ-121" value="" style="ellipse;whiteSpace=wrap;html=1;aspect=fixed;" parent="1" vertex="1">
          <mxGeometry x="160" y="80" width="30" height="30" as="geometry" />
        </mxCell>
        <mxCell id="dwteepIQS85eqwH7VikQ-122" value="" style="ellipse;whiteSpace=wrap;html=1;aspect=fixed;" parent="1" vertex="1">
          <mxGeometry x="675" y="80" width="30" height="30" as="geometry" />
        </mxCell>
        <mxCell id="dwteepIQS85eqwH7VikQ-123" value="" style="ellipse;whiteSpace=wrap;html=1;aspect=fixed;" parent="1" vertex="1">
          <mxGeometry x="1070" y="80" width="30" height="30" as="geometry" />
        </mxCell>
        <mxCell id="dwteepIQS85eqwH7VikQ-124" value="findById" style="text;html=1;strokeColor=none;fillColor=none;align=center;verticalAlign=middle;whiteSpace=wrap;rounded=0;fontStyle=1;fontSize=14;" parent="1" vertex="1">
          <mxGeometry x="-250" y="765" width="60" height="30" as="geometry" />
        </mxCell>
        <mxCell id="dwteepIQS85eqwH7VikQ-125" value="UserResponse" style="swimlane;whiteSpace=wrap;html=1;" parent="1" vertex="1">
          <mxGeometry x="-120" y="730" width="180" height="120" as="geometry" />
        </mxCell>
        <mxCell id="dwteepIQS85eqwH7VikQ-126" value="firstName&#xa;secondName&#xa;countNewses&#xa;countComents" style="text;strokeColor=none;fillColor=none;align=left;verticalAlign=middle;rounded=0;fontColor=#660000;fontSize=14;fontStyle=0" parent="dwteepIQS85eqwH7VikQ-125" vertex="1">
          <mxGeometry x="10" y="40" width="100" height="70" as="geometry" />
        </mxCell>
        <mxCell id="dwteepIQS85eqwH7VikQ-127" value="UserController" style="swimlane;whiteSpace=wrap;html=1;" parent="1" vertex="1">
          <mxGeometry x="390" y="730" width="200" height="100" as="geometry" />
        </mxCell>
        <mxCell id="dwteepIQS85eqwH7VikQ-128" value="UserMapper" style="swimlane;strokeColor=default;" parent="1" vertex="1">
          <mxGeometry x="390" y="980" width="200" height="70" as="geometry" />
        </mxCell>
        <mxCell id="dwteepIQS85eqwH7VikQ-130" value="userToResponse" style="text;strokeColor=#660000;fillColor=none;align=left;verticalAlign=middle;rounded=1;fontStyle=1" parent="dwteepIQS85eqwH7VikQ-128" vertex="1">
          <mxGeometry x="50" y="30" width="100" height="30" as="geometry" />
        </mxCell>
        <mxCell id="dwteepIQS85eqwH7VikQ-133" value="UserService" style="swimlane;whiteSpace=wrap;html=1;" parent="1" vertex="1">
          <mxGeometry x="800" y="730" width="200" height="100" as="geometry" />
        </mxCell>
        <mxCell id="dwteepIQS85eqwH7VikQ-134" value="" style="endArrow=classic;html=1;rounded=0;" parent="dwteepIQS85eqwH7VikQ-133" edge="1">
          <mxGeometry width="50" height="50" relative="1" as="geometry">
            <mxPoint x="-210" y="40" as="sourcePoint" />
            <mxPoint y="40" as="targetPoint" />
          </mxGeometry>
        </mxCell>
        <mxCell id="dwteepIQS85eqwH7VikQ-135" value="" style="endArrow=none;dashed=1;html=1;dashPattern=1 3;strokeWidth=2;rounded=0;" parent="dwteepIQS85eqwH7VikQ-133" edge="1">
          <mxGeometry width="50" height="50" relative="1" as="geometry">
            <mxPoint y="69.17000000000002" as="sourcePoint" />
            <mxPoint x="200" y="69.17000000000002" as="targetPoint" />
            <Array as="points" />
          </mxGeometry>
        </mxCell>
        <mxCell id="dwteepIQS85eqwH7VikQ-136" value="" style="endArrow=classic;html=1;rounded=0;" parent="1" edge="1">
          <mxGeometry width="50" height="50" relative="1" as="geometry">
            <mxPoint x="390" y="790" as="sourcePoint" />
            <mxPoint x="60" y="790" as="targetPoint" />
          </mxGeometry>
        </mxCell>
        <mxCell id="dwteepIQS85eqwH7VikQ-137" value="" style="endArrow=classic;html=1;rounded=0;exitX=-0.011;exitY=0.698;exitDx=0;exitDy=0;exitPerimeter=0;" parent="1" source="dwteepIQS85eqwH7VikQ-138" edge="1">
          <mxGeometry width="50" height="50" relative="1" as="geometry">
            <mxPoint x="550" y="1020" as="sourcePoint" />
            <mxPoint x="1000" y="800" as="targetPoint" />
          </mxGeometry>
        </mxCell>
        <mxCell id="dwteepIQS85eqwH7VikQ-138" value="" style="shape=cylinder3;whiteSpace=wrap;html=1;boundedLbl=1;backgroundOutline=1;size=15;" parent="1" vertex="1">
          <mxGeometry x="1210" y="730" width="110" height="100" as="geometry" />
        </mxCell>
        <mxCell id="dwteepIQS85eqwH7VikQ-139" value="UserRepo" style="text;html=1;strokeColor=none;fillColor=none;align=center;verticalAlign=middle;whiteSpace=wrap;rounded=0;" parent="1" vertex="1">
          <mxGeometry x="1235" y="780" width="60" height="30" as="geometry" />
        </mxCell>
        <mxCell id="dwteepIQS85eqwH7VikQ-140" value="" style="endArrow=classic;html=1;rounded=0;exitX=-0.011;exitY=0.698;exitDx=0;exitDy=0;exitPerimeter=0;" parent="1" edge="1">
          <mxGeometry width="50" height="50" relative="1" as="geometry">
            <mxPoint x="800" y="800" as="sourcePoint" />
            <mxPoint x="591" y="800" as="targetPoint" />
          </mxGeometry>
        </mxCell>
        <mxCell id="dwteepIQS85eqwH7VikQ-165" value="" style="endArrow=classic;html=1;rounded=0;entryX=0.75;entryY=0;entryDx=0;entryDy=0;exitX=0.75;exitY=1;exitDx=0;exitDy=0;" parent="1" source="dwteepIQS85eqwH7VikQ-127" target="dwteepIQS85eqwH7VikQ-128" edge="1">
          <mxGeometry width="50" height="50" relative="1" as="geometry">
            <mxPoint x="550" y="920" as="sourcePoint" />
            <mxPoint x="600" y="870" as="targetPoint" />
          </mxGeometry>
        </mxCell>
        <mxCell id="dwteepIQS85eqwH7VikQ-178" value="" style="endArrow=classic;html=1;rounded=0;entryX=0.25;entryY=1;entryDx=0;entryDy=0;exitX=0.25;exitY=0;exitDx=0;exitDy=0;" parent="1" source="dwteepIQS85eqwH7VikQ-128" target="dwteepIQS85eqwH7VikQ-127" edge="1">
          <mxGeometry width="50" height="50" relative="1" as="geometry">
            <mxPoint x="380" y="990" as="sourcePoint" />
            <mxPoint x="430" y="940" as="targetPoint" />
          </mxGeometry>
        </mxCell>
        <mxCell id="dwteepIQS85eqwH7VikQ-199" value="" style="endArrow=classic;html=1;rounded=0;" parent="1" edge="1">
          <mxGeometry width="50" height="50" relative="1" as="geometry">
            <mxPoint x="60" y="770" as="sourcePoint" />
            <mxPoint x="390" y="770" as="targetPoint" />
          </mxGeometry>
        </mxCell>
        <mxCell id="dwteepIQS85eqwH7VikQ-200" value="" style="endArrow=classic;html=1;rounded=0;" parent="1" edge="1">
          <mxGeometry width="50" height="50" relative="1" as="geometry">
            <mxPoint x="1000" y="770" as="sourcePoint" />
            <mxPoint x="1210" y="770" as="targetPoint" />
          </mxGeometry>
        </mxCell>
        <mxCell id="dwteepIQS85eqwH7VikQ-201" value="" style="endArrow=none;dashed=1;html=1;dashPattern=1 3;strokeWidth=2;rounded=0;entryX=0.25;entryY=1;entryDx=0;entryDy=0;" parent="1" target="dwteepIQS85eqwH7VikQ-127" edge="1">
          <mxGeometry width="50" height="50" relative="1" as="geometry">
            <mxPoint x="390" y="790" as="sourcePoint" />
            <mxPoint x="430" y="980" as="targetPoint" />
            <Array as="points">
              <mxPoint x="440" y="790" />
            </Array>
          </mxGeometry>
        </mxCell>
        <mxCell id="dwteepIQS85eqwH7VikQ-202" value="" style="endArrow=none;dashed=1;html=1;dashPattern=1 3;strokeWidth=2;rounded=0;entryX=0.75;entryY=1;entryDx=0;entryDy=0;" parent="1" target="dwteepIQS85eqwH7VikQ-127" edge="1">
          <mxGeometry width="50" height="50" relative="1" as="geometry">
            <mxPoint x="590" y="800" as="sourcePoint" />
            <mxPoint x="450" y="840" as="targetPoint" />
            <Array as="points">
              <mxPoint x="540" y="800" />
            </Array>
          </mxGeometry>
        </mxCell>
        <mxCell id="dwteepIQS85eqwH7VikQ-203" value="" style="endArrow=none;dashed=1;html=1;dashPattern=1 3;strokeWidth=2;rounded=0;" parent="1" edge="1">
          <mxGeometry width="50" height="50" relative="1" as="geometry">
            <mxPoint x="390" y="770" as="sourcePoint" />
            <mxPoint x="590" y="770" as="targetPoint" />
            <Array as="points" />
          </mxGeometry>
        </mxCell>
        <mxCell id="dwteepIQS85eqwH7VikQ-204" value="" style="endArrow=none;dashed=1;html=1;dashPattern=1 3;strokeWidth=2;rounded=0;" parent="1" edge="1">
          <mxGeometry width="50" height="50" relative="1" as="geometry">
            <mxPoint x="800" y="770" as="sourcePoint" />
            <mxPoint x="1000" y="770" as="targetPoint" />
            <Array as="points" />
          </mxGeometry>
        </mxCell>
        <mxCell id="dwteepIQS85eqwH7VikQ-210" value="Long id" style="rounded=1;whiteSpace=wrap;html=1;" parent="1" vertex="1">
          <mxGeometry x="160" y="740" width="60" height="20" as="geometry" />
        </mxCell>
        <mxCell id="dwteepIQS85eqwH7VikQ-211" value="Long id" style="rounded=1;whiteSpace=wrap;html=1;" parent="1" vertex="1">
          <mxGeometry x="660" y="740" width="60" height="20" as="geometry" />
        </mxCell>
        <mxCell id="dwteepIQS85eqwH7VikQ-212" value="Long id" style="rounded=1;whiteSpace=wrap;html=1;" parent="1" vertex="1">
          <mxGeometry x="1080" y="740" width="60" height="20" as="geometry" />
        </mxCell>
        <mxCell id="dwteepIQS85eqwH7VikQ-215" value="" style="group" parent="1" vertex="1" connectable="0">
          <mxGeometry x="160" y="800" width="100" height="40" as="geometry" />
        </mxCell>
        <mxCell id="dwteepIQS85eqwH7VikQ-190" value="" style="rounded=1;whiteSpace=wrap;html=1;" parent="dwteepIQS85eqwH7VikQ-215" vertex="1">
          <mxGeometry width="100" height="40" as="geometry" />
        </mxCell>
        <mxCell id="dwteepIQS85eqwH7VikQ-191" value="UserResponse" style="text;html=1;strokeColor=none;fillColor=none;align=center;verticalAlign=middle;whiteSpace=wrap;rounded=0;" parent="dwteepIQS85eqwH7VikQ-215" vertex="1">
          <mxGeometry x="10" y="16.91999999999996" width="80" height="6.15" as="geometry" />
        </mxCell>
        <mxCell id="dwteepIQS85eqwH7VikQ-216" value="" style="group" parent="1" vertex="1" connectable="0">
          <mxGeometry x="325" y="920" width="100" height="40" as="geometry" />
        </mxCell>
        <mxCell id="dwteepIQS85eqwH7VikQ-217" value="" style="rounded=1;whiteSpace=wrap;html=1;" parent="dwteepIQS85eqwH7VikQ-216" vertex="1">
          <mxGeometry width="100" height="40" as="geometry" />
        </mxCell>
        <mxCell id="dwteepIQS85eqwH7VikQ-218" value="UserResponse" style="text;html=1;strokeColor=none;fillColor=none;align=center;verticalAlign=middle;whiteSpace=wrap;rounded=0;" parent="dwteepIQS85eqwH7VikQ-216" vertex="1">
          <mxGeometry x="10" y="16.91999999999996" width="80" height="6.15" as="geometry" />
        </mxCell>
        <mxCell id="dwteepIQS85eqwH7VikQ-232" value="User" style="swimlane;whiteSpace=wrap;html=1;fillColor=#dae8fc;strokeColor=#6c8ebf;" parent="1" vertex="1">
          <mxGeometry x="1050" y="810" width="120" height="130" as="geometry" />
        </mxCell>
        <mxCell id="dwteepIQS85eqwH7VikQ-233" value="id;&#xa;firstName;&#xa;secondName;&#xa;createAt;&#xa;newses&#xa;comments" style="text;strokeColor=#6c8ebf;fillColor=#dae8fc;align=left;verticalAlign=middle;rounded=1;" parent="dwteepIQS85eqwH7VikQ-232" vertex="1">
          <mxGeometry x="10" y="30" width="85" height="96.92" as="geometry" />
        </mxCell>
        <mxCell id="dwteepIQS85eqwH7VikQ-234" value="create" style="text;html=1;strokeColor=none;fillColor=none;align=center;verticalAlign=middle;whiteSpace=wrap;rounded=0;fontStyle=1;fontSize=14;" parent="1" vertex="1">
          <mxGeometry x="-230" y="1280" width="60" height="30" as="geometry" />
        </mxCell>
        <mxCell id="dwteepIQS85eqwH7VikQ-235" value="UserResponse" style="swimlane;whiteSpace=wrap;html=1;" parent="1" vertex="1">
          <mxGeometry x="-130" y="1320" width="180" height="120" as="geometry" />
        </mxCell>
        <mxCell id="dwteepIQS85eqwH7VikQ-236" value="firstName&#xa;secondName&#xa;countNewses&#xa;countComents" style="text;strokeColor=none;fillColor=none;align=left;verticalAlign=middle;rounded=0;fontColor=#660000;fontSize=14;fontStyle=0" parent="dwteepIQS85eqwH7VikQ-235" vertex="1">
          <mxGeometry x="10" y="40" width="100" height="70" as="geometry" />
        </mxCell>
        <mxCell id="dwteepIQS85eqwH7VikQ-237" value="UserController" style="swimlane;whiteSpace=wrap;html=1;" parent="1" vertex="1">
          <mxGeometry x="390" y="1250" width="200" height="100" as="geometry" />
        </mxCell>
        <mxCell id="dwteepIQS85eqwH7VikQ-238" value="UserMapper" style="swimlane;strokeColor=default;" parent="1" vertex="1">
          <mxGeometry x="280" y="1610" width="420" height="110" as="geometry" />
        </mxCell>
        <mxCell id="dwteepIQS85eqwH7VikQ-239" value="userToResponse" style="text;strokeColor=#660000;fillColor=none;align=center;verticalAlign=top;rounded=1;fontStyle=1" parent="dwteepIQS85eqwH7VikQ-238" vertex="1">
          <mxGeometry x="280" y="50" width="120" height="30" as="geometry" />
        </mxCell>
        <mxCell id="dwteepIQS85eqwH7VikQ-296" value="requestToUser" style="text;strokeColor=default;fillColor=none;align=center;verticalAlign=top;rounded=1;fontStyle=1;horizontal=1;fontColor=#000000;" parent="dwteepIQS85eqwH7VikQ-238" vertex="1">
          <mxGeometry x="10" y="50" width="200" height="30" as="geometry" />
        </mxCell>
        <mxCell id="dwteepIQS85eqwH7VikQ-240" value="UserService" style="swimlane;whiteSpace=wrap;html=1;" parent="1" vertex="1">
          <mxGeometry x="800" y="1250" width="200" height="100" as="geometry" />
        </mxCell>
        <mxCell id="dwteepIQS85eqwH7VikQ-241" value="" style="endArrow=classic;html=1;rounded=0;strokeColor=#009900;" parent="dwteepIQS85eqwH7VikQ-240" edge="1">
          <mxGeometry width="50" height="50" relative="1" as="geometry">
            <mxPoint x="-210" y="40" as="sourcePoint" />
            <mxPoint y="40" as="targetPoint" />
          </mxGeometry>
        </mxCell>
        <mxCell id="dwteepIQS85eqwH7VikQ-242" value="" style="endArrow=none;dashed=1;html=1;dashPattern=1 3;strokeWidth=2;rounded=0;strokeColor=#FF8000;" parent="dwteepIQS85eqwH7VikQ-240" edge="1">
          <mxGeometry width="50" height="50" relative="1" as="geometry">
            <mxPoint y="69.17000000000002" as="sourcePoint" />
            <mxPoint x="200" y="69.17000000000002" as="targetPoint" />
            <Array as="points" />
          </mxGeometry>
        </mxCell>
        <mxCell id="dwteepIQS85eqwH7VikQ-243" value="" style="endArrow=classic;html=1;rounded=0;entryX=1;entryY=0.5;entryDx=0;entryDy=0;strokeColor=#FF8000;" parent="1" target="dwteepIQS85eqwH7VikQ-235" edge="1">
          <mxGeometry width="50" height="50" relative="1" as="geometry">
            <mxPoint x="390" y="1310" as="sourcePoint" />
            <mxPoint x="60" y="1310" as="targetPoint" />
            <Array as="points">
              <mxPoint x="120" y="1310" />
              <mxPoint x="120" y="1380" />
            </Array>
          </mxGeometry>
        </mxCell>
        <mxCell id="dwteepIQS85eqwH7VikQ-244" value="" style="endArrow=classic;html=1;rounded=0;exitX=-0.011;exitY=0.698;exitDx=0;exitDy=0;exitPerimeter=0;strokeColor=#FF8000;" parent="1" source="dwteepIQS85eqwH7VikQ-245" edge="1">
          <mxGeometry width="50" height="50" relative="1" as="geometry">
            <mxPoint x="550" y="1540" as="sourcePoint" />
            <mxPoint x="1000" y="1320" as="targetPoint" />
          </mxGeometry>
        </mxCell>
        <mxCell id="dwteepIQS85eqwH7VikQ-245" value="" style="shape=cylinder3;whiteSpace=wrap;html=1;boundedLbl=1;backgroundOutline=1;size=15;" parent="1" vertex="1">
          <mxGeometry x="1210" y="1250" width="110" height="100" as="geometry" />
        </mxCell>
        <mxCell id="dwteepIQS85eqwH7VikQ-246" value="UserRepo" style="text;html=1;strokeColor=none;fillColor=none;align=center;verticalAlign=middle;whiteSpace=wrap;rounded=0;" parent="1" vertex="1">
          <mxGeometry x="1235" y="1300" width="60" height="30" as="geometry" />
        </mxCell>
        <mxCell id="dwteepIQS85eqwH7VikQ-247" value="" style="endArrow=classic;html=1;rounded=0;exitX=-0.011;exitY=0.698;exitDx=0;exitDy=0;exitPerimeter=0;strokeColor=#FF8000;" parent="1" edge="1">
          <mxGeometry width="50" height="50" relative="1" as="geometry">
            <mxPoint x="800" y="1320" as="sourcePoint" />
            <mxPoint x="591" y="1320" as="targetPoint" />
          </mxGeometry>
        </mxCell>
        <mxCell id="dwteepIQS85eqwH7VikQ-248" value="" style="endArrow=classic;html=1;rounded=0;entryX=0.477;entryY=-0.023;entryDx=0;entryDy=0;exitX=0.75;exitY=1;exitDx=0;exitDy=0;entryPerimeter=0;strokeColor=#FF8000;" parent="1" source="dwteepIQS85eqwH7VikQ-237" target="dwteepIQS85eqwH7VikQ-239" edge="1">
          <mxGeometry width="50" height="50" relative="1" as="geometry">
            <mxPoint x="550" y="1440" as="sourcePoint" />
            <mxPoint x="600" y="1390" as="targetPoint" />
            <Array as="points">
              <mxPoint x="540" y="1590" />
              <mxPoint x="617" y="1590" />
            </Array>
          </mxGeometry>
        </mxCell>
        <mxCell id="dwteepIQS85eqwH7VikQ-249" value="" style="endArrow=classic;html=1;rounded=0;exitX=0.313;exitY=-0.047;exitDx=0;exitDy=0;strokeColor=#FF8000;exitPerimeter=0;" parent="1" source="dwteepIQS85eqwH7VikQ-239" edge="1">
          <mxGeometry width="50" height="50" relative="1" as="geometry">
            <mxPoint x="380" y="1510" as="sourcePoint" />
            <mxPoint x="530" y="1350" as="targetPoint" />
            <Array as="points">
              <mxPoint x="598" y="1600" />
              <mxPoint x="530" y="1600" />
            </Array>
          </mxGeometry>
        </mxCell>
        <mxCell id="dwteepIQS85eqwH7VikQ-250" value="" style="endArrow=classic;html=1;rounded=0;strokeColor=#006666;" parent="1" edge="1">
          <mxGeometry width="50" height="50" relative="1" as="geometry">
            <mxPoint x="50" y="1240" as="sourcePoint" />
            <mxPoint x="390" y="1290" as="targetPoint" />
            <Array as="points">
              <mxPoint x="120" y="1240" />
              <mxPoint x="120" y="1290" />
              <mxPoint x="210" y="1290" />
            </Array>
          </mxGeometry>
        </mxCell>
        <mxCell id="dwteepIQS85eqwH7VikQ-251" value="" style="endArrow=classic;html=1;rounded=0;strokeColor=#009900;" parent="1" edge="1">
          <mxGeometry width="50" height="50" relative="1" as="geometry">
            <mxPoint x="1000" y="1290" as="sourcePoint" />
            <mxPoint x="1210" y="1290" as="targetPoint" />
          </mxGeometry>
        </mxCell>
        <mxCell id="dwteepIQS85eqwH7VikQ-252" value="" style="endArrow=none;dashed=1;html=1;dashPattern=1 3;strokeWidth=2;rounded=0;strokeColor=#FF8000;" parent="1" edge="1">
          <mxGeometry width="50" height="50" relative="1" as="geometry">
            <mxPoint x="390" y="1310" as="sourcePoint" />
            <mxPoint x="530" y="1350" as="targetPoint" />
            <Array as="points">
              <mxPoint x="530" y="1310" />
            </Array>
          </mxGeometry>
        </mxCell>
        <mxCell id="dwteepIQS85eqwH7VikQ-253" value="" style="endArrow=none;dashed=1;html=1;dashPattern=1 3;strokeWidth=2;rounded=0;entryX=0.75;entryY=1;entryDx=0;entryDy=0;strokeColor=#FF8000;" parent="1" target="dwteepIQS85eqwH7VikQ-237" edge="1">
          <mxGeometry width="50" height="50" relative="1" as="geometry">
            <mxPoint x="590" y="1320" as="sourcePoint" />
            <mxPoint x="450" y="1360" as="targetPoint" />
            <Array as="points">
              <mxPoint x="540" y="1320" />
            </Array>
          </mxGeometry>
        </mxCell>
        <mxCell id="dwteepIQS85eqwH7VikQ-254" value="" style="endArrow=none;dashed=1;html=1;strokeWidth=2;rounded=0;strokeColor=#006666;" parent="1" edge="1">
          <mxGeometry width="50" height="50" relative="1" as="geometry">
            <mxPoint x="390" y="1290" as="sourcePoint" />
            <mxPoint x="420" y="1350" as="targetPoint" />
            <Array as="points">
              <mxPoint x="420" y="1290" />
            </Array>
          </mxGeometry>
        </mxCell>
        <mxCell id="dwteepIQS85eqwH7VikQ-255" value="" style="endArrow=none;dashed=1;html=1;dashPattern=1 3;strokeWidth=2;rounded=0;strokeColor=#009900;" parent="1" edge="1">
          <mxGeometry width="50" height="50" relative="1" as="geometry">
            <mxPoint x="800" y="1290" as="sourcePoint" />
            <mxPoint x="1000" y="1290" as="targetPoint" />
            <Array as="points" />
          </mxGeometry>
        </mxCell>
        <mxCell id="dwteepIQS85eqwH7VikQ-259" value="" style="group" parent="1" vertex="1" connectable="0">
          <mxGeometry x="190" y="1320" width="100" height="40" as="geometry" />
        </mxCell>
        <mxCell id="dwteepIQS85eqwH7VikQ-260" value="" style="rounded=1;whiteSpace=wrap;html=1;" parent="dwteepIQS85eqwH7VikQ-259" vertex="1">
          <mxGeometry width="100" height="40" as="geometry" />
        </mxCell>
        <mxCell id="dwteepIQS85eqwH7VikQ-261" value="UserResponse" style="text;html=1;strokeColor=none;fillColor=none;align=center;verticalAlign=middle;whiteSpace=wrap;rounded=0;" parent="dwteepIQS85eqwH7VikQ-259" vertex="1">
          <mxGeometry x="10" y="16.91999999999996" width="80" height="6.15" as="geometry" />
        </mxCell>
        <mxCell id="dwteepIQS85eqwH7VikQ-271" value="User" style="swimlane;whiteSpace=wrap;html=1;strokeColor=#FF8000;" parent="1" vertex="1">
          <mxGeometry x="1050" y="1330" width="120" height="130" as="geometry" />
        </mxCell>
        <mxCell id="dwteepIQS85eqwH7VikQ-272" value="id;&#xa;firstName;&#xa;secondName;&#xa;createAt;&#xa;newses&#xa;comments" style="text;strokeColor=none;fillColor=none;align=left;verticalAlign=middle;rounded=0;" parent="dwteepIQS85eqwH7VikQ-271" vertex="1">
          <mxGeometry x="10" y="36.92" width="85" height="90" as="geometry" />
        </mxCell>
        <mxCell id="dwteepIQS85eqwH7VikQ-281" value="UpsertUserRequest" style="swimlane;whiteSpace=wrap;html=1;" parent="1" vertex="1">
          <mxGeometry x="-130" y="1180" width="180" height="90" as="geometry" />
        </mxCell>
        <mxCell id="dwteepIQS85eqwH7VikQ-282" value="firstName&#xa;secondName" style="text;strokeColor=none;fillColor=none;align=left;verticalAlign=middle;rounded=0;fontColor=#660000;fontSize=14;fontStyle=0" parent="dwteepIQS85eqwH7VikQ-281" vertex="1">
          <mxGeometry x="10" y="30" width="100" height="50" as="geometry" />
        </mxCell>
        <mxCell id="dwteepIQS85eqwH7VikQ-286" value="" style="endArrow=classic;html=1;rounded=0;strokeColor=#009900;" parent="1" edge="1">
          <mxGeometry width="50" height="50" relative="1" as="geometry">
            <mxPoint x="440" y="1660" as="sourcePoint" />
            <mxPoint x="440" y="1350" as="targetPoint" />
          </mxGeometry>
        </mxCell>
        <mxCell id="dwteepIQS85eqwH7VikQ-287" value="" style="endArrow=classic;html=1;rounded=0;strokeColor=#006666;" parent="1" edge="1">
          <mxGeometry width="50" height="50" relative="1" as="geometry">
            <mxPoint x="420" y="1350" as="sourcePoint" />
            <mxPoint x="365" y="1660" as="targetPoint" />
            <Array as="points">
              <mxPoint x="420" y="1600" />
              <mxPoint x="365" y="1600" />
            </Array>
          </mxGeometry>
        </mxCell>
        <mxCell id="dwteepIQS85eqwH7VikQ-264" value="UserResponse" style="text;html=1;strokeColor=#FF8000;fillColor=none;align=center;verticalAlign=middle;whiteSpace=wrap;rounded=1;rotation=-90;" parent="1" vertex="1">
          <mxGeometry x="450" y="1516.92" width="103.47" height="33.08" as="geometry" />
        </mxCell>
        <mxCell id="dwteepIQS85eqwH7VikQ-290" value="" style="endArrow=none;dashed=1;html=1;strokeWidth=2;rounded=0;entryX=0.25;entryY=1;entryDx=0;entryDy=0;strokeColor=#009900;" parent="1" target="dwteepIQS85eqwH7VikQ-237" edge="1">
          <mxGeometry width="50" height="50" relative="1" as="geometry">
            <mxPoint x="590" y="1290" as="sourcePoint" />
            <mxPoint x="430" y="1360" as="targetPoint" />
            <Array as="points">
              <mxPoint x="440" y="1290" />
            </Array>
          </mxGeometry>
        </mxCell>
        <mxCell id="dwteepIQS85eqwH7VikQ-308" value="User" style="text;html=1;strokeColor=#009900;fillColor=none;align=center;verticalAlign=middle;whiteSpace=wrap;rounded=1;" parent="1" vertex="1">
          <mxGeometry x="670" y="1250" width="60" height="30" as="geometry" />
        </mxCell>
        <mxCell id="dwteepIQS85eqwH7VikQ-309" value="User" style="text;html=1;strokeColor=#009900;fillColor=none;align=center;verticalAlign=middle;whiteSpace=wrap;rounded=1;rotation=-90;" parent="1" vertex="1">
          <mxGeometry x="430" y="1540" width="60" height="30" as="geometry" />
        </mxCell>
        <mxCell id="dwteepIQS85eqwH7VikQ-310" value="User" style="text;html=1;strokeColor=#009900;fillColor=none;align=center;verticalAlign=middle;whiteSpace=wrap;rounded=1;" parent="1" vertex="1">
          <mxGeometry x="1090" y="1250" width="60" height="30" as="geometry" />
        </mxCell>
        <mxCell id="dwteepIQS85eqwH7VikQ-311" value="User" style="text;html=1;strokeColor=#FF8000;fillColor=none;align=center;verticalAlign=middle;whiteSpace=wrap;rounded=1;" parent="1" vertex="1">
          <mxGeometry x="670" y="1330" width="60" height="30" as="geometry" />
        </mxCell>
        <mxCell id="dwteepIQS85eqwH7VikQ-312" value="User" style="text;html=1;strokeColor=#FF8000;fillColor=none;align=center;verticalAlign=middle;whiteSpace=wrap;rounded=1;rotation=-90;" parent="1" vertex="1">
          <mxGeometry x="530" y="1540" width="60" height="30" as="geometry" />
        </mxCell>
        <mxCell id="dwteepIQS85eqwH7VikQ-313" value="&lt;span style=&quot;color: rgb(0, 0, 0); font-family: Helvetica; font-size: 12px; font-style: normal; font-variant-ligatures: normal; font-variant-caps: normal; font-weight: 400; letter-spacing: normal; orphans: 2; text-align: center; text-indent: 0px; text-transform: none; widows: 2; word-spacing: 0px; -webkit-text-stroke-width: 0px; background-color: rgb(251, 251, 251); text-decoration-thickness: initial; text-decoration-style: initial; text-decoration-color: initial; float: none; display: inline !important;&quot;&gt;UpsertUserRequest&lt;/span&gt;" style="text;html=1;strokeColor=#006666;fillColor=none;align=center;verticalAlign=middle;whiteSpace=wrap;rounded=1;" parent="1" vertex="1">
          <mxGeometry x="180" y="1240" width="120" height="40" as="geometry" />
        </mxCell>
        <mxCell id="dwteepIQS85eqwH7VikQ-314" value="&lt;span style=&quot;color: rgb(0, 0, 0); font-family: Helvetica; font-size: 12px; font-style: normal; font-variant-ligatures: normal; font-variant-caps: normal; font-weight: 400; letter-spacing: normal; orphans: 2; text-align: center; text-indent: 0px; text-transform: none; widows: 2; word-spacing: 0px; -webkit-text-stroke-width: 0px; background-color: rgb(251, 251, 251); text-decoration-thickness: initial; text-decoration-style: initial; text-decoration-color: initial; float: none; display: inline !important;&quot;&gt;UpsertUserRequest&lt;/span&gt;" style="text;html=1;strokeColor=#006666;fillColor=none;align=center;verticalAlign=middle;whiteSpace=wrap;rounded=1;rotation=-90;" parent="1" vertex="1">
          <mxGeometry x="330" y="1510" width="120" height="40" as="geometry" />
        </mxCell>
        <mxCell id="dwteepIQS85eqwH7VikQ-318" value="UserMapperDelegate" style="swimlane;whiteSpace=wrap;html=1;" parent="1" vertex="1">
          <mxGeometry x="1470" y="360" width="310" height="210" as="geometry" />
        </mxCell>
        <mxCell id="dwteepIQS85eqwH7VikQ-320" value="userToResponse" style="text;strokeColor=default;fillColor=none;align=center;verticalAlign=top;rounded=1;fontStyle=1" parent="dwteepIQS85eqwH7VikQ-318" vertex="1">
          <mxGeometry x="30" y="30" width="250" height="150" as="geometry" />
        </mxCell>
        <mxCell id="dwteepIQS85eqwH7VikQ-315" value="firstName&#xa;secondName&#xa;&#xa;countNewses&#xa;countComents" style="text;strokeColor=#FF8000;fillColor=none;align=left;verticalAlign=middle;rounded=1;fontColor=#660000;fontSize=12;fontStyle=0" parent="dwteepIQS85eqwH7VikQ-318" vertex="1">
          <mxGeometry x="45" y="70" width="90" height="100" as="geometry" />
        </mxCell>
        <mxCell id="dwteepIQS85eqwH7VikQ-316" value="id&#xa;firstName&#xa;secondName&#xa;createAt&#xa;newses&#xa;comments" style="text;strokeColor=none;fillColor=none;align=left;verticalAlign=middle;rounded=1;" parent="dwteepIQS85eqwH7VikQ-318" vertex="1">
          <mxGeometry x="185" y="70" width="80" height="90" as="geometry" />
        </mxCell>
        <mxCell id="dwteepIQS85eqwH7VikQ-324" value="" style="endArrow=classic;html=1;rounded=0;" parent="dwteepIQS85eqwH7VikQ-318" edge="1">
          <mxGeometry width="50" height="50" relative="1" as="geometry">
            <mxPoint x="175" y="147.24" as="sourcePoint" />
            <mxPoint x="125" y="147.24" as="targetPoint" />
          </mxGeometry>
        </mxCell>
        <mxCell id="dwteepIQS85eqwH7VikQ-323" value="" style="endArrow=classic;html=1;rounded=0;" parent="dwteepIQS85eqwH7VikQ-318" edge="1">
          <mxGeometry width="50" height="50" relative="1" as="geometry">
            <mxPoint x="175" y="137.24" as="sourcePoint" />
            <mxPoint x="125" y="137.24" as="targetPoint" />
          </mxGeometry>
        </mxCell>
        <mxCell id="dwteepIQS85eqwH7VikQ-322" value="" style="endArrow=classic;html=1;rounded=0;" parent="dwteepIQS85eqwH7VikQ-318" edge="1">
          <mxGeometry width="50" height="50" relative="1" as="geometry">
            <mxPoint x="175" y="107.24000000000001" as="sourcePoint" />
            <mxPoint x="125" y="107.24000000000001" as="targetPoint" />
          </mxGeometry>
        </mxCell>
        <mxCell id="dwteepIQS85eqwH7VikQ-321" value="" style="endArrow=classic;html=1;rounded=0;exitX=0.6;exitY=0.457;exitDx=0;exitDy=0;exitPerimeter=0;" parent="dwteepIQS85eqwH7VikQ-318" edge="1">
          <mxGeometry width="50" height="50" relative="1" as="geometry">
            <mxPoint x="175" y="92.35000000000014" as="sourcePoint" />
            <mxPoint x="125" y="92.24000000000001" as="targetPoint" />
          </mxGeometry>
        </mxCell>
        <mxCell id="dwteepIQS85eqwH7VikQ-335" value="" style="curved=1;endArrow=classic;html=1;rounded=0;exitX=1;exitY=0.25;exitDx=0;exitDy=0;strokeColor=#660000;endFill=0;startArrow=classic;startFill=1;" parent="1" source="dwteepIQS85eqwH7VikQ-113" edge="1">
          <mxGeometry width="50" height="50" relative="1" as="geometry">
            <mxPoint x="1020" y="770" as="sourcePoint" />
            <mxPoint x="1520" y="570" as="targetPoint" />
            <Array as="points">
              <mxPoint x="890" y="645" />
              <mxPoint x="1480" y="630" />
            </Array>
          </mxGeometry>
        </mxCell>
        <mxCell id="dwteepIQS85eqwH7VikQ-337" value="" style="curved=1;endArrow=classic;html=1;rounded=0;exitX=1;exitY=0.5;exitDx=0;exitDy=0;strokeColor=#660000;startArrow=classic;startFill=1;" parent="1" source="dwteepIQS85eqwH7VikQ-130" edge="1">
          <mxGeometry width="50" height="50" relative="1" as="geometry">
            <mxPoint x="553.47" y="1025" as="sourcePoint" />
            <mxPoint x="1560" y="570" as="targetPoint" />
            <Array as="points">
              <mxPoint x="720" y="1025" />
              <mxPoint x="1220" y="1020" />
              <mxPoint x="1310" y="1000" />
              <mxPoint x="1430" y="880" />
            </Array>
          </mxGeometry>
        </mxCell>
        <mxCell id="dwteepIQS85eqwH7VikQ-342" value="" style="curved=1;endArrow=classic;html=1;rounded=0;exitX=1;exitY=0.5;exitDx=0;exitDy=0;strokeColor=#660000;endFill=0;startArrow=classic;startFill=1;" parent="1" source="dwteepIQS85eqwH7VikQ-239" edge="1">
          <mxGeometry width="50" height="50" relative="1" as="geometry">
            <mxPoint x="680" y="1688" as="sourcePoint" />
            <mxPoint x="1600" y="570" as="targetPoint" />
            <Array as="points">
              <mxPoint x="1270" y="1640" />
              <mxPoint x="1480" y="1240" />
            </Array>
          </mxGeometry>
        </mxCell>
        <mxCell id="dwteepIQS85eqwH7VikQ-343" value="update" style="text;html=1;strokeColor=none;fillColor=none;align=center;verticalAlign=middle;whiteSpace=wrap;rounded=0;fontStyle=1;fontSize=14;" parent="1" vertex="1">
          <mxGeometry x="-225" y="1930" width="60" height="30" as="geometry" />
        </mxCell>
        <mxCell id="dwteepIQS85eqwH7VikQ-344" value="UserResponse" style="swimlane;whiteSpace=wrap;html=1;" parent="1" vertex="1">
          <mxGeometry x="-125" y="1970" width="180" height="120" as="geometry" />
        </mxCell>
        <mxCell id="dwteepIQS85eqwH7VikQ-345" value="firstName&#xa;secondName&#xa;countNewses&#xa;countComents" style="text;strokeColor=none;fillColor=none;align=left;verticalAlign=middle;rounded=0;fontColor=#660000;fontSize=14;fontStyle=0" parent="dwteepIQS85eqwH7VikQ-344" vertex="1">
          <mxGeometry x="10" y="40" width="100" height="70" as="geometry" />
        </mxCell>
        <mxCell id="dwteepIQS85eqwH7VikQ-346" value="UserController" style="swimlane;whiteSpace=wrap;html=1;" parent="1" vertex="1">
          <mxGeometry x="395" y="1900" width="200" height="100" as="geometry" />
        </mxCell>
        <mxCell id="dwteepIQS85eqwH7VikQ-347" value="UserMapper" style="swimlane;strokeColor=default;" parent="1" vertex="1">
          <mxGeometry x="285" y="2260" width="420" height="110" as="geometry" />
        </mxCell>
        <mxCell id="dwteepIQS85eqwH7VikQ-348" value="userToResponse" style="text;strokeColor=#660000;fillColor=none;align=center;verticalAlign=top;rounded=1;fontStyle=1" parent="dwteepIQS85eqwH7VikQ-347" vertex="1">
          <mxGeometry x="280" y="50" width="120" height="30" as="geometry" />
        </mxCell>
        <mxCell id="dwteepIQS85eqwH7VikQ-349" value="requestToUser" style="text;strokeColor=default;fillColor=none;align=center;verticalAlign=top;rounded=1;fontStyle=1;horizontal=1;fontColor=#000000;" parent="dwteepIQS85eqwH7VikQ-347" vertex="1">
          <mxGeometry x="10" y="50" width="200" height="30" as="geometry" />
        </mxCell>
        <mxCell id="dwteepIQS85eqwH7VikQ-350" value="UserService" style="swimlane;whiteSpace=wrap;html=1;" parent="1" vertex="1">
          <mxGeometry x="805" y="1900" width="200" height="130" as="geometry" />
        </mxCell>
        <mxCell id="dwteepIQS85eqwH7VikQ-351" value="" style="endArrow=classic;html=1;rounded=0;strokeColor=#009900;" parent="dwteepIQS85eqwH7VikQ-350" edge="1">
          <mxGeometry width="50" height="50" relative="1" as="geometry">
            <mxPoint x="-210" y="40" as="sourcePoint" />
            <mxPoint y="40" as="targetPoint" />
          </mxGeometry>
        </mxCell>
        <mxCell id="dwteepIQS85eqwH7VikQ-352" value="" style="endArrow=none;dashed=1;html=1;dashPattern=1 3;strokeWidth=2;rounded=0;strokeColor=#FF8000;" parent="dwteepIQS85eqwH7VikQ-350" edge="1">
          <mxGeometry width="50" height="50" relative="1" as="geometry">
            <mxPoint y="69.17000000000002" as="sourcePoint" />
            <mxPoint x="200" y="69.17000000000002" as="targetPoint" />
            <Array as="points" />
          </mxGeometry>
        </mxCell>
        <mxCell id="dwteepIQS85eqwH7VikQ-353" value="" style="endArrow=classic;html=1;rounded=0;entryX=1;entryY=0.5;entryDx=0;entryDy=0;strokeColor=#FF8000;" parent="1" target="dwteepIQS85eqwH7VikQ-344" edge="1">
          <mxGeometry width="50" height="50" relative="1" as="geometry">
            <mxPoint x="395" y="1960" as="sourcePoint" />
            <mxPoint x="65" y="1960" as="targetPoint" />
            <Array as="points">
              <mxPoint x="125" y="1960" />
              <mxPoint x="125" y="2030" />
            </Array>
          </mxGeometry>
        </mxCell>
        <mxCell id="dwteepIQS85eqwH7VikQ-354" value="" style="endArrow=classic;html=1;rounded=0;exitX=-0.011;exitY=0.698;exitDx=0;exitDy=0;exitPerimeter=0;strokeColor=#FF8000;" parent="1" source="dwteepIQS85eqwH7VikQ-355" edge="1">
          <mxGeometry width="50" height="50" relative="1" as="geometry">
            <mxPoint x="555" y="2190" as="sourcePoint" />
            <mxPoint x="1005" y="1970" as="targetPoint" />
          </mxGeometry>
        </mxCell>
        <mxCell id="dwteepIQS85eqwH7VikQ-355" value="" style="shape=cylinder3;whiteSpace=wrap;html=1;boundedLbl=1;backgroundOutline=1;size=15;" parent="1" vertex="1">
          <mxGeometry x="1215" y="1900" width="110" height="100" as="geometry" />
        </mxCell>
        <mxCell id="dwteepIQS85eqwH7VikQ-356" value="UserRepo" style="text;html=1;strokeColor=none;fillColor=none;align=center;verticalAlign=middle;whiteSpace=wrap;rounded=0;" parent="1" vertex="1">
          <mxGeometry x="1240" y="1950" width="60" height="30" as="geometry" />
        </mxCell>
        <mxCell id="dwteepIQS85eqwH7VikQ-357" value="" style="endArrow=classic;html=1;rounded=0;exitX=-0.011;exitY=0.698;exitDx=0;exitDy=0;exitPerimeter=0;strokeColor=#FF8000;" parent="1" edge="1">
          <mxGeometry width="50" height="50" relative="1" as="geometry">
            <mxPoint x="805" y="1970" as="sourcePoint" />
            <mxPoint x="596" y="1970" as="targetPoint" />
          </mxGeometry>
        </mxCell>
        <mxCell id="dwteepIQS85eqwH7VikQ-358" value="" style="endArrow=classic;html=1;rounded=0;entryX=0.477;entryY=-0.023;entryDx=0;entryDy=0;exitX=0.75;exitY=1;exitDx=0;exitDy=0;entryPerimeter=0;strokeColor=#FF8000;" parent="1" source="dwteepIQS85eqwH7VikQ-346" target="dwteepIQS85eqwH7VikQ-348" edge="1">
          <mxGeometry width="50" height="50" relative="1" as="geometry">
            <mxPoint x="555" y="2090" as="sourcePoint" />
            <mxPoint x="605" y="2040" as="targetPoint" />
            <Array as="points">
              <mxPoint x="545" y="2240" />
              <mxPoint x="622" y="2240" />
            </Array>
          </mxGeometry>
        </mxCell>
        <mxCell id="dwteepIQS85eqwH7VikQ-359" value="" style="endArrow=classic;html=1;rounded=0;exitX=0.313;exitY=-0.047;exitDx=0;exitDy=0;strokeColor=#FF8000;exitPerimeter=0;" parent="1" source="dwteepIQS85eqwH7VikQ-348" edge="1">
          <mxGeometry width="50" height="50" relative="1" as="geometry">
            <mxPoint x="385" y="2160" as="sourcePoint" />
            <mxPoint x="535" y="2000" as="targetPoint" />
            <Array as="points">
              <mxPoint x="603" y="2250" />
              <mxPoint x="535" y="2250" />
            </Array>
          </mxGeometry>
        </mxCell>
        <mxCell id="dwteepIQS85eqwH7VikQ-360" value="" style="endArrow=classic;html=1;rounded=0;strokeColor=#006666;" parent="1" edge="1">
          <mxGeometry width="50" height="50" relative="1" as="geometry">
            <mxPoint x="55" y="1890" as="sourcePoint" />
            <mxPoint x="395" y="1940" as="targetPoint" />
            <Array as="points">
              <mxPoint x="125" y="1890" />
              <mxPoint x="125" y="1940" />
              <mxPoint x="215" y="1940" />
            </Array>
          </mxGeometry>
        </mxCell>
        <mxCell id="dwteepIQS85eqwH7VikQ-361" value="" style="endArrow=classic;html=1;rounded=0;strokeColor=#009900;" parent="1" edge="1">
          <mxGeometry width="50" height="50" relative="1" as="geometry">
            <mxPoint x="1005" y="1940" as="sourcePoint" />
            <mxPoint x="1215" y="1940" as="targetPoint" />
          </mxGeometry>
        </mxCell>
        <mxCell id="dwteepIQS85eqwH7VikQ-362" value="" style="endArrow=none;dashed=1;html=1;dashPattern=1 3;strokeWidth=2;rounded=0;strokeColor=#FF8000;" parent="1" edge="1">
          <mxGeometry width="50" height="50" relative="1" as="geometry">
            <mxPoint x="395" y="1960" as="sourcePoint" />
            <mxPoint x="535" y="2000" as="targetPoint" />
            <Array as="points">
              <mxPoint x="535" y="1960" />
            </Array>
          </mxGeometry>
        </mxCell>
        <mxCell id="dwteepIQS85eqwH7VikQ-363" value="" style="endArrow=none;dashed=1;html=1;dashPattern=1 3;strokeWidth=2;rounded=0;entryX=0.75;entryY=1;entryDx=0;entryDy=0;strokeColor=#FF8000;" parent="1" target="dwteepIQS85eqwH7VikQ-346" edge="1">
          <mxGeometry width="50" height="50" relative="1" as="geometry">
            <mxPoint x="595" y="1970" as="sourcePoint" />
            <mxPoint x="455" y="2010" as="targetPoint" />
            <Array as="points">
              <mxPoint x="545" y="1970" />
            </Array>
          </mxGeometry>
        </mxCell>
        <mxCell id="dwteepIQS85eqwH7VikQ-364" value="" style="endArrow=none;dashed=1;html=1;strokeWidth=2;rounded=0;strokeColor=#006666;" parent="1" edge="1">
          <mxGeometry width="50" height="50" relative="1" as="geometry">
            <mxPoint x="395" y="1940" as="sourcePoint" />
            <mxPoint x="425" y="2000" as="targetPoint" />
            <Array as="points">
              <mxPoint x="425" y="1940" />
            </Array>
          </mxGeometry>
        </mxCell>
        <mxCell id="dwteepIQS85eqwH7VikQ-365" value="" style="endArrow=none;dashed=1;html=1;dashPattern=1 3;strokeWidth=2;rounded=0;strokeColor=#009900;" parent="1" edge="1">
          <mxGeometry width="50" height="50" relative="1" as="geometry">
            <mxPoint x="805" y="1940" as="sourcePoint" />
            <mxPoint x="1005" y="1940" as="targetPoint" />
            <Array as="points" />
          </mxGeometry>
        </mxCell>
        <mxCell id="dwteepIQS85eqwH7VikQ-366" value="" style="group" parent="1" vertex="1" connectable="0">
          <mxGeometry x="195" y="1970" width="100" height="40" as="geometry" />
        </mxCell>
        <mxCell id="dwteepIQS85eqwH7VikQ-367" value="" style="rounded=1;whiteSpace=wrap;html=1;" parent="dwteepIQS85eqwH7VikQ-366" vertex="1">
          <mxGeometry width="100" height="40" as="geometry" />
        </mxCell>
        <mxCell id="dwteepIQS85eqwH7VikQ-368" value="UserResponse" style="text;html=1;strokeColor=none;fillColor=none;align=center;verticalAlign=middle;whiteSpace=wrap;rounded=0;" parent="dwteepIQS85eqwH7VikQ-366" vertex="1">
          <mxGeometry x="10" y="16.91999999999996" width="80" height="6.15" as="geometry" />
        </mxCell>
        <mxCell id="dwteepIQS85eqwH7VikQ-369" value="User" style="swimlane;whiteSpace=wrap;html=1;strokeColor=#FF8000;" parent="1" vertex="1">
          <mxGeometry x="1055" y="1980" width="120" height="130" as="geometry" />
        </mxCell>
        <mxCell id="dwteepIQS85eqwH7VikQ-370" value="id;&#xa;firstName;&#xa;secondName;&#xa;createAt;&#xa;newses&#xa;comments" style="text;strokeColor=none;fillColor=none;align=left;verticalAlign=middle;rounded=0;" parent="dwteepIQS85eqwH7VikQ-369" vertex="1">
          <mxGeometry x="10" y="36.92" width="85" height="90" as="geometry" />
        </mxCell>
        <mxCell id="dwteepIQS85eqwH7VikQ-371" value="UpsertUserRequest" style="swimlane;whiteSpace=wrap;html=1;" parent="1" vertex="1">
          <mxGeometry x="-125" y="1830" width="180" height="90" as="geometry" />
        </mxCell>
        <mxCell id="dwteepIQS85eqwH7VikQ-372" value="firstName&#xa;secondName" style="text;strokeColor=none;fillColor=none;align=left;verticalAlign=middle;rounded=0;fontColor=#660000;fontSize=14;fontStyle=0" parent="dwteepIQS85eqwH7VikQ-371" vertex="1">
          <mxGeometry x="10" y="30" width="100" height="50" as="geometry" />
        </mxCell>
        <mxCell id="dwteepIQS85eqwH7VikQ-373" value="" style="endArrow=classic;html=1;rounded=0;strokeColor=#009900;" parent="1" edge="1">
          <mxGeometry width="50" height="50" relative="1" as="geometry">
            <mxPoint x="445" y="2310" as="sourcePoint" />
            <mxPoint x="445" y="2000" as="targetPoint" />
          </mxGeometry>
        </mxCell>
        <mxCell id="dwteepIQS85eqwH7VikQ-374" value="" style="endArrow=classic;html=1;rounded=0;strokeColor=#006666;" parent="1" edge="1">
          <mxGeometry width="50" height="50" relative="1" as="geometry">
            <mxPoint x="425" y="2000" as="sourcePoint" />
            <mxPoint x="370" y="2310" as="targetPoint" />
            <Array as="points">
              <mxPoint x="425" y="2250" />
              <mxPoint x="370" y="2250" />
            </Array>
          </mxGeometry>
        </mxCell>
        <mxCell id="dwteepIQS85eqwH7VikQ-375" value="UserResponse" style="text;html=1;strokeColor=#FF8000;fillColor=none;align=center;verticalAlign=middle;whiteSpace=wrap;rounded=1;rotation=-90;" parent="1" vertex="1">
          <mxGeometry x="455" y="2166.92" width="103.47" height="33.08" as="geometry" />
        </mxCell>
        <mxCell id="dwteepIQS85eqwH7VikQ-376" value="" style="endArrow=none;dashed=1;html=1;strokeWidth=2;rounded=0;entryX=0.25;entryY=1;entryDx=0;entryDy=0;strokeColor=#009900;" parent="1" target="dwteepIQS85eqwH7VikQ-346" edge="1">
          <mxGeometry width="50" height="50" relative="1" as="geometry">
            <mxPoint x="595" y="1940" as="sourcePoint" />
            <mxPoint x="435" y="2010" as="targetPoint" />
            <Array as="points">
              <mxPoint x="445" y="1940" />
            </Array>
          </mxGeometry>
        </mxCell>
        <mxCell id="dwteepIQS85eqwH7VikQ-377" value="User" style="text;html=1;strokeColor=#009900;fillColor=none;align=center;verticalAlign=middle;whiteSpace=wrap;rounded=1;" parent="1" vertex="1">
          <mxGeometry x="675" y="1900" width="60" height="30" as="geometry" />
        </mxCell>
        <mxCell id="dwteepIQS85eqwH7VikQ-378" value="User" style="text;html=1;strokeColor=#009900;fillColor=none;align=center;verticalAlign=middle;whiteSpace=wrap;rounded=1;rotation=-90;" parent="1" vertex="1">
          <mxGeometry x="435" y="2190" width="60" height="30" as="geometry" />
        </mxCell>
        <mxCell id="dwteepIQS85eqwH7VikQ-379" value="User" style="text;html=1;strokeColor=#009900;fillColor=none;align=center;verticalAlign=middle;whiteSpace=wrap;rounded=1;" parent="1" vertex="1">
          <mxGeometry x="1095" y="1900" width="60" height="30" as="geometry" />
        </mxCell>
        <mxCell id="dwteepIQS85eqwH7VikQ-380" value="User" style="text;html=1;strokeColor=#FF8000;fillColor=none;align=center;verticalAlign=middle;whiteSpace=wrap;rounded=1;" parent="1" vertex="1">
          <mxGeometry x="675" y="1980" width="60" height="30" as="geometry" />
        </mxCell>
        <mxCell id="dwteepIQS85eqwH7VikQ-381" value="User" style="text;html=1;strokeColor=#FF8000;fillColor=none;align=center;verticalAlign=middle;whiteSpace=wrap;rounded=1;rotation=-90;" parent="1" vertex="1">
          <mxGeometry x="535" y="2190" width="60" height="30" as="geometry" />
        </mxCell>
        <mxCell id="dwteepIQS85eqwH7VikQ-382" value="&lt;span style=&quot;color: rgb(0, 0, 0); font-family: Helvetica; font-size: 12px; font-style: normal; font-variant-ligatures: normal; font-variant-caps: normal; font-weight: 400; letter-spacing: normal; orphans: 2; text-align: center; text-indent: 0px; text-transform: none; widows: 2; word-spacing: 0px; -webkit-text-stroke-width: 0px; background-color: rgb(251, 251, 251); text-decoration-thickness: initial; text-decoration-style: initial; text-decoration-color: initial; float: none; display: inline !important;&quot;&gt;UpsertUserRequest&lt;/span&gt;" style="text;html=1;strokeColor=#006666;fillColor=none;align=center;verticalAlign=middle;whiteSpace=wrap;rounded=1;" parent="1" vertex="1">
          <mxGeometry x="240" y="1895" width="120" height="40" as="geometry" />
        </mxCell>
        <mxCell id="dwteepIQS85eqwH7VikQ-383" value="&lt;span style=&quot;color: rgb(0, 0, 0); font-family: Helvetica; font-size: 12px; font-style: normal; font-variant-ligatures: normal; font-variant-caps: normal; font-weight: 400; letter-spacing: normal; orphans: 2; text-align: center; text-indent: 0px; text-transform: none; widows: 2; word-spacing: 0px; -webkit-text-stroke-width: 0px; background-color: rgb(251, 251, 251); text-decoration-thickness: initial; text-decoration-style: initial; text-decoration-color: initial; float: none; display: inline !important;&quot;&gt;UpsertUserRequest&lt;/span&gt;" style="text;html=1;strokeColor=#006666;fillColor=none;align=center;verticalAlign=middle;whiteSpace=wrap;rounded=1;rotation=-90;" parent="1" vertex="1">
          <mxGeometry x="335" y="2160" width="120" height="40" as="geometry" />
        </mxCell>
        <mxCell id="dwteepIQS85eqwH7VikQ-384" value="Long id" style="rounded=1;whiteSpace=wrap;html=1;" parent="1" vertex="1">
          <mxGeometry x="170" y="1910" width="60" height="20" as="geometry" />
        </mxCell>
        <mxCell id="dwteepIQS85eqwH7VikQ-385" value="Long id" style="rounded=1;whiteSpace=wrap;html=1;rotation=-90;" parent="1" vertex="1">
          <mxGeometry x="375" y="2070" width="60" height="20" as="geometry" />
        </mxCell>
        <mxCell id="dwteepIQS85eqwH7VikQ-390" value="" style="curved=1;endArrow=classic;html=1;rounded=0;exitX=1;exitY=0.5;exitDx=0;exitDy=0;strokeColor=#660000;endFill=0;startArrow=classic;startFill=1;" parent="1" source="dwteepIQS85eqwH7VikQ-348" edge="1">
          <mxGeometry width="50" height="50" relative="1" as="geometry">
            <mxPoint x="690" y="1698" as="sourcePoint" />
            <mxPoint x="1640" y="570" as="targetPoint" />
            <Array as="points">
              <mxPoint x="1380" y="2300" />
              <mxPoint x="1520" y="1790" />
              <mxPoint x="1590" y="1290" />
            </Array>
          </mxGeometry>
        </mxCell>
        <mxCell id="dwteepIQS85eqwH7VikQ-391" value="deleteById" style="text;html=1;strokeColor=none;fillColor=none;align=center;verticalAlign=middle;whiteSpace=wrap;rounded=0;fontStyle=1;fontSize=14;" parent="1" vertex="1">
          <mxGeometry x="-45" y="2515" width="60" height="30" as="geometry" />
        </mxCell>
        <mxCell id="dwteepIQS85eqwH7VikQ-394" value="UserController" style="swimlane;whiteSpace=wrap;html=1;" parent="1" vertex="1">
          <mxGeometry x="395" y="2480" width="200" height="100" as="geometry" />
        </mxCell>
        <mxCell id="dwteepIQS85eqwH7VikQ-397" value="UserService" style="swimlane;whiteSpace=wrap;html=1;" parent="1" vertex="1">
          <mxGeometry x="805" y="2480" width="200" height="100" as="geometry" />
        </mxCell>
        <mxCell id="dwteepIQS85eqwH7VikQ-398" value="" style="endArrow=classic;html=1;rounded=0;" parent="dwteepIQS85eqwH7VikQ-397" edge="1">
          <mxGeometry width="50" height="50" relative="1" as="geometry">
            <mxPoint x="-210" y="40" as="sourcePoint" />
            <mxPoint y="40" as="targetPoint" />
          </mxGeometry>
        </mxCell>
        <mxCell id="dwteepIQS85eqwH7VikQ-399" value="" style="endArrow=none;dashed=1;html=1;dashPattern=1 3;strokeWidth=2;rounded=0;" parent="dwteepIQS85eqwH7VikQ-397" edge="1">
          <mxGeometry width="50" height="50" relative="1" as="geometry">
            <mxPoint y="69.17000000000002" as="sourcePoint" />
            <mxPoint x="200" y="69.17000000000002" as="targetPoint" />
            <Array as="points" />
          </mxGeometry>
        </mxCell>
        <mxCell id="dwteepIQS85eqwH7VikQ-400" value="" style="endArrow=classic;html=1;rounded=0;" parent="1" edge="1">
          <mxGeometry width="50" height="50" relative="1" as="geometry">
            <mxPoint x="395" y="2540" as="sourcePoint" />
            <mxPoint x="65" y="2540" as="targetPoint" />
          </mxGeometry>
        </mxCell>
        <mxCell id="dwteepIQS85eqwH7VikQ-402" value="" style="shape=cylinder3;whiteSpace=wrap;html=1;boundedLbl=1;backgroundOutline=1;size=15;" parent="1" vertex="1">
          <mxGeometry x="1215" y="2480" width="110" height="100" as="geometry" />
        </mxCell>
        <mxCell id="dwteepIQS85eqwH7VikQ-403" value="UserRepo" style="text;html=1;strokeColor=none;fillColor=none;align=center;verticalAlign=middle;whiteSpace=wrap;rounded=0;" parent="1" vertex="1">
          <mxGeometry x="1240" y="2530" width="60" height="30" as="geometry" />
        </mxCell>
        <mxCell id="dwteepIQS85eqwH7VikQ-407" value="" style="endArrow=classic;html=1;rounded=0;" parent="1" edge="1">
          <mxGeometry width="50" height="50" relative="1" as="geometry">
            <mxPoint x="65" y="2520" as="sourcePoint" />
            <mxPoint x="395" y="2520" as="targetPoint" />
          </mxGeometry>
        </mxCell>
        <mxCell id="dwteepIQS85eqwH7VikQ-408" value="" style="endArrow=classic;html=1;rounded=0;" parent="1" edge="1">
          <mxGeometry width="50" height="50" relative="1" as="geometry">
            <mxPoint x="1005" y="2520" as="sourcePoint" />
            <mxPoint x="1215" y="2520" as="targetPoint" />
          </mxGeometry>
        </mxCell>
        <mxCell id="dwteepIQS85eqwH7VikQ-411" value="" style="endArrow=none;dashed=1;html=1;dashPattern=1 3;strokeWidth=2;rounded=0;" parent="1" edge="1">
          <mxGeometry width="50" height="50" relative="1" as="geometry">
            <mxPoint x="395" y="2520" as="sourcePoint" />
            <mxPoint x="595" y="2520" as="targetPoint" />
            <Array as="points" />
          </mxGeometry>
        </mxCell>
        <mxCell id="dwteepIQS85eqwH7VikQ-412" value="" style="endArrow=none;dashed=1;html=1;dashPattern=1 3;strokeWidth=2;rounded=0;" parent="1" edge="1">
          <mxGeometry width="50" height="50" relative="1" as="geometry">
            <mxPoint x="805" y="2520" as="sourcePoint" />
            <mxPoint x="1005" y="2520" as="targetPoint" />
            <Array as="points" />
          </mxGeometry>
        </mxCell>
        <mxCell id="dwteepIQS85eqwH7VikQ-413" value="Long id" style="rounded=1;whiteSpace=wrap;html=1;" parent="1" vertex="1">
          <mxGeometry x="165" y="2490" width="60" height="20" as="geometry" />
        </mxCell>
        <mxCell id="dwteepIQS85eqwH7VikQ-414" value="Long id" style="rounded=1;whiteSpace=wrap;html=1;" parent="1" vertex="1">
          <mxGeometry x="665" y="2490" width="60" height="20" as="geometry" />
        </mxCell>
        <mxCell id="dwteepIQS85eqwH7VikQ-415" value="Long id" style="rounded=1;whiteSpace=wrap;html=1;" parent="1" vertex="1">
          <mxGeometry x="1085" y="2490" width="60" height="20" as="geometry" />
        </mxCell>
        <mxCell id="dwteepIQS85eqwH7VikQ-416" value="" style="group" parent="1" vertex="1" connectable="0">
          <mxGeometry x="165" y="2550" width="100" height="40" as="geometry" />
        </mxCell>
        <mxCell id="dwteepIQS85eqwH7VikQ-417" value="" style="rounded=1;whiteSpace=wrap;html=1;" parent="dwteepIQS85eqwH7VikQ-416" vertex="1">
          <mxGeometry width="100" height="40" as="geometry" />
        </mxCell>
        <mxCell id="dwteepIQS85eqwH7VikQ-418" value="noContent" style="text;html=1;strokeColor=none;fillColor=none;align=center;verticalAlign=middle;whiteSpace=wrap;rounded=0;" parent="dwteepIQS85eqwH7VikQ-416" vertex="1">
          <mxGeometry x="10" y="16.91999999999996" width="80" height="6.15" as="geometry" />
        </mxCell>
        <mxCell id="sfBApIVU6kbWJoy4w3UA-3" value="&lt;b&gt;News&lt;br&gt;&lt;/b&gt;" style="text;html=1;strokeColor=none;fillColor=none;align=center;verticalAlign=middle;whiteSpace=wrap;rounded=0;fontColor=#000000;fontSize=50;" vertex="1" parent="1">
          <mxGeometry x="3510" y="-90" width="120" height="40" as="geometry" />
        </mxCell>
        <mxCell id="sfBApIVU6kbWJoy4w3UA-4" value="findAll" style="text;html=1;strokeColor=none;fillColor=none;align=center;verticalAlign=middle;whiteSpace=wrap;rounded=0;fontStyle=1;fontSize=14;" vertex="1" parent="1">
          <mxGeometry x="2540" y="110" width="60" height="30" as="geometry" />
        </mxCell>
        <mxCell id="sfBApIVU6kbWJoy4w3UA-5" value="NewsListResponse" style="swimlane;whiteSpace=wrap;html=1;" vertex="1" parent="1">
          <mxGeometry x="2660" y="130" width="220" height="100" as="geometry" />
        </mxCell>
        <mxCell id="sfBApIVU6kbWJoy4w3UA-6" value="List&lt;NewsResponse&gt; newses" style="text;strokeColor=none;fillColor=none;align=center;verticalAlign=middle;rounded=0;fontColor=#660000;fontSize=14;fontStyle=0" vertex="1" parent="sfBApIVU6kbWJoy4w3UA-5">
          <mxGeometry x="85" y="40" width="60" height="30" as="geometry" />
        </mxCell>
        <mxCell id="sfBApIVU6kbWJoy4w3UA-7" value="NewsController" style="swimlane;whiteSpace=wrap;html=1;" vertex="1" parent="1">
          <mxGeometry x="3210" y="80" width="200" height="100" as="geometry" />
        </mxCell>
        <mxCell id="sfBApIVU6kbWJoy4w3UA-8" value="NewsMapper" style="swimlane;strokeColor=default;" vertex="1" parent="1">
          <mxGeometry x="3160" y="480" width="270" height="200" as="geometry" />
        </mxCell>
        <mxCell id="sfBApIVU6kbWJoy4w3UA-9" value="newsListToNewsListResponse" style="text;strokeColor=#660000;fillColor=none;align=center;verticalAlign=middle;rounded=1;fontStyle=1" vertex="1" parent="sfBApIVU6kbWJoy4w3UA-8">
          <mxGeometry x="50" y="35" width="190" height="30" as="geometry" />
        </mxCell>
        <mxCell id="sfBApIVU6kbWJoy4w3UA-10" value="newsToResponse" style="text;align=center;verticalAlign=middle;rounded=1;fontStyle=1;fillStyle=dots;strokeColor=#660000;" vertex="1" parent="sfBApIVU6kbWJoy4w3UA-8">
          <mxGeometry x="80" y="150" width="130" height="30" as="geometry" />
        </mxCell>
        <mxCell id="sfBApIVU6kbWJoy4w3UA-11" value="&amp;nbsp;userResponse" style="text;html=1;strokeColor=#d6b656;fillColor=#fff2cc;align=center;verticalAlign=middle;whiteSpace=wrap;rounded=1;" vertex="1" parent="sfBApIVU6kbWJoy4w3UA-8">
          <mxGeometry x="30" y="90" width="95.71" height="30" as="geometry" />
        </mxCell>
        <mxCell id="sfBApIVU6kbWJoy4w3UA-13" value="" style="endArrow=classic;html=1;rounded=0;entryX=0.764;entryY=-0.014;entryDx=0;entryDy=0;exitX=0.684;exitY=1.167;exitDx=0;exitDy=0;exitPerimeter=0;entryPerimeter=0;" edge="1" parent="sfBApIVU6kbWJoy4w3UA-8" source="sfBApIVU6kbWJoy4w3UA-9" target="sfBApIVU6kbWJoy4w3UA-10">
          <mxGeometry width="50" height="50" relative="1" as="geometry">
            <mxPoint x="130" y="70" as="sourcePoint" />
            <mxPoint x="130" y="110" as="targetPoint" />
          </mxGeometry>
        </mxCell>
        <mxCell id="sfBApIVU6kbWJoy4w3UA-271" value="news" style="text;strokeColor=#d79b00;fillColor=#ffe6cc;align=center;verticalAlign=middle;rounded=1;" vertex="1" parent="sfBApIVU6kbWJoy4w3UA-8">
          <mxGeometry x="200" y="90" width="60" height="30" as="geometry" />
        </mxCell>
        <mxCell id="sfBApIVU6kbWJoy4w3UA-86" value="" style="endArrow=classic;html=1;rounded=0;exitX=0.455;exitY=0.024;exitDx=0;exitDy=0;exitPerimeter=0;entryX=0.47;entryY=0.992;entryDx=0;entryDy=0;entryPerimeter=0;" edge="1" source="sfBApIVU6kbWJoy4w3UA-10" parent="sfBApIVU6kbWJoy4w3UA-8" target="sfBApIVU6kbWJoy4w3UA-9">
          <mxGeometry width="50" height="50" relative="1" as="geometry">
            <mxPoint x="170" y="110" as="sourcePoint" />
            <mxPoint x="170" y="70" as="targetPoint" />
          </mxGeometry>
        </mxCell>
        <mxCell id="sfBApIVU6kbWJoy4w3UA-14" value="NewsService" style="swimlane;whiteSpace=wrap;html=1;fillColor=#fff2cc;strokeColor=#d6b656;" vertex="1" parent="1">
          <mxGeometry x="3620" y="80" width="200" height="100" as="geometry" />
        </mxCell>
        <mxCell id="sfBApIVU6kbWJoy4w3UA-15" value="" style="endArrow=classic;html=1;rounded=0;" edge="1" parent="sfBApIVU6kbWJoy4w3UA-14">
          <mxGeometry width="50" height="50" relative="1" as="geometry">
            <mxPoint x="-210" y="40" as="sourcePoint" />
            <mxPoint y="40" as="targetPoint" />
          </mxGeometry>
        </mxCell>
        <mxCell id="sfBApIVU6kbWJoy4w3UA-16" value="" style="endArrow=none;dashed=1;html=1;dashPattern=1 3;strokeWidth=2;rounded=0;" edge="1" parent="sfBApIVU6kbWJoy4w3UA-14">
          <mxGeometry width="50" height="50" relative="1" as="geometry">
            <mxPoint y="69.17000000000002" as="sourcePoint" />
            <mxPoint x="200" y="69.17000000000002" as="targetPoint" />
            <Array as="points" />
          </mxGeometry>
        </mxCell>
        <mxCell id="sfBApIVU6kbWJoy4w3UA-17" value="" style="endArrow=classic;html=1;rounded=0;" edge="1" parent="1">
          <mxGeometry width="50" height="50" relative="1" as="geometry">
            <mxPoint x="3210" y="140" as="sourcePoint" />
            <mxPoint x="2880" y="140" as="targetPoint" />
          </mxGeometry>
        </mxCell>
        <mxCell id="sfBApIVU6kbWJoy4w3UA-18" value="" style="endArrow=classic;html=1;rounded=0;exitX=-0.011;exitY=0.698;exitDx=0;exitDy=0;exitPerimeter=0;" edge="1" source="sfBApIVU6kbWJoy4w3UA-19" parent="1">
          <mxGeometry width="50" height="50" relative="1" as="geometry">
            <mxPoint x="3370" y="370" as="sourcePoint" />
            <mxPoint x="3820" y="150" as="targetPoint" />
          </mxGeometry>
        </mxCell>
        <mxCell id="sfBApIVU6kbWJoy4w3UA-19" value="" style="shape=cylinder3;whiteSpace=wrap;html=1;boundedLbl=1;backgroundOutline=1;size=15;" vertex="1" parent="1">
          <mxGeometry x="4030" y="80" width="110" height="100" as="geometry" />
        </mxCell>
        <mxCell id="sfBApIVU6kbWJoy4w3UA-20" value="NewsRepo" style="text;html=1;strokeColor=none;fillColor=none;align=center;verticalAlign=middle;whiteSpace=wrap;rounded=0;" vertex="1" parent="1">
          <mxGeometry x="4055" y="130" width="60" height="30" as="geometry" />
        </mxCell>
        <mxCell id="sfBApIVU6kbWJoy4w3UA-21" value="" style="endArrow=classic;html=1;rounded=0;exitX=-0.011;exitY=0.698;exitDx=0;exitDy=0;exitPerimeter=0;" edge="1" parent="1">
          <mxGeometry width="50" height="50" relative="1" as="geometry">
            <mxPoint x="3620" y="150" as="sourcePoint" />
            <mxPoint x="3411" y="150" as="targetPoint" />
          </mxGeometry>
        </mxCell>
        <mxCell id="sfBApIVU6kbWJoy4w3UA-46" value="" style="endArrow=classic;html=1;rounded=0;entryX=0.75;entryY=0;entryDx=0;entryDy=0;exitX=0.75;exitY=1;exitDx=0;exitDy=0;" edge="1" source="sfBApIVU6kbWJoy4w3UA-7" target="sfBApIVU6kbWJoy4w3UA-8" parent="1">
          <mxGeometry width="50" height="50" relative="1" as="geometry">
            <mxPoint x="3370" y="270" as="sourcePoint" />
            <mxPoint x="3420" y="220" as="targetPoint" />
          </mxGeometry>
        </mxCell>
        <mxCell id="sfBApIVU6kbWJoy4w3UA-59" value="" style="endArrow=classic;html=1;rounded=0;entryX=0.25;entryY=1;entryDx=0;entryDy=0;exitX=0.374;exitY=-0.008;exitDx=0;exitDy=0;exitPerimeter=0;" edge="1" source="sfBApIVU6kbWJoy4w3UA-8" target="sfBApIVU6kbWJoy4w3UA-7" parent="1">
          <mxGeometry width="50" height="50" relative="1" as="geometry">
            <mxPoint x="3200" y="340" as="sourcePoint" />
            <mxPoint x="3250" y="290" as="targetPoint" />
          </mxGeometry>
        </mxCell>
        <mxCell id="sfBApIVU6kbWJoy4w3UA-80" value="" style="endArrow=classic;html=1;rounded=0;" edge="1" parent="1">
          <mxGeometry width="50" height="50" relative="1" as="geometry">
            <mxPoint x="2960" y="120" as="sourcePoint" />
            <mxPoint x="3210" y="120" as="targetPoint" />
          </mxGeometry>
        </mxCell>
        <mxCell id="sfBApIVU6kbWJoy4w3UA-81" value="" style="endArrow=classic;html=1;rounded=0;" edge="1" parent="1">
          <mxGeometry width="50" height="50" relative="1" as="geometry">
            <mxPoint x="3820" y="120" as="sourcePoint" />
            <mxPoint x="4030" y="120" as="targetPoint" />
          </mxGeometry>
        </mxCell>
        <mxCell id="sfBApIVU6kbWJoy4w3UA-82" value="" style="endArrow=none;dashed=1;html=1;dashPattern=1 3;strokeWidth=2;rounded=0;entryX=0.25;entryY=1;entryDx=0;entryDy=0;" edge="1" target="sfBApIVU6kbWJoy4w3UA-7" parent="1">
          <mxGeometry width="50" height="50" relative="1" as="geometry">
            <mxPoint x="3210" y="140" as="sourcePoint" />
            <mxPoint x="3250" y="330" as="targetPoint" />
            <Array as="points">
              <mxPoint x="3260" y="140" />
            </Array>
          </mxGeometry>
        </mxCell>
        <mxCell id="sfBApIVU6kbWJoy4w3UA-83" value="" style="endArrow=none;dashed=1;html=1;dashPattern=1 3;strokeWidth=2;rounded=0;entryX=0.75;entryY=1;entryDx=0;entryDy=0;" edge="1" target="sfBApIVU6kbWJoy4w3UA-7" parent="1">
          <mxGeometry width="50" height="50" relative="1" as="geometry">
            <mxPoint x="3410" y="150" as="sourcePoint" />
            <mxPoint x="3270" y="190" as="targetPoint" />
            <Array as="points">
              <mxPoint x="3360" y="150" />
            </Array>
          </mxGeometry>
        </mxCell>
        <mxCell id="sfBApIVU6kbWJoy4w3UA-84" value="" style="endArrow=none;dashed=1;html=1;dashPattern=1 3;strokeWidth=2;rounded=0;" edge="1" parent="1">
          <mxGeometry width="50" height="50" relative="1" as="geometry">
            <mxPoint x="3210" y="120" as="sourcePoint" />
            <mxPoint x="3410" y="120" as="targetPoint" />
            <Array as="points" />
          </mxGeometry>
        </mxCell>
        <mxCell id="sfBApIVU6kbWJoy4w3UA-85" value="" style="endArrow=none;dashed=1;html=1;dashPattern=1 3;strokeWidth=2;rounded=0;" edge="1" parent="1">
          <mxGeometry width="50" height="50" relative="1" as="geometry">
            <mxPoint x="3620" y="120" as="sourcePoint" />
            <mxPoint x="3820" y="120" as="targetPoint" />
            <Array as="points" />
          </mxGeometry>
        </mxCell>
        <mxCell id="sfBApIVU6kbWJoy4w3UA-87" value="" style="ellipse;whiteSpace=wrap;html=1;aspect=fixed;" vertex="1" parent="1">
          <mxGeometry x="2980" y="80" width="30" height="30" as="geometry" />
        </mxCell>
        <mxCell id="sfBApIVU6kbWJoy4w3UA-88" value="" style="ellipse;whiteSpace=wrap;html=1;aspect=fixed;" vertex="1" parent="1">
          <mxGeometry x="3495" y="80" width="30" height="30" as="geometry" />
        </mxCell>
        <mxCell id="sfBApIVU6kbWJoy4w3UA-89" value="" style="ellipse;whiteSpace=wrap;html=1;aspect=fixed;" vertex="1" parent="1">
          <mxGeometry x="3890" y="80" width="30" height="30" as="geometry" />
        </mxCell>
        <mxCell id="sfBApIVU6kbWJoy4w3UA-90" value="findById" style="text;html=1;strokeColor=none;fillColor=none;align=center;verticalAlign=middle;whiteSpace=wrap;rounded=0;fontStyle=1;fontSize=14;" vertex="1" parent="1">
          <mxGeometry x="2570" y="765" width="60" height="30" as="geometry" />
        </mxCell>
        <mxCell id="sfBApIVU6kbWJoy4w3UA-91" value="NewsResponse" style="swimlane;whiteSpace=wrap;html=1;" vertex="1" parent="1">
          <mxGeometry x="2700" y="780" width="180" height="170" as="geometry" />
        </mxCell>
        <mxCell id="sfBApIVU6kbWJoy4w3UA-290" value="title&#xa;text&#xa;userId&#xa;categoryId&#xa;countComments" style="text;strokeColor=none;fillColor=#fff2cc;align=left;verticalAlign=middle;rounded=1;fontSize=12;fontStyle=0" vertex="1" parent="sfBApIVU6kbWJoy4w3UA-91">
          <mxGeometry x="15" y="47.489999999999995" width="90" height="105" as="geometry" />
        </mxCell>
        <mxCell id="sfBApIVU6kbWJoy4w3UA-93" value="NewsController" style="swimlane;whiteSpace=wrap;html=1;" vertex="1" parent="1">
          <mxGeometry x="3210" y="730" width="200" height="100" as="geometry" />
        </mxCell>
        <mxCell id="sfBApIVU6kbWJoy4w3UA-94" value="NewsMapper" style="swimlane;strokeColor=default;" vertex="1" parent="1">
          <mxGeometry x="3210" y="980" width="200" height="70" as="geometry" />
        </mxCell>
        <mxCell id="sfBApIVU6kbWJoy4w3UA-95" value="oneNewsToResponse" style="text;strokeColor=#660000;fillColor=none;align=left;verticalAlign=middle;rounded=1;fontStyle=1" vertex="1" parent="sfBApIVU6kbWJoy4w3UA-94">
          <mxGeometry x="10" y="30" width="140" height="30" as="geometry" />
        </mxCell>
        <mxCell id="sfBApIVU6kbWJoy4w3UA-96" value="CategoryService" style="swimlane;whiteSpace=wrap;html=1;" vertex="1" parent="1">
          <mxGeometry x="4350" y="40" width="200" height="100" as="geometry" />
        </mxCell>
        <mxCell id="sfBApIVU6kbWJoy4w3UA-99" value="" style="endArrow=classic;html=1;rounded=0;" edge="1" parent="1">
          <mxGeometry width="50" height="50" relative="1" as="geometry">
            <mxPoint x="3210" y="790" as="sourcePoint" />
            <mxPoint x="2880" y="790" as="targetPoint" />
          </mxGeometry>
        </mxCell>
        <mxCell id="sfBApIVU6kbWJoy4w3UA-100" value="" style="endArrow=classic;html=1;rounded=0;exitX=-0.011;exitY=0.698;exitDx=0;exitDy=0;exitPerimeter=0;" edge="1" source="sfBApIVU6kbWJoy4w3UA-101" parent="1">
          <mxGeometry width="50" height="50" relative="1" as="geometry">
            <mxPoint x="3370" y="1020" as="sourcePoint" />
            <mxPoint x="3820" y="800" as="targetPoint" />
          </mxGeometry>
        </mxCell>
        <mxCell id="sfBApIVU6kbWJoy4w3UA-101" value="" style="shape=cylinder3;whiteSpace=wrap;html=1;boundedLbl=1;backgroundOutline=1;size=15;" vertex="1" parent="1">
          <mxGeometry x="4030" y="730" width="110" height="100" as="geometry" />
        </mxCell>
        <mxCell id="sfBApIVU6kbWJoy4w3UA-102" value="NewsRepo" style="text;html=1;strokeColor=none;fillColor=none;align=center;verticalAlign=middle;whiteSpace=wrap;rounded=0;" vertex="1" parent="1">
          <mxGeometry x="4055" y="780" width="60" height="30" as="geometry" />
        </mxCell>
        <mxCell id="sfBApIVU6kbWJoy4w3UA-103" value="" style="endArrow=classic;html=1;rounded=0;exitX=-0.011;exitY=0.698;exitDx=0;exitDy=0;exitPerimeter=0;" edge="1" parent="1">
          <mxGeometry width="50" height="50" relative="1" as="geometry">
            <mxPoint x="3620" y="800" as="sourcePoint" />
            <mxPoint x="3411" y="800" as="targetPoint" />
          </mxGeometry>
        </mxCell>
        <mxCell id="sfBApIVU6kbWJoy4w3UA-104" value="" style="endArrow=classic;html=1;rounded=0;entryX=0.75;entryY=0;entryDx=0;entryDy=0;exitX=0.75;exitY=1;exitDx=0;exitDy=0;" edge="1" source="sfBApIVU6kbWJoy4w3UA-93" target="sfBApIVU6kbWJoy4w3UA-94" parent="1">
          <mxGeometry width="50" height="50" relative="1" as="geometry">
            <mxPoint x="3370" y="920" as="sourcePoint" />
            <mxPoint x="3420" y="870" as="targetPoint" />
          </mxGeometry>
        </mxCell>
        <mxCell id="sfBApIVU6kbWJoy4w3UA-105" value="" style="endArrow=classic;html=1;rounded=0;entryX=0.25;entryY=1;entryDx=0;entryDy=0;exitX=0.25;exitY=0;exitDx=0;exitDy=0;" edge="1" source="sfBApIVU6kbWJoy4w3UA-94" target="sfBApIVU6kbWJoy4w3UA-93" parent="1">
          <mxGeometry width="50" height="50" relative="1" as="geometry">
            <mxPoint x="3200" y="990" as="sourcePoint" />
            <mxPoint x="3250" y="940" as="targetPoint" />
          </mxGeometry>
        </mxCell>
        <mxCell id="sfBApIVU6kbWJoy4w3UA-106" value="" style="endArrow=classic;html=1;rounded=0;" edge="1" parent="1">
          <mxGeometry width="50" height="50" relative="1" as="geometry">
            <mxPoint x="2960" y="770" as="sourcePoint" />
            <mxPoint x="3210" y="770" as="targetPoint" />
          </mxGeometry>
        </mxCell>
        <mxCell id="sfBApIVU6kbWJoy4w3UA-107" value="" style="endArrow=classic;html=1;rounded=0;" edge="1" parent="1">
          <mxGeometry width="50" height="50" relative="1" as="geometry">
            <mxPoint x="3820" y="770" as="sourcePoint" />
            <mxPoint x="4030" y="770" as="targetPoint" />
          </mxGeometry>
        </mxCell>
        <mxCell id="sfBApIVU6kbWJoy4w3UA-108" value="" style="endArrow=none;dashed=1;html=1;dashPattern=1 3;strokeWidth=2;rounded=0;entryX=0.25;entryY=1;entryDx=0;entryDy=0;" edge="1" target="sfBApIVU6kbWJoy4w3UA-93" parent="1">
          <mxGeometry width="50" height="50" relative="1" as="geometry">
            <mxPoint x="3210" y="790" as="sourcePoint" />
            <mxPoint x="3250" y="980" as="targetPoint" />
            <Array as="points">
              <mxPoint x="3260" y="790" />
            </Array>
          </mxGeometry>
        </mxCell>
        <mxCell id="sfBApIVU6kbWJoy4w3UA-109" value="" style="endArrow=none;dashed=1;html=1;dashPattern=1 3;strokeWidth=2;rounded=0;entryX=0.75;entryY=1;entryDx=0;entryDy=0;" edge="1" target="sfBApIVU6kbWJoy4w3UA-93" parent="1">
          <mxGeometry width="50" height="50" relative="1" as="geometry">
            <mxPoint x="3410" y="800" as="sourcePoint" />
            <mxPoint x="3270" y="840" as="targetPoint" />
            <Array as="points">
              <mxPoint x="3360" y="800" />
            </Array>
          </mxGeometry>
        </mxCell>
        <mxCell id="sfBApIVU6kbWJoy4w3UA-110" value="" style="endArrow=none;dashed=1;html=1;dashPattern=1 3;strokeWidth=2;rounded=0;" edge="1" parent="1">
          <mxGeometry width="50" height="50" relative="1" as="geometry">
            <mxPoint x="3210" y="770" as="sourcePoint" />
            <mxPoint x="3410" y="770" as="targetPoint" />
            <Array as="points" />
          </mxGeometry>
        </mxCell>
        <mxCell id="sfBApIVU6kbWJoy4w3UA-111" value="" style="endArrow=none;dashed=1;html=1;dashPattern=1 3;strokeWidth=2;rounded=0;" edge="1" parent="1">
          <mxGeometry width="50" height="50" relative="1" as="geometry">
            <mxPoint x="3620" y="770" as="sourcePoint" />
            <mxPoint x="3820" y="770" as="targetPoint" />
            <Array as="points" />
          </mxGeometry>
        </mxCell>
        <mxCell id="sfBApIVU6kbWJoy4w3UA-112" value="Long id" style="rounded=1;whiteSpace=wrap;html=1;" vertex="1" parent="1">
          <mxGeometry x="2980" y="740" width="60" height="20" as="geometry" />
        </mxCell>
        <mxCell id="sfBApIVU6kbWJoy4w3UA-113" value="Long id" style="rounded=1;whiteSpace=wrap;html=1;" vertex="1" parent="1">
          <mxGeometry x="3480" y="740" width="60" height="20" as="geometry" />
        </mxCell>
        <mxCell id="sfBApIVU6kbWJoy4w3UA-114" value="Long id" style="rounded=1;whiteSpace=wrap;html=1;" vertex="1" parent="1">
          <mxGeometry x="3900" y="740" width="60" height="20" as="geometry" />
        </mxCell>
        <mxCell id="sfBApIVU6kbWJoy4w3UA-127" value="News" style="swimlane;whiteSpace=wrap;html=1;fillColor=#ffe6cc;strokeColor=#d79b00;" vertex="1" parent="1">
          <mxGeometry x="3870" y="810" width="120" height="180" as="geometry" />
        </mxCell>
        <mxCell id="sfBApIVU6kbWJoy4w3UA-299" value="id&#xa;createAt&#xa;updateAt&#xa;title&#xa;text&#xa;user&#xa;category&#xa;comments" style="text;align=left;verticalAlign=middle;resizable=0;points=[];autosize=1;strokeColor=#d79b00;fillColor=#ffe6cc;rounded=1;" vertex="1" parent="sfBApIVU6kbWJoy4w3UA-127">
          <mxGeometry x="12.5" y="40" width="80" height="130" as="geometry" />
        </mxCell>
        <mxCell id="sfBApIVU6kbWJoy4w3UA-129" value="create" style="text;html=1;strokeColor=none;fillColor=none;align=center;verticalAlign=middle;whiteSpace=wrap;rounded=0;fontStyle=1;fontSize=14;" vertex="1" parent="1">
          <mxGeometry x="2590" y="1280" width="60" height="30" as="geometry" />
        </mxCell>
        <mxCell id="sfBApIVU6kbWJoy4w3UA-130" value="NewsResponse" style="swimlane;whiteSpace=wrap;html=1;" vertex="1" parent="1">
          <mxGeometry x="2690" y="1320" width="180" height="135" as="geometry" />
        </mxCell>
        <mxCell id="sfBApIVU6kbWJoy4w3UA-311" value="title&#xa;text&#xa;userId&#xa;categoryId&#xa;countComments" style="text;strokeColor=none;fillColor=#fff2cc;align=left;verticalAlign=middle;rounded=1;fontSize=12;fontStyle=0" vertex="1" parent="sfBApIVU6kbWJoy4w3UA-130">
          <mxGeometry x="15" y="35" width="90" height="90" as="geometry" />
        </mxCell>
        <mxCell id="sfBApIVU6kbWJoy4w3UA-132" value="NewsController" style="swimlane;whiteSpace=wrap;html=1;" vertex="1" parent="1">
          <mxGeometry x="3170" y="1250" width="240" height="100" as="geometry" />
        </mxCell>
        <mxCell id="sfBApIVU6kbWJoy4w3UA-133" value="UserMapper" style="swimlane;strokeColor=default;" vertex="1" parent="1">
          <mxGeometry x="3100" y="1610" width="390" height="110" as="geometry" />
        </mxCell>
        <mxCell id="sfBApIVU6kbWJoy4w3UA-134" value="oneNewsToResponse" style="text;strokeColor=#660000;fillColor=none;align=center;verticalAlign=top;rounded=1;fontStyle=1" vertex="1" parent="sfBApIVU6kbWJoy4w3UA-133">
          <mxGeometry x="220" y="50" width="140" height="30" as="geometry" />
        </mxCell>
        <mxCell id="sfBApIVU6kbWJoy4w3UA-135" value="requestToUser" style="text;strokeColor=default;fillColor=none;align=center;verticalAlign=top;rounded=1;fontStyle=1;horizontal=1;fontColor=#000000;" vertex="1" parent="sfBApIVU6kbWJoy4w3UA-133">
          <mxGeometry x="10" y="50" width="200" height="30" as="geometry" />
        </mxCell>
        <mxCell id="sfBApIVU6kbWJoy4w3UA-136" value="NewsService" style="swimlane;whiteSpace=wrap;html=1;" vertex="1" parent="1">
          <mxGeometry x="3620" y="1250" width="200" height="100" as="geometry" />
        </mxCell>
        <mxCell id="sfBApIVU6kbWJoy4w3UA-137" value="" style="endArrow=classic;html=1;rounded=0;strokeColor=#009900;" edge="1" parent="sfBApIVU6kbWJoy4w3UA-136">
          <mxGeometry width="50" height="50" relative="1" as="geometry">
            <mxPoint x="-210" y="40" as="sourcePoint" />
            <mxPoint y="40" as="targetPoint" />
          </mxGeometry>
        </mxCell>
        <mxCell id="sfBApIVU6kbWJoy4w3UA-138" value="" style="endArrow=none;dashed=1;html=1;dashPattern=1 3;strokeWidth=2;rounded=0;strokeColor=#FF8000;" edge="1" parent="sfBApIVU6kbWJoy4w3UA-136">
          <mxGeometry width="50" height="50" relative="1" as="geometry">
            <mxPoint y="69.17000000000002" as="sourcePoint" />
            <mxPoint x="200" y="69.17000000000002" as="targetPoint" />
            <Array as="points" />
          </mxGeometry>
        </mxCell>
        <mxCell id="sfBApIVU6kbWJoy4w3UA-139" value="" style="endArrow=classic;html=1;rounded=0;entryX=1;entryY=0.5;entryDx=0;entryDy=0;strokeColor=#FF8000;" edge="1" target="sfBApIVU6kbWJoy4w3UA-130" parent="1">
          <mxGeometry width="50" height="50" relative="1" as="geometry">
            <mxPoint x="3210" y="1310" as="sourcePoint" />
            <mxPoint x="2880" y="1310" as="targetPoint" />
            <Array as="points">
              <mxPoint x="2940" y="1310" />
              <mxPoint x="2940" y="1388" />
            </Array>
          </mxGeometry>
        </mxCell>
        <mxCell id="sfBApIVU6kbWJoy4w3UA-140" value="" style="endArrow=classic;html=1;rounded=0;exitX=-0.011;exitY=0.698;exitDx=0;exitDy=0;exitPerimeter=0;strokeColor=#FF8000;" edge="1" source="sfBApIVU6kbWJoy4w3UA-141" parent="1">
          <mxGeometry width="50" height="50" relative="1" as="geometry">
            <mxPoint x="3370" y="1540" as="sourcePoint" />
            <mxPoint x="3820" y="1320" as="targetPoint" />
          </mxGeometry>
        </mxCell>
        <mxCell id="sfBApIVU6kbWJoy4w3UA-141" value="" style="shape=cylinder3;whiteSpace=wrap;html=1;boundedLbl=1;backgroundOutline=1;size=15;" vertex="1" parent="1">
          <mxGeometry x="4030" y="1250" width="110" height="100" as="geometry" />
        </mxCell>
        <mxCell id="sfBApIVU6kbWJoy4w3UA-142" value="NewsRepo" style="text;html=1;strokeColor=none;fillColor=none;align=center;verticalAlign=middle;whiteSpace=wrap;rounded=0;" vertex="1" parent="1">
          <mxGeometry x="4055" y="1300" width="60" height="30" as="geometry" />
        </mxCell>
        <mxCell id="sfBApIVU6kbWJoy4w3UA-143" value="" style="endArrow=classic;html=1;rounded=0;exitX=-0.011;exitY=0.698;exitDx=0;exitDy=0;exitPerimeter=0;strokeColor=#FF8000;" edge="1" parent="1">
          <mxGeometry width="50" height="50" relative="1" as="geometry">
            <mxPoint x="3620" y="1320" as="sourcePoint" />
            <mxPoint x="3411" y="1320" as="targetPoint" />
          </mxGeometry>
        </mxCell>
        <mxCell id="sfBApIVU6kbWJoy4w3UA-144" value="" style="endArrow=classic;html=1;rounded=0;strokeColor=#FF8000;" edge="1" parent="1">
          <mxGeometry width="50" height="50" relative="1" as="geometry">
            <mxPoint x="3380" y="1350" as="sourcePoint" />
            <mxPoint x="3380" y="1660" as="targetPoint" />
            <Array as="points">
              <mxPoint x="3380" y="1590" />
            </Array>
          </mxGeometry>
        </mxCell>
        <mxCell id="sfBApIVU6kbWJoy4w3UA-145" value="" style="endArrow=classic;html=1;rounded=0;strokeColor=#FF8000;" edge="1" parent="1">
          <mxGeometry width="50" height="50" relative="1" as="geometry">
            <mxPoint x="3350" y="1660" as="sourcePoint" />
            <mxPoint x="3350" y="1350" as="targetPoint" />
            <Array as="points">
              <mxPoint x="3350" y="1650" />
              <mxPoint x="3350" y="1600" />
            </Array>
          </mxGeometry>
        </mxCell>
        <mxCell id="sfBApIVU6kbWJoy4w3UA-146" value="" style="endArrow=classic;html=1;rounded=0;strokeColor=#006666;" edge="1" parent="1">
          <mxGeometry width="50" height="50" relative="1" as="geometry">
            <mxPoint x="2870" y="1240" as="sourcePoint" />
            <mxPoint x="3170" y="1290" as="targetPoint" />
            <Array as="points">
              <mxPoint x="2940" y="1240" />
              <mxPoint x="2940" y="1290" />
              <mxPoint x="3030" y="1290" />
            </Array>
          </mxGeometry>
        </mxCell>
        <mxCell id="sfBApIVU6kbWJoy4w3UA-147" value="" style="endArrow=classic;html=1;rounded=0;strokeColor=#009900;" edge="1" parent="1">
          <mxGeometry width="50" height="50" relative="1" as="geometry">
            <mxPoint x="3820" y="1290" as="sourcePoint" />
            <mxPoint x="4030" y="1290" as="targetPoint" />
          </mxGeometry>
        </mxCell>
        <mxCell id="sfBApIVU6kbWJoy4w3UA-148" value="" style="endArrow=none;dashed=1;html=1;dashPattern=1 3;strokeWidth=2;rounded=0;strokeColor=#FF8000;" edge="1" parent="1">
          <mxGeometry width="50" height="50" relative="1" as="geometry">
            <mxPoint x="3210" y="1310" as="sourcePoint" />
            <mxPoint x="3350" y="1350" as="targetPoint" />
            <Array as="points">
              <mxPoint x="3350" y="1310" />
            </Array>
          </mxGeometry>
        </mxCell>
        <mxCell id="sfBApIVU6kbWJoy4w3UA-149" value="" style="endArrow=none;dashed=1;html=1;dashPattern=1 3;strokeWidth=2;rounded=0;strokeColor=#FF8000;" edge="1" parent="1">
          <mxGeometry width="50" height="50" relative="1" as="geometry">
            <mxPoint x="3410" y="1320" as="sourcePoint" />
            <mxPoint x="3380" y="1350" as="targetPoint" />
            <Array as="points">
              <mxPoint x="3380" y="1320" />
            </Array>
          </mxGeometry>
        </mxCell>
        <mxCell id="sfBApIVU6kbWJoy4w3UA-150" value="" style="endArrow=none;dashed=1;html=1;strokeWidth=2;rounded=0;strokeColor=#006666;" edge="1" parent="1">
          <mxGeometry width="50" height="50" relative="1" as="geometry">
            <mxPoint x="3170" y="1290" as="sourcePoint" />
            <mxPoint x="3200" y="1350" as="targetPoint" />
            <Array as="points">
              <mxPoint x="3200" y="1290" />
            </Array>
          </mxGeometry>
        </mxCell>
        <mxCell id="sfBApIVU6kbWJoy4w3UA-151" value="" style="endArrow=none;dashed=1;html=1;dashPattern=1 3;strokeWidth=2;rounded=0;strokeColor=#009900;" edge="1" parent="1">
          <mxGeometry width="50" height="50" relative="1" as="geometry">
            <mxPoint x="3620" y="1290" as="sourcePoint" />
            <mxPoint x="3820" y="1290" as="targetPoint" />
            <Array as="points" />
          </mxGeometry>
        </mxCell>
        <mxCell id="sfBApIVU6kbWJoy4w3UA-157" value="UpsertNewsRequest" style="swimlane;whiteSpace=wrap;html=1;" vertex="1" parent="1">
          <mxGeometry x="2690" y="1180" width="180" height="110" as="geometry" />
        </mxCell>
        <mxCell id="sfBApIVU6kbWJoy4w3UA-312" value="userId&#xa;categoryId&#xa;title&#xa;text" style="text;align=left;verticalAlign=middle;resizable=0;points=[];autosize=1;strokeColor=none;fillColor=#d5e8d4;rounded=1;" vertex="1" parent="sfBApIVU6kbWJoy4w3UA-157">
          <mxGeometry x="15" y="30" width="80" height="70" as="geometry" />
        </mxCell>
        <mxCell id="sfBApIVU6kbWJoy4w3UA-159" value="" style="endArrow=classic;html=1;rounded=0;strokeColor=#009900;exitX=0.545;exitY=-0.122;exitDx=0;exitDy=0;exitPerimeter=0;" edge="1" parent="1" source="sfBApIVU6kbWJoy4w3UA-135">
          <mxGeometry width="50" height="50" relative="1" as="geometry">
            <mxPoint x="3260" y="1660" as="sourcePoint" />
            <mxPoint x="3220" y="1350" as="targetPoint" />
          </mxGeometry>
        </mxCell>
        <mxCell id="sfBApIVU6kbWJoy4w3UA-160" value="" style="endArrow=classic;html=1;rounded=0;strokeColor=#006666;entryX=0.452;entryY=0.011;entryDx=0;entryDy=0;entryPerimeter=0;" edge="1" parent="1" target="sfBApIVU6kbWJoy4w3UA-135">
          <mxGeometry width="50" height="50" relative="1" as="geometry">
            <mxPoint x="3200" y="1350" as="sourcePoint" />
            <mxPoint x="3200" y="1670" as="targetPoint" />
            <Array as="points" />
          </mxGeometry>
        </mxCell>
        <mxCell id="sfBApIVU6kbWJoy4w3UA-162" value="" style="endArrow=none;dashed=1;html=1;strokeWidth=2;rounded=0;strokeColor=#009900;" edge="1" parent="1">
          <mxGeometry width="50" height="50" relative="1" as="geometry">
            <mxPoint x="3410" y="1290" as="sourcePoint" />
            <mxPoint x="3220" y="1350" as="targetPoint" />
            <Array as="points">
              <mxPoint x="3220" y="1290" />
            </Array>
          </mxGeometry>
        </mxCell>
        <mxCell id="sfBApIVU6kbWJoy4w3UA-168" value="&lt;span style=&quot;color: rgb(0, 0, 0); font-family: Helvetica; font-size: 12px; font-style: normal; font-variant-ligatures: normal; font-variant-caps: normal; font-weight: 400; letter-spacing: normal; orphans: 2; text-align: center; text-indent: 0px; text-transform: none; widows: 2; word-spacing: 0px; -webkit-text-stroke-width: 0px; background-color: rgb(251, 251, 251); text-decoration-thickness: initial; text-decoration-style: initial; text-decoration-color: initial; float: none; display: inline !important;&quot;&gt;UpsertNewsRequest&lt;/span&gt;" style="text;html=1;strokeColor=#82b366;fillColor=#d5e8d4;align=center;verticalAlign=middle;whiteSpace=wrap;rounded=1;" vertex="1" parent="1">
          <mxGeometry x="3000" y="1240" width="120" height="40" as="geometry" />
        </mxCell>
        <mxCell id="sfBApIVU6kbWJoy4w3UA-170" value="NewsMapperDelegate" style="swimlane;whiteSpace=wrap;html=1;" vertex="1" parent="1">
          <mxGeometry x="4290" y="360" width="310" height="1650" as="geometry" />
        </mxCell>
        <mxCell id="sfBApIVU6kbWJoy4w3UA-364" value="" style="group" vertex="1" connectable="0" parent="sfBApIVU6kbWJoy4w3UA-170">
          <mxGeometry x="30" y="30" width="250" height="240" as="geometry" />
        </mxCell>
        <mxCell id="sfBApIVU6kbWJoy4w3UA-171" value="newsToResponse" style="text;strokeColor=default;fillColor=none;align=center;verticalAlign=top;rounded=1;fontStyle=1" vertex="1" parent="sfBApIVU6kbWJoy4w3UA-364">
          <mxGeometry width="250" height="240" as="geometry" />
        </mxCell>
        <mxCell id="sfBApIVU6kbWJoy4w3UA-175" value="" style="endArrow=classic;html=1;rounded=0;" edge="1" parent="sfBApIVU6kbWJoy4w3UA-364">
          <mxGeometry width="50" height="50" relative="1" as="geometry">
            <mxPoint x="142.5" y="100" as="sourcePoint" />
            <mxPoint x="107.5" y="100.21000000000001" as="targetPoint" />
          </mxGeometry>
        </mxCell>
        <mxCell id="sfBApIVU6kbWJoy4w3UA-284" value="id&#xa;createAt&#xa;updateAt&#xa;&#xa;title&#xa;text&#xa;&#xa;user&#xa;&#xa;category&#xa;&#xa;comments" style="text;align=left;verticalAlign=middle;resizable=0;points=[];autosize=1;strokeColor=#d79b00;fillColor=#ffe6cc;rounded=1;" vertex="1" parent="sfBApIVU6kbWJoy4w3UA-364">
          <mxGeometry x="150" y="25" width="80" height="190" as="geometry" />
        </mxCell>
        <mxCell id="sfBApIVU6kbWJoy4w3UA-285" value="" style="endArrow=classic;html=1;rounded=0;" edge="1" parent="sfBApIVU6kbWJoy4w3UA-364">
          <mxGeometry width="50" height="50" relative="1" as="geometry">
            <mxPoint x="142.5" y="110.00000000000003" as="sourcePoint" />
            <mxPoint x="107.5" y="110.21000000000001" as="targetPoint" />
          </mxGeometry>
        </mxCell>
        <mxCell id="sfBApIVU6kbWJoy4w3UA-172" value="&#xa;&#xa;title&#xa;text&#xa;&#xa;userId&#xa;&#xa;categoryId&#xa;&#xa;countComments" style="text;strokeColor=none;fillColor=#fff2cc;align=left;verticalAlign=middle;rounded=1;fontSize=12;fontStyle=0" vertex="1" parent="sfBApIVU6kbWJoy4w3UA-364">
          <mxGeometry x="10" y="55" width="90" height="160" as="geometry" />
        </mxCell>
        <mxCell id="sfBApIVU6kbWJoy4w3UA-365" value="" style="group" vertex="1" connectable="0" parent="sfBApIVU6kbWJoy4w3UA-170">
          <mxGeometry x="26.920000000000073" y="400" width="250" height="240" as="geometry" />
        </mxCell>
        <mxCell id="sfBApIVU6kbWJoy4w3UA-366" value="oneNewsToResponse" style="text;strokeColor=default;fillColor=none;align=center;verticalAlign=top;rounded=1;fontStyle=1" vertex="1" parent="sfBApIVU6kbWJoy4w3UA-365">
          <mxGeometry width="250" height="240" as="geometry" />
        </mxCell>
        <mxCell id="sfBApIVU6kbWJoy4w3UA-367" value="" style="endArrow=classic;html=1;rounded=0;" edge="1" parent="sfBApIVU6kbWJoy4w3UA-365">
          <mxGeometry width="50" height="50" relative="1" as="geometry">
            <mxPoint x="142.5" y="100" as="sourcePoint" />
            <mxPoint x="107.5" y="100.21000000000001" as="targetPoint" />
          </mxGeometry>
        </mxCell>
        <mxCell id="sfBApIVU6kbWJoy4w3UA-368" value="id&#xa;createAt&#xa;updateAt&#xa;&#xa;title&#xa;text&#xa;&#xa;user&#xa;&#xa;category&#xa;&#xa;comments" style="text;align=left;verticalAlign=middle;resizable=0;points=[];autosize=1;strokeColor=#d79b00;fillColor=#ffe6cc;rounded=1;" vertex="1" parent="sfBApIVU6kbWJoy4w3UA-365">
          <mxGeometry x="150" y="25" width="80" height="190" as="geometry" />
        </mxCell>
        <mxCell id="sfBApIVU6kbWJoy4w3UA-369" value="" style="endArrow=classic;html=1;rounded=0;" edge="1" parent="sfBApIVU6kbWJoy4w3UA-365">
          <mxGeometry width="50" height="50" relative="1" as="geometry">
            <mxPoint x="142.5" y="110.00000000000003" as="sourcePoint" />
            <mxPoint x="107.5" y="110.21000000000001" as="targetPoint" />
          </mxGeometry>
        </mxCell>
        <mxCell id="sfBApIVU6kbWJoy4w3UA-370" value="&#xa;&#xa;title&#xa;text&#xa;&#xa;userId&#xa;&#xa;categoryId&#xa;&#xa;comments" style="text;strokeColor=none;fillColor=#fff2cc;align=left;verticalAlign=middle;rounded=1;fontSize=12;fontStyle=0" vertex="1" parent="sfBApIVU6kbWJoy4w3UA-365">
          <mxGeometry x="10" y="55" width="90" height="160" as="geometry" />
        </mxCell>
        <mxCell id="sfBApIVU6kbWJoy4w3UA-385" value="" style="group" vertex="1" connectable="0" parent="sfBApIVU6kbWJoy4w3UA-170">
          <mxGeometry x="30" y="720" width="250" height="240" as="geometry" />
        </mxCell>
        <mxCell id="sfBApIVU6kbWJoy4w3UA-386" value="requestToNews" style="text;strokeColor=default;fillColor=none;align=center;verticalAlign=top;rounded=1;fontStyle=1" vertex="1" parent="sfBApIVU6kbWJoy4w3UA-385">
          <mxGeometry width="250" height="240" as="geometry" />
        </mxCell>
        <mxCell id="sfBApIVU6kbWJoy4w3UA-388" value="id&#xa;createAt&#xa;updateAt&#xa;&#xa;title&#xa;text&#xa;&#xa;user&#xa;&#xa;category&#xa;&#xa;comments" style="text;align=left;verticalAlign=middle;resizable=0;points=[];autosize=1;strokeColor=#d79b00;fillColor=#ffe6cc;rounded=1;" vertex="1" parent="sfBApIVU6kbWJoy4w3UA-385">
          <mxGeometry x="20" y="25" width="80" height="190" as="geometry" />
        </mxCell>
        <mxCell id="sfBApIVU6kbWJoy4w3UA-393" value="" style="endArrow=classic;html=1;rounded=0;" edge="1" parent="sfBApIVU6kbWJoy4w3UA-385">
          <mxGeometry width="50" height="50" relative="1" as="geometry">
            <mxPoint x="150" y="100" as="sourcePoint" />
            <mxPoint x="60" y="100" as="targetPoint" />
          </mxGeometry>
        </mxCell>
        <mxCell id="sfBApIVU6kbWJoy4w3UA-396" value="" style="endArrow=classic;html=1;rounded=0;" edge="1" parent="sfBApIVU6kbWJoy4w3UA-385">
          <mxGeometry width="50" height="50" relative="1" as="geometry">
            <mxPoint x="150" y="110" as="sourcePoint" />
            <mxPoint x="60" y="110" as="targetPoint" />
          </mxGeometry>
        </mxCell>
        <mxCell id="sfBApIVU6kbWJoy4w3UA-392" value="&#xa;&#xa;title&#xa;text&#xa;&#xa;userId&#xa;&#xa;categoryId&#xa;" style="text;align=left;verticalAlign=middle;resizable=0;points=[];autosize=1;strokeColor=none;fillColor=#d5e8d4;rounded=1;" vertex="1" parent="sfBApIVU6kbWJoy4w3UA-385">
          <mxGeometry x="150" y="60" width="80" height="130" as="geometry" />
        </mxCell>
        <mxCell id="sfBApIVU6kbWJoy4w3UA-178" value="" style="curved=1;endArrow=classic;html=1;rounded=0;exitX=1;exitY=0.5;exitDx=0;exitDy=0;strokeColor=#660000;endFill=0;startArrow=classic;startFill=1;entryX=0.5;entryY=1;entryDx=0;entryDy=0;" edge="1" source="sfBApIVU6kbWJoy4w3UA-10" parent="1" target="sfBApIVU6kbWJoy4w3UA-171">
          <mxGeometry width="50" height="50" relative="1" as="geometry">
            <mxPoint x="3840" y="770" as="sourcePoint" />
            <mxPoint x="3810" y="645" as="targetPoint" />
            <Array as="points">
              <mxPoint x="3670" y="650" />
              <mxPoint x="4240" y="650" />
              <mxPoint x="4330" y="650" />
              <mxPoint x="4400" y="650" />
              <mxPoint x="4445" y="650" />
            </Array>
          </mxGeometry>
        </mxCell>
        <mxCell id="sfBApIVU6kbWJoy4w3UA-179" value="" style="curved=1;endArrow=classic;html=1;rounded=0;exitX=1;exitY=0.5;exitDx=0;exitDy=0;strokeColor=#660000;startArrow=classic;startFill=1;entryX=0.119;entryY=1;entryDx=0;entryDy=0;entryPerimeter=0;" edge="1" source="sfBApIVU6kbWJoy4w3UA-95" parent="1" target="sfBApIVU6kbWJoy4w3UA-366">
          <mxGeometry width="50" height="50" relative="1" as="geometry">
            <mxPoint x="3373.4700000000003" y="1025" as="sourcePoint" />
            <mxPoint x="3770" y="1025" as="targetPoint" />
            <Array as="points">
              <mxPoint x="3540" y="1025" />
              <mxPoint x="3640" y="1030" />
              <mxPoint x="4270" y="1030" />
              <mxPoint x="4310" y="1020" />
            </Array>
          </mxGeometry>
        </mxCell>
        <mxCell id="sfBApIVU6kbWJoy4w3UA-181" value="update" style="text;html=1;strokeColor=none;fillColor=none;align=center;verticalAlign=middle;whiteSpace=wrap;rounded=0;fontStyle=1;fontSize=14;" vertex="1" parent="1">
          <mxGeometry x="2595" y="1930" width="60" height="30" as="geometry" />
        </mxCell>
        <mxCell id="sfBApIVU6kbWJoy4w3UA-182" value="UserResponse" style="swimlane;whiteSpace=wrap;html=1;" vertex="1" parent="1">
          <mxGeometry x="2695" y="1970" width="180" height="120" as="geometry" />
        </mxCell>
        <mxCell id="sfBApIVU6kbWJoy4w3UA-183" value="firstName&#xa;secondName&#xa;countNewses&#xa;countComents" style="text;strokeColor=none;fillColor=none;align=left;verticalAlign=middle;rounded=0;fontColor=#660000;fontSize=14;fontStyle=0" vertex="1" parent="sfBApIVU6kbWJoy4w3UA-182">
          <mxGeometry x="10" y="40" width="100" height="70" as="geometry" />
        </mxCell>
        <mxCell id="sfBApIVU6kbWJoy4w3UA-184" value="UserController" style="swimlane;whiteSpace=wrap;html=1;" vertex="1" parent="1">
          <mxGeometry x="3215" y="1900" width="200" height="100" as="geometry" />
        </mxCell>
        <mxCell id="sfBApIVU6kbWJoy4w3UA-185" value="UserMapper" style="swimlane;strokeColor=default;" vertex="1" parent="1">
          <mxGeometry x="3105" y="2260" width="420" height="110" as="geometry" />
        </mxCell>
        <mxCell id="sfBApIVU6kbWJoy4w3UA-186" value="oneNewsToResponse" style="text;strokeColor=#660000;fillColor=none;align=center;verticalAlign=top;rounded=1;fontStyle=1" vertex="1" parent="sfBApIVU6kbWJoy4w3UA-185">
          <mxGeometry x="240" y="50" width="160" height="30" as="geometry" />
        </mxCell>
        <mxCell id="sfBApIVU6kbWJoy4w3UA-187" value="requestToUser" style="text;strokeColor=default;fillColor=none;align=center;verticalAlign=top;rounded=1;fontStyle=1;horizontal=1;fontColor=#000000;" vertex="1" parent="sfBApIVU6kbWJoy4w3UA-185">
          <mxGeometry x="10" y="50" width="200" height="30" as="geometry" />
        </mxCell>
        <mxCell id="sfBApIVU6kbWJoy4w3UA-188" value="UserService" style="swimlane;whiteSpace=wrap;html=1;" vertex="1" parent="1">
          <mxGeometry x="3625" y="1900" width="200" height="130" as="geometry" />
        </mxCell>
        <mxCell id="sfBApIVU6kbWJoy4w3UA-189" value="" style="endArrow=classic;html=1;rounded=0;strokeColor=#009900;" edge="1" parent="sfBApIVU6kbWJoy4w3UA-188">
          <mxGeometry width="50" height="50" relative="1" as="geometry">
            <mxPoint x="-210" y="40" as="sourcePoint" />
            <mxPoint y="40" as="targetPoint" />
          </mxGeometry>
        </mxCell>
        <mxCell id="sfBApIVU6kbWJoy4w3UA-190" value="" style="endArrow=none;dashed=1;html=1;dashPattern=1 3;strokeWidth=2;rounded=0;strokeColor=#FF8000;" edge="1" parent="sfBApIVU6kbWJoy4w3UA-188">
          <mxGeometry width="50" height="50" relative="1" as="geometry">
            <mxPoint y="69.17000000000002" as="sourcePoint" />
            <mxPoint x="200" y="69.17000000000002" as="targetPoint" />
            <Array as="points" />
          </mxGeometry>
        </mxCell>
        <mxCell id="sfBApIVU6kbWJoy4w3UA-191" value="" style="endArrow=classic;html=1;rounded=0;entryX=1;entryY=0.5;entryDx=0;entryDy=0;strokeColor=#FF8000;" edge="1" target="sfBApIVU6kbWJoy4w3UA-182" parent="1">
          <mxGeometry width="50" height="50" relative="1" as="geometry">
            <mxPoint x="3215" y="1960" as="sourcePoint" />
            <mxPoint x="2885" y="1960" as="targetPoint" />
            <Array as="points">
              <mxPoint x="2945" y="1960" />
              <mxPoint x="2945" y="2030" />
            </Array>
          </mxGeometry>
        </mxCell>
        <mxCell id="sfBApIVU6kbWJoy4w3UA-192" value="" style="endArrow=classic;html=1;rounded=0;exitX=-0.011;exitY=0.698;exitDx=0;exitDy=0;exitPerimeter=0;strokeColor=#FF8000;" edge="1" source="sfBApIVU6kbWJoy4w3UA-193" parent="1">
          <mxGeometry width="50" height="50" relative="1" as="geometry">
            <mxPoint x="3375" y="2190" as="sourcePoint" />
            <mxPoint x="3825" y="1970" as="targetPoint" />
          </mxGeometry>
        </mxCell>
        <mxCell id="sfBApIVU6kbWJoy4w3UA-193" value="" style="shape=cylinder3;whiteSpace=wrap;html=1;boundedLbl=1;backgroundOutline=1;size=15;" vertex="1" parent="1">
          <mxGeometry x="4035" y="1900" width="110" height="100" as="geometry" />
        </mxCell>
        <mxCell id="sfBApIVU6kbWJoy4w3UA-194" value="UserRepo" style="text;html=1;strokeColor=none;fillColor=none;align=center;verticalAlign=middle;whiteSpace=wrap;rounded=0;" vertex="1" parent="1">
          <mxGeometry x="4060" y="1950" width="60" height="30" as="geometry" />
        </mxCell>
        <mxCell id="sfBApIVU6kbWJoy4w3UA-195" value="" style="endArrow=classic;html=1;rounded=0;exitX=-0.011;exitY=0.698;exitDx=0;exitDy=0;exitPerimeter=0;strokeColor=#FF8000;" edge="1" parent="1">
          <mxGeometry width="50" height="50" relative="1" as="geometry">
            <mxPoint x="3625" y="1970" as="sourcePoint" />
            <mxPoint x="3416" y="1970" as="targetPoint" />
          </mxGeometry>
        </mxCell>
        <mxCell id="sfBApIVU6kbWJoy4w3UA-196" value="" style="endArrow=classic;html=1;rounded=0;entryX=0.605;entryY=0.041;entryDx=0;entryDy=0;exitX=0.75;exitY=1;exitDx=0;exitDy=0;entryPerimeter=0;strokeColor=#FF8000;" edge="1" source="sfBApIVU6kbWJoy4w3UA-184" target="sfBApIVU6kbWJoy4w3UA-186" parent="1">
          <mxGeometry width="50" height="50" relative="1" as="geometry">
            <mxPoint x="3375" y="2090" as="sourcePoint" />
            <mxPoint x="3425" y="2040" as="targetPoint" />
            <Array as="points">
              <mxPoint x="3365" y="2240" />
              <mxPoint x="3442" y="2240" />
            </Array>
          </mxGeometry>
        </mxCell>
        <mxCell id="sfBApIVU6kbWJoy4w3UA-197" value="" style="endArrow=classic;html=1;rounded=0;exitX=0.483;exitY=-0.015;exitDx=0;exitDy=0;strokeColor=#FF8000;exitPerimeter=0;" edge="1" source="sfBApIVU6kbWJoy4w3UA-186" parent="1">
          <mxGeometry width="50" height="50" relative="1" as="geometry">
            <mxPoint x="3205" y="2160" as="sourcePoint" />
            <mxPoint x="3355" y="2000" as="targetPoint" />
            <Array as="points">
              <mxPoint x="3423" y="2250" />
              <mxPoint x="3355" y="2250" />
            </Array>
          </mxGeometry>
        </mxCell>
        <mxCell id="sfBApIVU6kbWJoy4w3UA-198" value="" style="endArrow=classic;html=1;rounded=0;strokeColor=#006666;" edge="1" parent="1">
          <mxGeometry width="50" height="50" relative="1" as="geometry">
            <mxPoint x="2875" y="1890" as="sourcePoint" />
            <mxPoint x="3215" y="1940" as="targetPoint" />
            <Array as="points">
              <mxPoint x="2945" y="1890" />
              <mxPoint x="2945" y="1940" />
              <mxPoint x="3035" y="1940" />
            </Array>
          </mxGeometry>
        </mxCell>
        <mxCell id="sfBApIVU6kbWJoy4w3UA-199" value="" style="endArrow=classic;html=1;rounded=0;strokeColor=#009900;" edge="1" parent="1">
          <mxGeometry width="50" height="50" relative="1" as="geometry">
            <mxPoint x="3825" y="1940" as="sourcePoint" />
            <mxPoint x="4035" y="1940" as="targetPoint" />
          </mxGeometry>
        </mxCell>
        <mxCell id="sfBApIVU6kbWJoy4w3UA-200" value="" style="endArrow=none;dashed=1;html=1;dashPattern=1 3;strokeWidth=2;rounded=0;strokeColor=#FF8000;" edge="1" parent="1">
          <mxGeometry width="50" height="50" relative="1" as="geometry">
            <mxPoint x="3215" y="1960" as="sourcePoint" />
            <mxPoint x="3355" y="2000" as="targetPoint" />
            <Array as="points">
              <mxPoint x="3355" y="1960" />
            </Array>
          </mxGeometry>
        </mxCell>
        <mxCell id="sfBApIVU6kbWJoy4w3UA-201" value="" style="endArrow=none;dashed=1;html=1;dashPattern=1 3;strokeWidth=2;rounded=0;entryX=0.75;entryY=1;entryDx=0;entryDy=0;strokeColor=#FF8000;" edge="1" target="sfBApIVU6kbWJoy4w3UA-184" parent="1">
          <mxGeometry width="50" height="50" relative="1" as="geometry">
            <mxPoint x="3415" y="1970" as="sourcePoint" />
            <mxPoint x="3275" y="2010" as="targetPoint" />
            <Array as="points">
              <mxPoint x="3365" y="1970" />
            </Array>
          </mxGeometry>
        </mxCell>
        <mxCell id="sfBApIVU6kbWJoy4w3UA-202" value="" style="endArrow=none;dashed=1;html=1;strokeWidth=2;rounded=0;strokeColor=#006666;" edge="1" parent="1">
          <mxGeometry width="50" height="50" relative="1" as="geometry">
            <mxPoint x="3215" y="1940" as="sourcePoint" />
            <mxPoint x="3245" y="2000" as="targetPoint" />
            <Array as="points">
              <mxPoint x="3245" y="1940" />
            </Array>
          </mxGeometry>
        </mxCell>
        <mxCell id="sfBApIVU6kbWJoy4w3UA-203" value="" style="endArrow=none;dashed=1;html=1;dashPattern=1 3;strokeWidth=2;rounded=0;strokeColor=#009900;" edge="1" parent="1">
          <mxGeometry width="50" height="50" relative="1" as="geometry">
            <mxPoint x="3625" y="1940" as="sourcePoint" />
            <mxPoint x="3825" y="1940" as="targetPoint" />
            <Array as="points" />
          </mxGeometry>
        </mxCell>
        <mxCell id="sfBApIVU6kbWJoy4w3UA-204" value="" style="group" vertex="1" connectable="0" parent="1">
          <mxGeometry x="3015" y="1970" width="100" height="40" as="geometry" />
        </mxCell>
        <mxCell id="sfBApIVU6kbWJoy4w3UA-205" value="" style="rounded=1;whiteSpace=wrap;html=1;" vertex="1" parent="sfBApIVU6kbWJoy4w3UA-204">
          <mxGeometry width="100" height="40" as="geometry" />
        </mxCell>
        <mxCell id="sfBApIVU6kbWJoy4w3UA-206" value="UserResponse" style="text;html=1;strokeColor=none;fillColor=none;align=center;verticalAlign=middle;whiteSpace=wrap;rounded=0;" vertex="1" parent="sfBApIVU6kbWJoy4w3UA-204">
          <mxGeometry x="10" y="16.91999999999996" width="80" height="6.15" as="geometry" />
        </mxCell>
        <mxCell id="sfBApIVU6kbWJoy4w3UA-207" value="User" style="swimlane;whiteSpace=wrap;html=1;strokeColor=#FF8000;" vertex="1" parent="1">
          <mxGeometry x="3875" y="1980" width="120" height="130" as="geometry" />
        </mxCell>
        <mxCell id="sfBApIVU6kbWJoy4w3UA-208" value="id;&#xa;firstName;&#xa;secondName;&#xa;createAt;&#xa;newses&#xa;comments" style="text;strokeColor=none;fillColor=none;align=left;verticalAlign=middle;rounded=0;" vertex="1" parent="sfBApIVU6kbWJoy4w3UA-207">
          <mxGeometry x="10" y="36.92" width="85" height="90" as="geometry" />
        </mxCell>
        <mxCell id="sfBApIVU6kbWJoy4w3UA-209" value="UpsertUserRequest" style="swimlane;whiteSpace=wrap;html=1;" vertex="1" parent="1">
          <mxGeometry x="2695" y="1830" width="180" height="90" as="geometry" />
        </mxCell>
        <mxCell id="sfBApIVU6kbWJoy4w3UA-210" value="firstName&#xa;secondName" style="text;strokeColor=none;fillColor=none;align=left;verticalAlign=middle;rounded=0;fontColor=#660000;fontSize=14;fontStyle=0" vertex="1" parent="sfBApIVU6kbWJoy4w3UA-209">
          <mxGeometry x="10" y="30" width="100" height="50" as="geometry" />
        </mxCell>
        <mxCell id="sfBApIVU6kbWJoy4w3UA-211" value="" style="endArrow=classic;html=1;rounded=0;strokeColor=#009900;" edge="1" parent="1">
          <mxGeometry width="50" height="50" relative="1" as="geometry">
            <mxPoint x="3265" y="2310" as="sourcePoint" />
            <mxPoint x="3265" y="2000" as="targetPoint" />
          </mxGeometry>
        </mxCell>
        <mxCell id="sfBApIVU6kbWJoy4w3UA-212" value="" style="endArrow=classic;html=1;rounded=0;strokeColor=#006666;" edge="1" parent="1">
          <mxGeometry width="50" height="50" relative="1" as="geometry">
            <mxPoint x="3245" y="2000" as="sourcePoint" />
            <mxPoint x="3190" y="2310" as="targetPoint" />
            <Array as="points">
              <mxPoint x="3245" y="2250" />
              <mxPoint x="3190" y="2250" />
            </Array>
          </mxGeometry>
        </mxCell>
        <mxCell id="sfBApIVU6kbWJoy4w3UA-213" value="UserResponse" style="text;html=1;strokeColor=#FF8000;fillColor=none;align=center;verticalAlign=middle;whiteSpace=wrap;rounded=1;rotation=-90;" vertex="1" parent="1">
          <mxGeometry x="3275" y="2166.92" width="103.47" height="33.08" as="geometry" />
        </mxCell>
        <mxCell id="sfBApIVU6kbWJoy4w3UA-214" value="" style="endArrow=none;dashed=1;html=1;strokeWidth=2;rounded=0;entryX=0.25;entryY=1;entryDx=0;entryDy=0;strokeColor=#009900;" edge="1" target="sfBApIVU6kbWJoy4w3UA-184" parent="1">
          <mxGeometry width="50" height="50" relative="1" as="geometry">
            <mxPoint x="3415" y="1940" as="sourcePoint" />
            <mxPoint x="3255" y="2010" as="targetPoint" />
            <Array as="points">
              <mxPoint x="3265" y="1940" />
            </Array>
          </mxGeometry>
        </mxCell>
        <mxCell id="sfBApIVU6kbWJoy4w3UA-215" value="User" style="text;html=1;strokeColor=#009900;fillColor=none;align=center;verticalAlign=middle;whiteSpace=wrap;rounded=1;" vertex="1" parent="1">
          <mxGeometry x="3495" y="1900" width="60" height="30" as="geometry" />
        </mxCell>
        <mxCell id="sfBApIVU6kbWJoy4w3UA-216" value="User" style="text;html=1;strokeColor=#009900;fillColor=none;align=center;verticalAlign=middle;whiteSpace=wrap;rounded=1;rotation=-90;" vertex="1" parent="1">
          <mxGeometry x="3255" y="2190" width="60" height="30" as="geometry" />
        </mxCell>
        <mxCell id="sfBApIVU6kbWJoy4w3UA-217" value="User" style="text;html=1;strokeColor=#009900;fillColor=none;align=center;verticalAlign=middle;whiteSpace=wrap;rounded=1;" vertex="1" parent="1">
          <mxGeometry x="3915" y="1900" width="60" height="30" as="geometry" />
        </mxCell>
        <mxCell id="sfBApIVU6kbWJoy4w3UA-218" value="User" style="text;html=1;strokeColor=#FF8000;fillColor=none;align=center;verticalAlign=middle;whiteSpace=wrap;rounded=1;" vertex="1" parent="1">
          <mxGeometry x="3495" y="1980" width="60" height="30" as="geometry" />
        </mxCell>
        <mxCell id="sfBApIVU6kbWJoy4w3UA-219" value="User" style="text;html=1;strokeColor=#FF8000;fillColor=none;align=center;verticalAlign=middle;whiteSpace=wrap;rounded=1;rotation=-90;" vertex="1" parent="1">
          <mxGeometry x="3355" y="2190" width="60" height="30" as="geometry" />
        </mxCell>
        <mxCell id="sfBApIVU6kbWJoy4w3UA-220" value="&lt;span style=&quot;color: rgb(0, 0, 0); font-family: Helvetica; font-size: 12px; font-style: normal; font-variant-ligatures: normal; font-variant-caps: normal; font-weight: 400; letter-spacing: normal; orphans: 2; text-align: center; text-indent: 0px; text-transform: none; widows: 2; word-spacing: 0px; -webkit-text-stroke-width: 0px; background-color: rgb(251, 251, 251); text-decoration-thickness: initial; text-decoration-style: initial; text-decoration-color: initial; float: none; display: inline !important;&quot;&gt;UpsertUserRequest&lt;/span&gt;" style="text;html=1;strokeColor=#006666;fillColor=none;align=center;verticalAlign=middle;whiteSpace=wrap;rounded=1;" vertex="1" parent="1">
          <mxGeometry x="3060" y="1895" width="120" height="40" as="geometry" />
        </mxCell>
        <mxCell id="sfBApIVU6kbWJoy4w3UA-221" value="&lt;span style=&quot;color: rgb(0, 0, 0); font-family: Helvetica; font-size: 12px; font-style: normal; font-variant-ligatures: normal; font-variant-caps: normal; font-weight: 400; letter-spacing: normal; orphans: 2; text-align: center; text-indent: 0px; text-transform: none; widows: 2; word-spacing: 0px; -webkit-text-stroke-width: 0px; background-color: rgb(251, 251, 251); text-decoration-thickness: initial; text-decoration-style: initial; text-decoration-color: initial; float: none; display: inline !important;&quot;&gt;UpsertUserRequest&lt;/span&gt;" style="text;html=1;strokeColor=#006666;fillColor=none;align=center;verticalAlign=middle;whiteSpace=wrap;rounded=1;rotation=-90;" vertex="1" parent="1">
          <mxGeometry x="3155" y="2160" width="120" height="40" as="geometry" />
        </mxCell>
        <mxCell id="sfBApIVU6kbWJoy4w3UA-222" value="Long id" style="rounded=1;whiteSpace=wrap;html=1;" vertex="1" parent="1">
          <mxGeometry x="2990" y="1910" width="60" height="20" as="geometry" />
        </mxCell>
        <mxCell id="sfBApIVU6kbWJoy4w3UA-223" value="Long id" style="rounded=1;whiteSpace=wrap;html=1;rotation=-90;" vertex="1" parent="1">
          <mxGeometry x="3195" y="2070" width="60" height="20" as="geometry" />
        </mxCell>
        <mxCell id="sfBApIVU6kbWJoy4w3UA-224" value="" style="curved=1;endArrow=classic;html=1;rounded=0;exitX=1;exitY=0.5;exitDx=0;exitDy=0;strokeColor=#660000;endFill=0;startArrow=classic;startFill=1;entryX=0.3;entryY=1.025;entryDx=0;entryDy=0;entryPerimeter=0;" edge="1" source="sfBApIVU6kbWJoy4w3UA-186" parent="1" target="sfBApIVU6kbWJoy4w3UA-366">
          <mxGeometry width="50" height="50" relative="1" as="geometry">
            <mxPoint x="3510" y="1698" as="sourcePoint" />
            <mxPoint x="4250" y="2270" as="targetPoint" />
            <Array as="points">
              <mxPoint x="3710" y="2310" />
              <mxPoint x="3790" y="2280" />
              <mxPoint x="3830" y="2220" />
              <mxPoint x="3880" y="1730" />
              <mxPoint x="3850" y="1130" />
              <mxPoint x="4110" y="1080" />
              <mxPoint x="4300" y="1080" />
              <mxPoint x="4370" y="1050" />
            </Array>
          </mxGeometry>
        </mxCell>
        <mxCell id="sfBApIVU6kbWJoy4w3UA-225" value="deleteById" style="text;html=1;strokeColor=none;fillColor=none;align=center;verticalAlign=middle;whiteSpace=wrap;rounded=0;fontStyle=1;fontSize=14;" vertex="1" parent="1">
          <mxGeometry x="2775" y="2515" width="60" height="30" as="geometry" />
        </mxCell>
        <mxCell id="sfBApIVU6kbWJoy4w3UA-226" value="UserController" style="swimlane;whiteSpace=wrap;html=1;" vertex="1" parent="1">
          <mxGeometry x="3215" y="2480" width="200" height="100" as="geometry" />
        </mxCell>
        <mxCell id="sfBApIVU6kbWJoy4w3UA-227" value="UserService" style="swimlane;whiteSpace=wrap;html=1;" vertex="1" parent="1">
          <mxGeometry x="3625" y="2480" width="200" height="100" as="geometry" />
        </mxCell>
        <mxCell id="sfBApIVU6kbWJoy4w3UA-228" value="" style="endArrow=classic;html=1;rounded=0;" edge="1" parent="sfBApIVU6kbWJoy4w3UA-227">
          <mxGeometry width="50" height="50" relative="1" as="geometry">
            <mxPoint x="-210" y="40" as="sourcePoint" />
            <mxPoint y="40" as="targetPoint" />
          </mxGeometry>
        </mxCell>
        <mxCell id="sfBApIVU6kbWJoy4w3UA-229" value="" style="endArrow=none;dashed=1;html=1;dashPattern=1 3;strokeWidth=2;rounded=0;" edge="1" parent="sfBApIVU6kbWJoy4w3UA-227">
          <mxGeometry width="50" height="50" relative="1" as="geometry">
            <mxPoint y="69.17000000000002" as="sourcePoint" />
            <mxPoint x="200" y="69.17000000000002" as="targetPoint" />
            <Array as="points" />
          </mxGeometry>
        </mxCell>
        <mxCell id="sfBApIVU6kbWJoy4w3UA-230" value="" style="endArrow=classic;html=1;rounded=0;" edge="1" parent="1">
          <mxGeometry width="50" height="50" relative="1" as="geometry">
            <mxPoint x="3215" y="2540" as="sourcePoint" />
            <mxPoint x="2885" y="2540" as="targetPoint" />
          </mxGeometry>
        </mxCell>
        <mxCell id="sfBApIVU6kbWJoy4w3UA-231" value="" style="shape=cylinder3;whiteSpace=wrap;html=1;boundedLbl=1;backgroundOutline=1;size=15;" vertex="1" parent="1">
          <mxGeometry x="4035" y="2480" width="110" height="100" as="geometry" />
        </mxCell>
        <mxCell id="sfBApIVU6kbWJoy4w3UA-232" value="UserRepo" style="text;html=1;strokeColor=none;fillColor=none;align=center;verticalAlign=middle;whiteSpace=wrap;rounded=0;" vertex="1" parent="1">
          <mxGeometry x="4060" y="2530" width="60" height="30" as="geometry" />
        </mxCell>
        <mxCell id="sfBApIVU6kbWJoy4w3UA-233" value="" style="endArrow=classic;html=1;rounded=0;" edge="1" parent="1">
          <mxGeometry width="50" height="50" relative="1" as="geometry">
            <mxPoint x="2885" y="2520" as="sourcePoint" />
            <mxPoint x="3215" y="2520" as="targetPoint" />
          </mxGeometry>
        </mxCell>
        <mxCell id="sfBApIVU6kbWJoy4w3UA-234" value="" style="endArrow=classic;html=1;rounded=0;" edge="1" parent="1">
          <mxGeometry width="50" height="50" relative="1" as="geometry">
            <mxPoint x="3825" y="2520" as="sourcePoint" />
            <mxPoint x="4035" y="2520" as="targetPoint" />
          </mxGeometry>
        </mxCell>
        <mxCell id="sfBApIVU6kbWJoy4w3UA-235" value="" style="endArrow=none;dashed=1;html=1;dashPattern=1 3;strokeWidth=2;rounded=0;" edge="1" parent="1">
          <mxGeometry width="50" height="50" relative="1" as="geometry">
            <mxPoint x="3215" y="2520" as="sourcePoint" />
            <mxPoint x="3415" y="2520" as="targetPoint" />
            <Array as="points" />
          </mxGeometry>
        </mxCell>
        <mxCell id="sfBApIVU6kbWJoy4w3UA-236" value="" style="endArrow=none;dashed=1;html=1;dashPattern=1 3;strokeWidth=2;rounded=0;" edge="1" parent="1">
          <mxGeometry width="50" height="50" relative="1" as="geometry">
            <mxPoint x="3625" y="2520" as="sourcePoint" />
            <mxPoint x="3825" y="2520" as="targetPoint" />
            <Array as="points" />
          </mxGeometry>
        </mxCell>
        <mxCell id="sfBApIVU6kbWJoy4w3UA-237" value="Long id" style="rounded=1;whiteSpace=wrap;html=1;" vertex="1" parent="1">
          <mxGeometry x="2985" y="2490" width="60" height="20" as="geometry" />
        </mxCell>
        <mxCell id="sfBApIVU6kbWJoy4w3UA-238" value="Long id" style="rounded=1;whiteSpace=wrap;html=1;" vertex="1" parent="1">
          <mxGeometry x="3485" y="2490" width="60" height="20" as="geometry" />
        </mxCell>
        <mxCell id="sfBApIVU6kbWJoy4w3UA-239" value="Long id" style="rounded=1;whiteSpace=wrap;html=1;" vertex="1" parent="1">
          <mxGeometry x="3905" y="2490" width="60" height="20" as="geometry" />
        </mxCell>
        <mxCell id="sfBApIVU6kbWJoy4w3UA-240" value="" style="group" vertex="1" connectable="0" parent="1">
          <mxGeometry x="2985" y="2550" width="100" height="40" as="geometry" />
        </mxCell>
        <mxCell id="sfBApIVU6kbWJoy4w3UA-241" value="" style="rounded=1;whiteSpace=wrap;html=1;" vertex="1" parent="sfBApIVU6kbWJoy4w3UA-240">
          <mxGeometry width="100" height="40" as="geometry" />
        </mxCell>
        <mxCell id="sfBApIVU6kbWJoy4w3UA-242" value="noContent" style="text;html=1;strokeColor=none;fillColor=none;align=center;verticalAlign=middle;whiteSpace=wrap;rounded=0;" vertex="1" parent="sfBApIVU6kbWJoy4w3UA-240">
          <mxGeometry x="10" y="16.91999999999996" width="80" height="6.15" as="geometry" />
        </mxCell>
        <mxCell id="sfBApIVU6kbWJoy4w3UA-260" value="" style="group" vertex="1" connectable="0" parent="1">
          <mxGeometry x="3870" y="160" width="130" height="60" as="geometry" />
        </mxCell>
        <mxCell id="sfBApIVU6kbWJoy4w3UA-259" value="newses" style="rounded=1;whiteSpace=wrap;html=1;align=left;horizontal=1;verticalAlign=top;" vertex="1" parent="sfBApIVU6kbWJoy4w3UA-260">
          <mxGeometry width="130" height="60" as="geometry" />
        </mxCell>
        <mxCell id="sfBApIVU6kbWJoy4w3UA-253" value="news" style="text;strokeColor=#d79b00;fillColor=#ffe6cc;align=center;verticalAlign=middle;rounded=1;" vertex="1" parent="sfBApIVU6kbWJoy4w3UA-260">
          <mxGeometry x="60" y="25" width="60" height="30" as="geometry" />
        </mxCell>
        <mxCell id="sfBApIVU6kbWJoy4w3UA-254" value="news" style="text;strokeColor=#d79b00;fillColor=#ffe6cc;align=center;verticalAlign=middle;rounded=1;" vertex="1" parent="sfBApIVU6kbWJoy4w3UA-260">
          <mxGeometry x="55" y="15" width="60" height="30" as="geometry" />
        </mxCell>
        <mxCell id="sfBApIVU6kbWJoy4w3UA-255" value="news" style="text;strokeColor=#d79b00;fillColor=#ffe6cc;align=center;verticalAlign=middle;rounded=1;" vertex="1" parent="sfBApIVU6kbWJoy4w3UA-260">
          <mxGeometry x="50" y="5" width="60" height="30" as="geometry" />
        </mxCell>
        <mxCell id="sfBApIVU6kbWJoy4w3UA-261" value="" style="group" vertex="1" connectable="0" parent="1">
          <mxGeometry x="3460" y="160" width="130" height="60" as="geometry" />
        </mxCell>
        <mxCell id="sfBApIVU6kbWJoy4w3UA-262" value="newses" style="rounded=1;whiteSpace=wrap;html=1;align=left;horizontal=1;verticalAlign=top;" vertex="1" parent="sfBApIVU6kbWJoy4w3UA-261">
          <mxGeometry width="130" height="60" as="geometry" />
        </mxCell>
        <mxCell id="sfBApIVU6kbWJoy4w3UA-263" value="news" style="text;strokeColor=#d79b00;fillColor=#ffe6cc;align=center;verticalAlign=middle;rounded=1;" vertex="1" parent="sfBApIVU6kbWJoy4w3UA-261">
          <mxGeometry x="60" y="25" width="60" height="30" as="geometry" />
        </mxCell>
        <mxCell id="sfBApIVU6kbWJoy4w3UA-264" value="news" style="text;strokeColor=#d79b00;fillColor=#ffe6cc;align=center;verticalAlign=middle;rounded=1;" vertex="1" parent="sfBApIVU6kbWJoy4w3UA-261">
          <mxGeometry x="55" y="15" width="60" height="30" as="geometry" />
        </mxCell>
        <mxCell id="sfBApIVU6kbWJoy4w3UA-265" value="news" style="text;strokeColor=#d79b00;fillColor=#ffe6cc;align=center;verticalAlign=middle;rounded=1;" vertex="1" parent="sfBApIVU6kbWJoy4w3UA-261">
          <mxGeometry x="50" y="5" width="60" height="30" as="geometry" />
        </mxCell>
        <mxCell id="sfBApIVU6kbWJoy4w3UA-266" value="" style="group" vertex="1" connectable="0" parent="1">
          <mxGeometry x="3380" y="380" width="130" height="60" as="geometry" />
        </mxCell>
        <mxCell id="sfBApIVU6kbWJoy4w3UA-267" value="newses" style="rounded=1;whiteSpace=wrap;html=1;align=left;horizontal=1;verticalAlign=top;" vertex="1" parent="sfBApIVU6kbWJoy4w3UA-266">
          <mxGeometry width="130" height="60" as="geometry" />
        </mxCell>
        <mxCell id="sfBApIVU6kbWJoy4w3UA-268" value="news" style="text;strokeColor=#d79b00;fillColor=#ffe6cc;align=center;verticalAlign=middle;rounded=1;" vertex="1" parent="sfBApIVU6kbWJoy4w3UA-266">
          <mxGeometry x="60" y="25" width="60" height="30" as="geometry" />
        </mxCell>
        <mxCell id="sfBApIVU6kbWJoy4w3UA-269" value="news" style="text;strokeColor=#d79b00;fillColor=#ffe6cc;align=center;verticalAlign=middle;rounded=1;" vertex="1" parent="sfBApIVU6kbWJoy4w3UA-266">
          <mxGeometry x="55" y="15" width="60" height="30" as="geometry" />
        </mxCell>
        <mxCell id="sfBApIVU6kbWJoy4w3UA-270" value="news" style="text;strokeColor=#d79b00;fillColor=#ffe6cc;align=center;verticalAlign=middle;rounded=1;" vertex="1" parent="sfBApIVU6kbWJoy4w3UA-266">
          <mxGeometry x="50" y="5" width="60" height="30" as="geometry" />
        </mxCell>
        <mxCell id="sfBApIVU6kbWJoy4w3UA-275" value="" style="group" vertex="1" connectable="0" parent="1">
          <mxGeometry x="3020" y="300" width="220" height="130" as="geometry" />
        </mxCell>
        <mxCell id="sfBApIVU6kbWJoy4w3UA-244" value="" style="rounded=1;whiteSpace=wrap;html=1;container=0;" vertex="1" parent="sfBApIVU6kbWJoy4w3UA-275">
          <mxGeometry width="220" height="130" as="geometry" />
        </mxCell>
        <mxCell id="sfBApIVU6kbWJoy4w3UA-245" value="NewsListResponse" style="text;html=1;strokeColor=none;fillColor=none;align=center;verticalAlign=middle;whiteSpace=wrap;rounded=0;container=0;" vertex="1" parent="sfBApIVU6kbWJoy4w3UA-275">
          <mxGeometry x="30" y="10" width="60" height="20" as="geometry" />
        </mxCell>
        <mxCell id="sfBApIVU6kbWJoy4w3UA-247" value="" style="rounded=1;whiteSpace=wrap;html=1;container=0;" vertex="1" parent="sfBApIVU6kbWJoy4w3UA-275">
          <mxGeometry x="20" y="40" width="190" height="80" as="geometry" />
        </mxCell>
        <mxCell id="sfBApIVU6kbWJoy4w3UA-248" value="newses" style="text;html=1;strokeColor=none;fillColor=none;align=center;verticalAlign=middle;whiteSpace=wrap;rounded=0;container=0;" vertex="1" parent="sfBApIVU6kbWJoy4w3UA-275">
          <mxGeometry x="10" y="40" width="77.14285714285714" height="30" as="geometry" />
        </mxCell>
        <mxCell id="sfBApIVU6kbWJoy4w3UA-272" value="&amp;nbsp;newsResponse" style="text;html=1;strokeColor=#000000;fillColor=#fff2cc;align=center;verticalAlign=middle;whiteSpace=wrap;rounded=1;container=0;" vertex="1" parent="sfBApIVU6kbWJoy4w3UA-275">
          <mxGeometry x="99.98999999999978" y="80" width="95.71" height="30" as="geometry" />
        </mxCell>
        <mxCell id="sfBApIVU6kbWJoy4w3UA-273" value="&amp;nbsp;newsResponse" style="text;html=1;strokeColor=#000000;fillColor=#fff2cc;align=center;verticalAlign=middle;whiteSpace=wrap;rounded=1;container=0;" vertex="1" parent="sfBApIVU6kbWJoy4w3UA-275">
          <mxGeometry x="92.13999999999987" y="70" width="95.71" height="30" as="geometry" />
        </mxCell>
        <mxCell id="sfBApIVU6kbWJoy4w3UA-252" value="&amp;nbsp;newsResponse" style="text;html=1;strokeColor=#000000;fillColor=#fff2cc;align=center;verticalAlign=middle;whiteSpace=wrap;rounded=1;container=0;" vertex="1" parent="sfBApIVU6kbWJoy4w3UA-275">
          <mxGeometry x="87.13999999999987" y="60" width="95.71" height="30" as="geometry" />
        </mxCell>
        <mxCell id="sfBApIVU6kbWJoy4w3UA-276" value="" style="group" vertex="1" connectable="0" parent="1">
          <mxGeometry x="2920" y="160" width="220" height="130" as="geometry" />
        </mxCell>
        <mxCell id="sfBApIVU6kbWJoy4w3UA-277" value="" style="rounded=1;whiteSpace=wrap;html=1;container=0;" vertex="1" parent="sfBApIVU6kbWJoy4w3UA-276">
          <mxGeometry width="220" height="130" as="geometry" />
        </mxCell>
        <mxCell id="sfBApIVU6kbWJoy4w3UA-278" value="NewsListResponse" style="text;html=1;strokeColor=none;fillColor=none;align=center;verticalAlign=middle;whiteSpace=wrap;rounded=0;container=0;" vertex="1" parent="sfBApIVU6kbWJoy4w3UA-276">
          <mxGeometry x="30" y="10" width="60" height="20" as="geometry" />
        </mxCell>
        <mxCell id="sfBApIVU6kbWJoy4w3UA-279" value="" style="rounded=1;whiteSpace=wrap;html=1;container=0;" vertex="1" parent="sfBApIVU6kbWJoy4w3UA-276">
          <mxGeometry x="20" y="40" width="190" height="80" as="geometry" />
        </mxCell>
        <mxCell id="sfBApIVU6kbWJoy4w3UA-280" value="newses" style="text;html=1;strokeColor=none;fillColor=none;align=center;verticalAlign=middle;whiteSpace=wrap;rounded=0;container=0;" vertex="1" parent="sfBApIVU6kbWJoy4w3UA-276">
          <mxGeometry x="10" y="40" width="77.14285714285714" height="30" as="geometry" />
        </mxCell>
        <mxCell id="sfBApIVU6kbWJoy4w3UA-281" value="&amp;nbsp;newsResponse" style="text;html=1;strokeColor=#000000;fillColor=#fff2cc;align=center;verticalAlign=middle;whiteSpace=wrap;rounded=1;container=0;" vertex="1" parent="sfBApIVU6kbWJoy4w3UA-276">
          <mxGeometry x="99.98999999999978" y="80" width="95.71" height="30" as="geometry" />
        </mxCell>
        <mxCell id="sfBApIVU6kbWJoy4w3UA-282" value="&amp;nbsp;newsResponse" style="text;html=1;strokeColor=#000000;fillColor=#fff2cc;align=center;verticalAlign=middle;whiteSpace=wrap;rounded=1;container=0;" vertex="1" parent="sfBApIVU6kbWJoy4w3UA-276">
          <mxGeometry x="92.13999999999987" y="70" width="95.71" height="30" as="geometry" />
        </mxCell>
        <mxCell id="sfBApIVU6kbWJoy4w3UA-283" value="&amp;nbsp;newsResponse" style="text;html=1;strokeColor=#000000;fillColor=#fff2cc;align=center;verticalAlign=middle;whiteSpace=wrap;rounded=1;container=0;" vertex="1" parent="sfBApIVU6kbWJoy4w3UA-276">
          <mxGeometry x="87.13999999999987" y="60" width="95.71" height="30" as="geometry" />
        </mxCell>
        <mxCell id="sfBApIVU6kbWJoy4w3UA-295" value="&amp;nbsp;userResponse" style="text;html=1;strokeColor=#d6b656;fillColor=#fff2cc;align=center;verticalAlign=middle;whiteSpace=wrap;rounded=1;" vertex="1" parent="1">
          <mxGeometry x="3000" y="800" width="95.71" height="30" as="geometry" />
        </mxCell>
        <mxCell id="sfBApIVU6kbWJoy4w3UA-296" value="&amp;nbsp;userResponse" style="text;html=1;strokeColor=#d6b656;fillColor=#fff2cc;align=center;verticalAlign=middle;whiteSpace=wrap;rounded=1;" vertex="1" parent="1">
          <mxGeometry x="3150" y="925" width="95.71" height="30" as="geometry" />
        </mxCell>
        <mxCell id="sfBApIVU6kbWJoy4w3UA-297" value="news" style="text;strokeColor=#d79b00;fillColor=#ffe6cc;align=center;verticalAlign=middle;rounded=1;" vertex="1" parent="1">
          <mxGeometry x="3480" y="810" width="60" height="30" as="geometry" />
        </mxCell>
        <mxCell id="sfBApIVU6kbWJoy4w3UA-298" value="news" style="text;strokeColor=#d79b00;fillColor=#ffe6cc;align=center;verticalAlign=middle;rounded=1;" vertex="1" parent="1">
          <mxGeometry x="3380" y="920" width="60" height="30" as="geometry" />
        </mxCell>
        <mxCell id="sfBApIVU6kbWJoy4w3UA-300" value="&amp;nbsp;newsResponse" style="text;html=1;strokeColor=#d6b656;fillColor=#fff2cc;align=center;verticalAlign=middle;whiteSpace=wrap;rounded=1;" vertex="1" parent="1">
          <mxGeometry x="3009.29" y="1325" width="95.71" height="30" as="geometry" />
        </mxCell>
        <mxCell id="sfBApIVU6kbWJoy4w3UA-301" value="News" style="swimlane;whiteSpace=wrap;html=1;fillColor=#ffe6cc;strokeColor=#d79b00;" vertex="1" parent="1">
          <mxGeometry x="3870" y="1336.92" width="120" height="180" as="geometry" />
        </mxCell>
        <mxCell id="sfBApIVU6kbWJoy4w3UA-302" value="id&#xa;createAt&#xa;updateAt&#xa;title&#xa;text&#xa;user&#xa;category&#xa;comments" style="text;align=left;verticalAlign=middle;resizable=0;points=[];autosize=1;strokeColor=#d79b00;fillColor=#ffe6cc;rounded=1;" vertex="1" parent="sfBApIVU6kbWJoy4w3UA-301">
          <mxGeometry x="12.5" y="40" width="80" height="130" as="geometry" />
        </mxCell>
        <mxCell id="sfBApIVU6kbWJoy4w3UA-303" value="news" style="text;strokeColor=#d79b00;fillColor=#ffe6cc;align=center;verticalAlign=middle;rounded=1;" vertex="1" parent="1">
          <mxGeometry x="3480" y="1330" width="60" height="30" as="geometry" />
        </mxCell>
        <mxCell id="sfBApIVU6kbWJoy4w3UA-304" value="news" style="text;strokeColor=#d79b00;fillColor=#ffe6cc;align=center;verticalAlign=middle;rounded=1;" vertex="1" parent="1">
          <mxGeometry x="3390" y="1443.08" width="60" height="30" as="geometry" />
        </mxCell>
        <mxCell id="sfBApIVU6kbWJoy4w3UA-305" value="news" style="text;strokeColor=#82b366;fillColor=#d5e8d4;align=center;verticalAlign=middle;rounded=1;" vertex="1" parent="1">
          <mxGeometry x="3230" y="1521.9199999999998" width="60" height="30" as="geometry" />
        </mxCell>
        <mxCell id="sfBApIVU6kbWJoy4w3UA-307" value="news" style="text;strokeColor=#82b366;fillColor=#d5e8d4;align=center;verticalAlign=middle;rounded=1;" vertex="1" parent="1">
          <mxGeometry x="3480" y="1249.9999999999998" width="60" height="30" as="geometry" />
        </mxCell>
        <mxCell id="sfBApIVU6kbWJoy4w3UA-308" value="news" style="text;strokeColor=#82b366;fillColor=#d5e8d4;align=center;verticalAlign=middle;rounded=1;" vertex="1" parent="1">
          <mxGeometry x="3900" y="1249.9999999999998" width="60" height="30" as="geometry" />
        </mxCell>
        <mxCell id="sfBApIVU6kbWJoy4w3UA-309" value="&amp;nbsp;newsResponse" style="text;html=1;strokeColor=#d6b656;fillColor=#fff2cc;align=center;verticalAlign=middle;whiteSpace=wrap;rounded=1;" vertex="1" parent="1">
          <mxGeometry x="3247.15" y="1443.08" width="95.71" height="30" as="geometry" />
        </mxCell>
        <mxCell id="sfBApIVU6kbWJoy4w3UA-310" value="&lt;span style=&quot;color: rgb(0, 0, 0); font-family: Helvetica; font-size: 12px; font-style: normal; font-variant-ligatures: normal; font-variant-caps: normal; font-weight: 400; letter-spacing: normal; orphans: 2; text-align: center; text-indent: 0px; text-transform: none; widows: 2; word-spacing: 0px; -webkit-text-stroke-width: 0px; background-color: rgb(251, 251, 251); text-decoration-thickness: initial; text-decoration-style: initial; text-decoration-color: initial; float: none; display: inline !important;&quot;&gt;UpsertNewsRequest&lt;/span&gt;" style="text;html=1;strokeColor=#82b366;fillColor=#d5e8d4;align=center;verticalAlign=middle;whiteSpace=wrap;rounded=1;" vertex="1" parent="1">
          <mxGeometry x="3070" y="1516.92" width="120" height="40" as="geometry" />
        </mxCell>
        <mxCell id="sfBApIVU6kbWJoy4w3UA-320" value="User" style="rounded=1;whiteSpace=wrap;html=1;fillColor=#dae8fc;strokeColor=#6c8ebf;" vertex="1" parent="1">
          <mxGeometry x="645" y="810" width="80" height="40" as="geometry" />
        </mxCell>
        <mxCell id="sfBApIVU6kbWJoy4w3UA-321" value="User" style="rounded=1;whiteSpace=wrap;html=1;fillColor=#dae8fc;strokeColor=#6c8ebf;" vertex="1" parent="1">
          <mxGeometry x="553.47" y="925" width="80" height="40" as="geometry" />
        </mxCell>
        <mxCell id="sfBApIVU6kbWJoy4w3UA-324" value="User" style="rounded=1;whiteSpace=wrap;html=1;fillColor=#dae8fc;strokeColor=#6c8ebf;fontStyle=1" vertex="1" parent="1">
          <mxGeometry x="665" y="830" width="80" height="40" as="geometry" />
        </mxCell>
        <mxCell id="sfBApIVU6kbWJoy4w3UA-326" value="Long id" style="rounded=1;whiteSpace=wrap;html=1;" vertex="1" parent="1">
          <mxGeometry x="4570" y="-110" width="60" height="20" as="geometry" />
        </mxCell>
        <mxCell id="sfBApIVU6kbWJoy4w3UA-327" value="Long id" style="rounded=1;whiteSpace=wrap;html=1;" vertex="1" parent="1">
          <mxGeometry x="4570" y="50" width="60" height="20" as="geometry" />
        </mxCell>
        <mxCell id="sfBApIVU6kbWJoy4w3UA-328" value="Long id" style="rounded=1;whiteSpace=wrap;html=1;" vertex="1" parent="1">
          <mxGeometry x="4570" y="210" width="60" height="20" as="geometry" />
        </mxCell>
        <mxCell id="sfBApIVU6kbWJoy4w3UA-330" value="User" style="rounded=1;whiteSpace=wrap;html=1;fillColor=#dae8fc;strokeColor=#6c8ebf;" vertex="1" parent="1">
          <mxGeometry x="4220" y="-70" width="80" height="40" as="geometry" />
        </mxCell>
        <mxCell id="sfBApIVU6kbWJoy4w3UA-333" value="category" style="rounded=1;whiteSpace=wrap;html=1;fillColor=#f5f5f5;strokeColor=#666666;fontColor=#333333;" vertex="1" parent="1">
          <mxGeometry x="4240" y="90" width="80" height="40" as="geometry" />
        </mxCell>
        <mxCell id="sfBApIVU6kbWJoy4w3UA-340" value="" style="group;fillColor=none;" vertex="1" connectable="0" parent="1">
          <mxGeometry x="4190" y="250" width="150" height="60" as="geometry" />
        </mxCell>
        <mxCell id="sfBApIVU6kbWJoy4w3UA-341" value="comments" style="rounded=1;whiteSpace=wrap;html=1;align=left;horizontal=1;verticalAlign=top;" vertex="1" parent="sfBApIVU6kbWJoy4w3UA-340">
          <mxGeometry width="150" height="60" as="geometry" />
        </mxCell>
        <mxCell id="sfBApIVU6kbWJoy4w3UA-342" value="news" style="text;strokeColor=#9673a6;fillColor=#e1d5e7;align=center;verticalAlign=middle;rounded=1;" vertex="1" parent="sfBApIVU6kbWJoy4w3UA-340">
          <mxGeometry x="69.23076923076923" y="25" width="69.23076923076923" height="30" as="geometry" />
        </mxCell>
        <mxCell id="sfBApIVU6kbWJoy4w3UA-343" value="news" style="text;strokeColor=#9673a6;fillColor=#e1d5e7;align=center;verticalAlign=middle;rounded=1;" vertex="1" parent="sfBApIVU6kbWJoy4w3UA-340">
          <mxGeometry x="63.46153846153845" y="15" width="69.23076923076923" height="30" as="geometry" />
        </mxCell>
        <mxCell id="sfBApIVU6kbWJoy4w3UA-344" value="comment" style="text;strokeColor=#9673a6;fillColor=#e1d5e7;align=center;verticalAlign=middle;rounded=1;" vertex="1" parent="sfBApIVU6kbWJoy4w3UA-340">
          <mxGeometry x="60" y="5" width="66.92" height="30" as="geometry" />
        </mxCell>
        <mxCell id="sfBApIVU6kbWJoy4w3UA-345" value="UserService" style="swimlane;whiteSpace=wrap;html=1;" vertex="1" parent="1">
          <mxGeometry x="4350" y="-120" width="200" height="100" as="geometry" />
        </mxCell>
        <mxCell id="sfBApIVU6kbWJoy4w3UA-346" value="" style="endArrow=classic;html=1;rounded=0;strokeColor=#003366;strokeWidth=2;" edge="1" parent="sfBApIVU6kbWJoy4w3UA-345">
          <mxGeometry width="50" height="50" relative="1" as="geometry">
            <mxPoint x="330" y="650" as="sourcePoint" />
            <mxPoint x="200" y="40" as="targetPoint" />
            <Array as="points">
              <mxPoint x="330" y="650" />
              <mxPoint x="330" y="40" />
            </Array>
          </mxGeometry>
        </mxCell>
        <mxCell id="sfBApIVU6kbWJoy4w3UA-348" value="UserService" style="swimlane;whiteSpace=wrap;html=1;" vertex="1" parent="1">
          <mxGeometry x="3640" y="750" width="200" height="100" as="geometry" />
        </mxCell>
        <mxCell id="sfBApIVU6kbWJoy4w3UA-349" value="" style="endArrow=classic;html=1;rounded=0;" edge="1" parent="sfBApIVU6kbWJoy4w3UA-348">
          <mxGeometry width="50" height="50" relative="1" as="geometry">
            <mxPoint x="-210" y="40" as="sourcePoint" />
            <mxPoint y="40" as="targetPoint" />
          </mxGeometry>
        </mxCell>
        <mxCell id="sfBApIVU6kbWJoy4w3UA-350" value="" style="endArrow=none;dashed=1;html=1;dashPattern=1 3;strokeWidth=2;rounded=0;" edge="1" parent="sfBApIVU6kbWJoy4w3UA-348">
          <mxGeometry width="50" height="50" relative="1" as="geometry">
            <mxPoint y="69.17000000000002" as="sourcePoint" />
            <mxPoint x="200" y="69.17000000000002" as="targetPoint" />
            <Array as="points" />
          </mxGeometry>
        </mxCell>
        <mxCell id="sfBApIVU6kbWJoy4w3UA-351" value="CommentService" style="swimlane;whiteSpace=wrap;html=1;" vertex="1" parent="1">
          <mxGeometry x="4350" y="200" width="200" height="100" as="geometry" />
        </mxCell>
        <mxCell id="sfBApIVU6kbWJoy4w3UA-356" value="" style="endArrow=classic;html=1;rounded=0;strokeColor=#4D4D4D;strokeWidth=2;" edge="1" parent="1">
          <mxGeometry width="50" height="50" relative="1" as="geometry">
            <mxPoint x="4690" y="560" as="sourcePoint" />
            <mxPoint x="4550" y="80" as="targetPoint" />
            <Array as="points">
              <mxPoint x="4690" y="560" />
              <mxPoint x="4690" y="80" />
            </Array>
          </mxGeometry>
        </mxCell>
        <mxCell id="sfBApIVU6kbWJoy4w3UA-357" value="" style="endArrow=classic;html=1;rounded=0;strokeColor=#990000;strokeWidth=2;" edge="1" parent="1">
          <mxGeometry width="50" height="50" relative="1" as="geometry">
            <mxPoint x="4700" y="590" as="sourcePoint" />
            <mxPoint x="4550" y="240" as="targetPoint" />
            <Array as="points">
              <mxPoint x="4700" y="590" />
              <mxPoint x="4700" y="240" />
            </Array>
          </mxGeometry>
        </mxCell>
        <mxCell id="sfBApIVU6kbWJoy4w3UA-358" value="" style="endArrow=classic;html=1;rounded=0;" edge="1" parent="1">
          <mxGeometry width="50" height="50" relative="1" as="geometry">
            <mxPoint x="4350" y="-80" as="sourcePoint" />
            <mxPoint x="4325" y="529.4100000000001" as="targetPoint" />
            <Array as="points">
              <mxPoint x="4160" y="-80" />
              <mxPoint x="4160" y="529" />
            </Array>
          </mxGeometry>
        </mxCell>
        <mxCell id="sfBApIVU6kbWJoy4w3UA-359" value="" style="endArrow=classic;html=1;rounded=0;entryX=-0.005;entryY=0.714;entryDx=0;entryDy=0;entryPerimeter=0;" edge="1" parent="1" target="sfBApIVU6kbWJoy4w3UA-172">
          <mxGeometry width="50" height="50" relative="1" as="geometry">
            <mxPoint x="4350" y="80" as="sourcePoint" />
            <mxPoint x="4335" y="539.4100000000001" as="targetPoint" />
            <Array as="points">
              <mxPoint x="4170" y="80" />
              <mxPoint x="4170" y="560" />
            </Array>
          </mxGeometry>
        </mxCell>
        <mxCell id="sfBApIVU6kbWJoy4w3UA-360" value="" style="endArrow=classic;html=1;rounded=0;entryX=-0.005;entryY=0.907;entryDx=0;entryDy=0;entryPerimeter=0;strokeWidth=2;strokeColor=#990000;" edge="1" parent="1" target="sfBApIVU6kbWJoy4w3UA-172">
          <mxGeometry width="50" height="50" relative="1" as="geometry">
            <mxPoint x="4350" y="240" as="sourcePoint" />
            <mxPoint x="4340" y="569" as="targetPoint" />
            <Array as="points">
              <mxPoint x="4180" y="240" />
              <mxPoint x="4180" y="590" />
            </Array>
          </mxGeometry>
        </mxCell>
        <mxCell id="sfBApIVU6kbWJoy4w3UA-361" value="getId()" style="text;html=1;align=center;verticalAlign=middle;resizable=0;points=[];autosize=1;strokeColor=none;fillColor=none;" vertex="1" parent="1">
          <mxGeometry x="4230" y="505" width="60" height="30" as="geometry" />
        </mxCell>
        <mxCell id="sfBApIVU6kbWJoy4w3UA-362" value="getId()" style="text;html=1;align=center;verticalAlign=middle;resizable=0;points=[];autosize=1;strokeColor=none;fillColor=none;" vertex="1" parent="1">
          <mxGeometry x="4230" y="535" width="60" height="30" as="geometry" />
        </mxCell>
        <mxCell id="sfBApIVU6kbWJoy4w3UA-363" value="size()" style="text;html=1;align=center;verticalAlign=middle;resizable=0;points=[];autosize=1;strokeColor=none;fillColor=none;" vertex="1" parent="1">
          <mxGeometry x="4235" y="565" width="50" height="30" as="geometry" />
        </mxCell>
        <mxCell id="sfBApIVU6kbWJoy4w3UA-371" value="" style="endArrow=classic;html=1;rounded=0;strokeColor=#003366;strokeWidth=2;" edge="1" parent="1">
          <mxGeometry width="50" height="50" relative="1" as="geometry">
            <mxPoint x="4680" y="900" as="sourcePoint" />
            <mxPoint x="4680" y="530" as="targetPoint" />
            <Array as="points">
              <mxPoint x="4680" y="900" />
            </Array>
          </mxGeometry>
        </mxCell>
        <mxCell id="sfBApIVU6kbWJoy4w3UA-372" value="" style="endArrow=classic;html=1;rounded=0;strokeColor=#003366;strokeWidth=2;" edge="1" parent="1">
          <mxGeometry width="50" height="50" relative="1" as="geometry">
            <mxPoint x="4510" y="530" as="sourcePoint" />
            <mxPoint x="4680" y="530" as="targetPoint" />
          </mxGeometry>
        </mxCell>
        <mxCell id="sfBApIVU6kbWJoy4w3UA-373" value="" style="endArrow=classic;html=1;rounded=0;exitX=0.663;exitY=0.763;exitDx=0;exitDy=0;exitPerimeter=0;strokeColor=#4D4D4D;strokeWidth=2;" edge="1" parent="1" source="sfBApIVU6kbWJoy4w3UA-368">
          <mxGeometry width="50" height="50" relative="1" as="geometry">
            <mxPoint x="4520" y="909.23" as="sourcePoint" />
            <mxPoint x="4690" y="560" as="targetPoint" />
            <Array as="points">
              <mxPoint x="4690" y="930" />
            </Array>
          </mxGeometry>
        </mxCell>
        <mxCell id="sfBApIVU6kbWJoy4w3UA-374" value="" style="endArrow=classic;html=1;rounded=0;exitX=0.788;exitY=0.921;exitDx=0;exitDy=0;exitPerimeter=0;strokeColor=#990000;strokeWidth=2;" edge="1" parent="1" source="sfBApIVU6kbWJoy4w3UA-368">
          <mxGeometry width="50" height="50" relative="1" as="geometry">
            <mxPoint x="4530" y="919.23" as="sourcePoint" />
            <mxPoint x="4700" y="590" as="targetPoint" />
            <Array as="points">
              <mxPoint x="4700" y="960" />
            </Array>
          </mxGeometry>
        </mxCell>
        <mxCell id="sfBApIVU6kbWJoy4w3UA-375" value="" style="endArrow=classic;html=1;rounded=0;" edge="1" parent="1">
          <mxGeometry width="50" height="50" relative="1" as="geometry">
            <mxPoint x="4520" y="560" as="sourcePoint" />
            <mxPoint x="4690" y="560" as="targetPoint" />
          </mxGeometry>
        </mxCell>
        <mxCell id="sfBApIVU6kbWJoy4w3UA-376" value="" style="endArrow=classic;html=1;rounded=0;strokeColor=#990000;strokeWidth=2;" edge="1" parent="1">
          <mxGeometry width="50" height="50" relative="1" as="geometry">
            <mxPoint x="4530" y="590" as="sourcePoint" />
            <mxPoint x="4700" y="590" as="targetPoint" />
          </mxGeometry>
        </mxCell>
        <mxCell id="sfBApIVU6kbWJoy4w3UA-378" value="" style="endArrow=classic;html=1;rounded=0;" edge="1" parent="1">
          <mxGeometry width="50" height="50" relative="1" as="geometry">
            <mxPoint x="4160" y="530" as="sourcePoint" />
            <mxPoint x="4330" y="899.73" as="targetPoint" />
            <Array as="points">
              <mxPoint x="4160" y="900" />
            </Array>
          </mxGeometry>
        </mxCell>
        <mxCell id="sfBApIVU6kbWJoy4w3UA-379" value="" style="endArrow=classic;html=1;rounded=0;entryX=0.016;entryY=0.726;entryDx=0;entryDy=0;entryPerimeter=0;strokeWidth=2;strokeColor=#4D4D4D;" edge="1" parent="1" target="sfBApIVU6kbWJoy4w3UA-370">
          <mxGeometry width="50" height="50" relative="1" as="geometry">
            <mxPoint x="4170" y="540" as="sourcePoint" />
            <mxPoint x="4340" y="909.73" as="targetPoint" />
            <Array as="points">
              <mxPoint x="4170" y="930" />
            </Array>
          </mxGeometry>
        </mxCell>
        <mxCell id="sfBApIVU6kbWJoy4w3UA-380" value="" style="endArrow=classic;html=1;rounded=0;entryX=0.023;entryY=0.904;entryDx=0;entryDy=0;entryPerimeter=0;strokeWidth=2;strokeColor=#990000;" edge="1" parent="1" target="sfBApIVU6kbWJoy4w3UA-370">
          <mxGeometry width="50" height="50" relative="1" as="geometry">
            <mxPoint x="4180" y="550" as="sourcePoint" />
            <mxPoint x="4350" y="919.73" as="targetPoint" />
            <Array as="points">
              <mxPoint x="4180" y="960" />
            </Array>
          </mxGeometry>
        </mxCell>
        <mxCell id="sfBApIVU6kbWJoy4w3UA-383" value="getId()" style="text;html=1;align=center;verticalAlign=middle;resizable=0;points=[];autosize=1;strokeColor=none;fillColor=none;" vertex="1" parent="1">
          <mxGeometry x="4235" y="870" width="60" height="30" as="geometry" />
        </mxCell>
        <mxCell id="sfBApIVU6kbWJoy4w3UA-384" value="getId()" style="text;html=1;align=center;verticalAlign=middle;resizable=0;points=[];autosize=1;strokeColor=none;fillColor=none;" vertex="1" parent="1">
          <mxGeometry x="4235" y="900" width="60" height="30" as="geometry" />
        </mxCell>
        <mxCell id="sfBApIVU6kbWJoy4w3UA-397" value="" style="endArrow=classic;html=1;rounded=0;exitX=0.625;exitY=0.615;exitDx=0;exitDy=0;exitPerimeter=0;strokeColor=#003366;strokeWidth=2;" edge="1" parent="1" source="sfBApIVU6kbWJoy4w3UA-392">
          <mxGeometry width="50" height="50" relative="1" as="geometry">
            <mxPoint x="4540" y="970" as="sourcePoint" />
            <mxPoint x="4680" y="900" as="targetPoint" />
            <Array as="points">
              <mxPoint x="4680" y="1220" />
            </Array>
          </mxGeometry>
        </mxCell>
        <mxCell id="sfBApIVU6kbWJoy4w3UA-398" value="" style="endArrow=classic;html=1;rounded=0;strokeColor=#003366;strokeWidth=2;" edge="1" parent="1">
          <mxGeometry width="50" height="50" relative="1" as="geometry">
            <mxPoint x="4510" y="900" as="sourcePoint" />
            <mxPoint x="4680" y="900" as="targetPoint" />
          </mxGeometry>
        </mxCell>
        <mxCell id="sfBApIVU6kbWJoy4w3UA-399" value="" style="endArrow=classic;html=1;rounded=0;exitX=0.875;exitY=0.846;exitDx=0;exitDy=0;exitPerimeter=0;strokeColor=#4D4D4D;strokeWidth=2;" edge="1" parent="1" source="sfBApIVU6kbWJoy4w3UA-392">
          <mxGeometry width="50" height="50" relative="1" as="geometry">
            <mxPoint x="4530" y="1230" as="sourcePoint" />
            <mxPoint x="4690" y="930" as="targetPoint" />
            <Array as="points">
              <mxPoint x="4690" y="1250" />
            </Array>
          </mxGeometry>
        </mxCell>
        <mxCell id="sfBApIVU6kbWJoy4w3UA-400" value="" style="endArrow=classic;html=1;rounded=0;entryX=0.003;entryY=0.607;entryDx=0;entryDy=0;entryPerimeter=0;strokeColor=#003366;strokeWidth=2;" edge="1" parent="1" target="sfBApIVU6kbWJoy4w3UA-388">
          <mxGeometry width="50" height="50" relative="1" as="geometry">
            <mxPoint x="4160" y="900" as="sourcePoint" />
            <mxPoint x="4280" y="1200.8333333333333" as="targetPoint" />
            <Array as="points">
              <mxPoint x="4160" y="1220" />
            </Array>
          </mxGeometry>
        </mxCell>
        <mxCell id="sfBApIVU6kbWJoy4w3UA-402" value="" style="endArrow=classic;html=1;rounded=0;entryX=-0.006;entryY=0.772;entryDx=0;entryDy=0;entryPerimeter=0;strokeWidth=2;strokeColor=#4D4D4D;" edge="1" parent="1" target="sfBApIVU6kbWJoy4w3UA-388">
          <mxGeometry width="50" height="50" relative="1" as="geometry">
            <mxPoint x="4170" y="910" as="sourcePoint" />
            <mxPoint x="4350" y="1230" as="targetPoint" />
            <Array as="points">
              <mxPoint x="4170" y="1250" />
            </Array>
          </mxGeometry>
        </mxCell>
        <mxCell id="sfBApIVU6kbWJoy4w3UA-403" value="" style="endArrow=classic;html=1;rounded=0;strokeColor=#003366;strokeWidth=2;" edge="1" parent="1">
          <mxGeometry width="50" height="50" relative="1" as="geometry">
            <mxPoint x="4350" y="-80" as="sourcePoint" />
            <mxPoint x="4325" y="529.4100000000001" as="targetPoint" />
            <Array as="points">
              <mxPoint x="4160" y="-80" />
              <mxPoint x="4160" y="529" />
            </Array>
          </mxGeometry>
        </mxCell>
        <mxCell id="sfBApIVU6kbWJoy4w3UA-404" value="" style="endArrow=classic;html=1;rounded=0;strokeColor=#003366;strokeWidth=2;" edge="1" parent="1">
          <mxGeometry width="50" height="50" relative="1" as="geometry">
            <mxPoint x="4160" y="530" as="sourcePoint" />
            <mxPoint x="4330" y="899.73" as="targetPoint" />
            <Array as="points">
              <mxPoint x="4160" y="900" />
            </Array>
          </mxGeometry>
        </mxCell>
        <mxCell id="sfBApIVU6kbWJoy4w3UA-405" value="" style="endArrow=classic;html=1;rounded=0;entryX=-0.005;entryY=0.714;entryDx=0;entryDy=0;entryPerimeter=0;strokeWidth=2;strokeColor=#4D4D4D;" edge="1" parent="1">
          <mxGeometry width="50" height="50" relative="1" as="geometry">
            <mxPoint x="4350" y="80" as="sourcePoint" />
            <mxPoint x="4330" y="559" as="targetPoint" />
            <Array as="points">
              <mxPoint x="4170" y="80" />
              <mxPoint x="4170" y="560" />
            </Array>
          </mxGeometry>
        </mxCell>
        <mxCell id="sfBApIVU6kbWJoy4w3UA-406" value="" style="endArrow=classic;html=1;rounded=0;entryX=0.5;entryY=1;entryDx=0;entryDy=0;exitX=0.483;exitY=1.018;exitDx=0;exitDy=0;exitPerimeter=0;startArrow=classic;startFill=1;" edge="1" parent="1" source="sfBApIVU6kbWJoy4w3UA-135" target="sfBApIVU6kbWJoy4w3UA-386">
          <mxGeometry width="50" height="50" relative="1" as="geometry">
            <mxPoint x="3680" y="1560" as="sourcePoint" />
            <mxPoint x="3730" y="1510" as="targetPoint" />
            <Array as="points">
              <mxPoint x="3207" y="1760" />
              <mxPoint x="4160" y="1760" />
              <mxPoint x="4160" y="1400" />
              <mxPoint x="4445" y="1400" />
            </Array>
          </mxGeometry>
        </mxCell>
        <mxCell id="sfBApIVU6kbWJoy4w3UA-409" value="" style="curved=1;endArrow=classic;html=1;rounded=0;entryX=0.194;entryY=1.014;entryDx=0;entryDy=0;entryPerimeter=0;exitX=1;exitY=0.5;exitDx=0;exitDy=0;strokeColor=#660000;" edge="1" parent="1" source="sfBApIVU6kbWJoy4w3UA-134" target="sfBApIVU6kbWJoy4w3UA-366">
          <mxGeometry width="50" height="50" relative="1" as="geometry">
            <mxPoint x="3820" y="1490" as="sourcePoint" />
            <mxPoint x="4390" y="1010" as="targetPoint" />
            <Array as="points">
              <mxPoint x="3710" y="1675" />
              <mxPoint x="3830" y="1490" />
              <mxPoint x="3860" y="1100" />
              <mxPoint x="4060" y="1060" />
              <mxPoint x="4250" y="1060" />
              <mxPoint x="4350" y="1030" />
            </Array>
          </mxGeometry>
        </mxCell>
        <mxCell id="sfBApIVU6kbWJoy4w3UA-410" value="User" style="rounded=1;whiteSpace=wrap;html=1;fillColor=#dae8fc;strokeColor=#6c8ebf;" vertex="1" parent="1">
          <mxGeometry x="4200" y="1165" width="80" height="40" as="geometry" />
        </mxCell>
        <mxCell id="sfBApIVU6kbWJoy4w3UA-411" value="category" style="rounded=1;whiteSpace=wrap;html=1;fillColor=#f5f5f5;strokeColor=#666666;fontColor=#333333;" vertex="1" parent="1">
          <mxGeometry x="4190" y="1260" width="80" height="40" as="geometry" />
        </mxCell>
      </root>
    </mxGraphModel>
  </diagram>
</mxfile>
